<?xml version="1.0" encoding="utf-8" standalone="no"?>
<!DOCTYPE svg PUBLIC "-//W3C//DTD SVG 1.1//EN"
  "http://www.w3.org/Graphics/SVG/1.1/DTD/svg11.dtd">
<!-- Created with matplotlib (https://matplotlib.org/) -->
<svg height="603.1775pt" version="1.1" viewBox="0 0 680.376989 603.1775" width="680.376989pt" xmlns="http://www.w3.org/2000/svg" xmlns:xlink="http://www.w3.org/1999/xlink">
 <defs>
  <style type="text/css">
*{stroke-linecap:butt;stroke-linejoin:round;}
  </style>
 </defs>
 <g id="figure_1">
  <g id="patch_1">
   <path d="M 0 603.1775 
L 680.376989 603.1775 
L 680.376989 0 
L 0 0 
z
" style="fill:#ffffff;"/>
  </g>
  <g id="axes_1">
   <g id="patch_2">
    <path d="M 115.176989 464.745 
L 673.176989 464.745 
L 673.176989 29.865 
L 115.176989 29.865 
z
" style="fill:#ffffff;"/>
   </g>
   <g id="PolyCollection_1">
    <defs>
     <path d="M 140.540625 -553.545227 
L 140.540625 -553.545227 
L 152.459627 -553.545227 
L 152.459627 -533.357728 
L 161.041309 -533.357728 
L 161.041309 -530.798644 
L 163.901869 -530.798644 
L 163.901869 -527.111008 
L 170.57651 -527.111008 
L 170.57651 -527.111008 
L 171.05327 -527.111008 
L 171.05327 -527.111008 
L 172.00679 -527.111008 
L 172.00679 -527.111008 
L 173.437071 -527.111008 
L 173.437071 -527.111008 
L 176.297631 -527.111008 
L 176.297631 -527.111008 
L 180.111712 -527.111008 
L 180.111712 -523.013899 
L 185.356073 -523.013899 
L 185.356073 -523.013899 
L 186.309593 -523.013899 
L 186.309593 -523.013899 
L 186.786353 -523.013899 
L 186.786353 -523.013899 
L 187.263113 -523.013899 
L 187.263113 -523.013899 
L 187.739873 -523.013899 
L 187.739873 -518.805687 
L 190.123674 -518.805687 
L 190.123674 -518.805687 
L 191.077194 -518.805687 
L 191.077194 -518.805687 
L 192.030714 -518.805687 
L 192.030714 -518.805687 
L 193.460994 -518.805687 
L 193.460994 -514.474903 
L 195.368034 -514.474903 
L 195.368034 -505.957796 
L 196.321555 -505.957796 
L 196.321555 -505.957796 
L 196.798315 -505.957796 
L 196.798315 -505.957796 
L 197.275075 -505.957796 
L 197.275075 -505.957796 
L 200.612395 -505.957796 
L 200.612395 -505.957796 
L 201.565915 -505.957796 
L 201.565915 -505.957796 
L 204.426476 -505.957796 
L 204.426476 -505.957796 
L 205.379996 -505.957796 
L 205.379996 -505.957796 
L 206.810276 -505.957796 
L 206.810276 -505.957796 
L 207.287036 -505.957796 
L 207.287036 -501.169251 
L 208.240557 -501.169251 
L 208.240557 -501.169251 
L 208.717317 -501.169251 
L 208.717317 -501.169251 
L 213.008157 -501.169251 
L 213.008157 -501.169251 
L 213.961678 -501.169251 
L 213.961678 -496.236949 
L 214.915198 -496.236949 
L 214.915198 -496.236949 
L 218.729278 -496.236949 
L 218.729278 -496.236949 
L 219.206039 -496.236949 
L 219.206039 -496.236949 
L 221.113079 -496.236949 
L 221.113079 -491.258334 
L 221.589839 -491.258334 
L 221.589839 -491.258334 
L 222.543359 -491.258334 
L 222.543359 -486.333772 
L 223.496879 -486.333772 
L 223.496879 -486.333772 
L 223.973639 -486.333772 
L 223.973639 -481.447151 
L 227.78772 -481.447151 
L 227.78772 -476.642556 
L 229.218 -476.642556 
L 229.218 -476.642556 
L 229.69476 -476.642556 
L 229.69476 -476.642556 
L 230.17152 -476.642556 
L 230.17152 -476.642556 
L 231.601801 -476.642556 
L 231.601801 -476.642556 
L 232.078561 -476.642556 
L 232.078561 -476.642556 
L 234.462361 -476.642556 
L 234.462361 -471.559222 
L 235.892641 -471.559222 
L 235.892641 -471.559222 
L 241.613762 -471.559222 
L 241.613762 -466.430814 
L 246.858123 -466.430814 
L 246.858123 -461.3774 
L 248.288404 -461.3774 
L 248.288404 -461.3774 
L 248.765164 -461.3774 
L 248.765164 -461.3774 
L 249.718684 -461.3774 
L 249.718684 -456.130213 
L 251.625724 -456.130213 
L 251.625724 -456.130213 
L 253.056004 -456.130213 
L 253.056004 -450.815341 
L 254.963045 -450.815341 
L 254.963045 -445.425514 
L 261.637686 -445.425514 
L 261.637686 -445.425514 
L 262.591206 -445.425514 
L 262.591206 -439.797017 
L 264.021486 -439.797017 
L 264.021486 -439.797017 
L 265.928527 -439.797017 
L 265.928527 -439.797017 
L 268.312327 -439.797017 
L 268.312327 -433.992319 
L 268.789087 -433.992319 
L 268.789087 -433.992319 
L 269.265847 -433.992319 
L 269.265847 -428.176112 
L 269.742607 -428.176112 
L 269.742607 -428.176112 
L 270.219367 -428.176112 
L 270.219367 -428.176112 
L 271.172887 -428.176112 
L 271.172887 -428.176112 
L 273.079928 -428.176112 
L 273.079928 -428.176112 
L 274.510208 -428.176112 
L 274.510208 -428.176112 
L 275.463728 -428.176112 
L 275.463728 -428.176112 
L 278.801049 -428.176112 
L 278.801049 -421.752568 
L 279.277809 -421.752568 
L 279.277809 -421.752568 
L 280.708089 -421.752568 
L 280.708089 -415.086981 
L 284.04541 -415.086981 
L 284.04541 -415.086981 
L 290.243291 -415.086981 
L 290.243291 -415.086981 
L 291.673571 -415.086981 
L 291.673571 -415.086981 
L 292.150331 -415.086981 
L 292.150331 -408.021776 
L 296.441172 -408.021776 
L 296.441172 -408.021776 
L 297.394692 -408.021776 
L 297.394692 -400.933588 
L 301.208773 -400.933588 
L 301.208773 -400.933588 
L 303.592573 -400.933588 
L 303.592573 -400.933588 
L 304.069333 -400.933588 
L 304.069333 -400.933588 
L 307.406654 -400.933588 
L 307.406654 -400.933588 
L 308.836934 -400.933588 
L 308.836934 -400.933588 
L 309.313694 -400.933588 
L 309.313694 -393.202096 
L 313.604535 -393.202096 
L 313.604535 -393.202096 
L 314.081295 -393.202096 
L 314.081295 -393.202096 
L 314.558055 -393.202096 
L 314.558055 -393.202096 
L 315.034815 -393.202096 
L 315.034815 -393.202096 
L 317.418615 -393.202096 
L 317.418615 -393.202096 
L 317.895376 -393.202096 
L 317.895376 -393.202096 
L 318.372136 -393.202096 
L 318.372136 -393.202096 
L 318.848896 -393.202096 
L 318.848896 -384.04693 
L 320.279176 -384.04693 
L 320.279176 -384.04693 
L 320.755936 -384.04693 
L 320.755936 -374.864948 
L 321.232696 -374.864948 
L 321.232696 -374.864948 
L 321.709456 -374.864948 
L 321.709456 -365.378315 
L 324.570017 -365.378315 
L 324.570017 -365.378315 
L 326.000297 -365.378315 
L 326.000297 -355.826106 
L 326.477057 -355.826106 
L 326.477057 -355.826106 
L 327.430577 -355.826106 
L 327.430577 -355.826106 
L 327.907337 -355.826106 
L 327.907337 -355.826106 
L 329.814378 -355.826106 
L 329.814378 -355.826106 
L 331.244658 -355.826106 
L 331.244658 -355.826106 
L 332.674938 -355.826106 
L 332.674938 -344.885511 
L 337.442539 -344.885511 
L 337.442539 -344.885511 
L 338.872819 -344.885511 
L 338.872819 -344.885511 
L 340.303099 -344.885511 
L 340.303099 -332.562299 
L 343.64042 -332.562299 
L 343.64042 -332.562299 
L 344.11718 -332.562299 
L 344.11718 -332.562299 
L 358.419982 -332.562299 
L 358.419982 -332.562299 
L 363.664343 -332.562299 
L 363.664343 -332.562299 
L 365.094624 -332.562299 
L 365.094624 -318.415971 
L 370.338985 -318.415971 
L 370.338985 -318.415971 
L 371.292505 -318.415971 
L 371.292505 -303.406045 
L 372.722785 -303.406045 
L 372.722785 -303.406045 
L 374.153065 -303.406045 
L 374.153065 -303.406045 
L 375.106585 -303.406045 
L 375.106585 -286.364795 
L 377.490386 -286.364795 
L 377.490386 -286.364795 
L 385.595307 -286.364795 
L 385.595307 -269.052112 
L 390.362908 -269.052112 
L 390.362908 -269.052112 
L 391.316428 -269.052112 
L 391.316428 -269.052112 
L 392.746708 -269.052112 
L 392.746708 -249.987603 
L 395.607269 -249.987603 
L 395.607269 -231.944021 
L 397.514309 -231.944021 
L 397.514309 -214.776305 
L 400.85163 -214.776305 
L 400.85163 -198.383923 
L 409.910071 -198.383923 
L 409.910071 -198.383923 
L 410.863592 -198.383923 
L 410.863592 -198.383923 
L 416.107952 -198.383923 
L 416.107952 -198.383923 
L 421.352313 -198.383923 
L 421.352313 -198.383923 
L 422.305833 -198.383923 
L 422.305833 -198.383923 
L 428.503715 -198.383923 
L 428.503715 -198.383923 
L 430.410755 -198.383923 
L 430.410755 -198.383923 
L 430.887515 -198.383923 
L 430.887515 -158.199773 
L 435.178356 -158.199773 
L 435.178356 -158.199773 
L 450.434678 -158.199773 
L 450.434678 -158.199773 
L 463.783961 -158.199773 
L 463.783961 -158.199773 
L 478.563523 -158.199773 
L 478.563523 -158.199773 
L 483.807884 -158.199773 
L 483.807884 -158.199773 
L 647.813352 -158.199773 
L 647.813352 -158.199773 
L 647.813352 -324.261598 
L 647.813352 -324.261598 
L 647.813352 -324.261598 
L 483.807884 -324.261598 
L 483.807884 -324.261598 
L 478.563523 -324.261598 
L 478.563523 -324.261598 
L 463.783961 -324.261598 
L 463.783961 -324.261598 
L 450.434678 -324.261598 
L 450.434678 -324.261598 
L 435.178356 -324.261598 
L 435.178356 -324.261598 
L 430.887515 -324.261598 
L 430.887515 -343.379587 
L 430.410755 -343.379587 
L 430.410755 -343.379587 
L 428.503715 -343.379587 
L 428.503715 -343.379587 
L 422.305833 -343.379587 
L 422.305833 -343.379587 
L 421.352313 -343.379587 
L 421.352313 -343.379587 
L 416.107952 -343.379587 
L 416.107952 -343.379587 
L 410.863592 -343.379587 
L 410.863592 -343.379587 
L 409.910071 -343.379587 
L 409.910071 -343.379587 
L 400.85163 -343.379587 
L 400.85163 -357.011635 
L 397.514309 -357.011635 
L 397.514309 -370.181122 
L 395.607269 -370.181122 
L 395.607269 -382.847594 
L 392.746708 -382.847594 
L 392.746708 -394.945563 
L 391.316428 -394.945563 
L 391.316428 -394.945563 
L 390.362908 -394.945563 
L 390.362908 -394.945563 
L 385.595307 -394.945563 
L 385.595307 -405.87871 
L 377.490386 -405.87871 
L 377.490386 -405.87871 
L 375.106585 -405.87871 
L 375.106585 -416.081445 
L 374.153065 -416.081445 
L 374.153065 -416.081445 
L 372.722785 -416.081445 
L 372.722785 -416.081445 
L 371.292505 -416.081445 
L 371.292505 -425.239864 
L 370.338985 -425.239864 
L 370.338985 -425.239864 
L 365.094624 -425.239864 
L 365.094624 -433.718924 
L 363.664343 -433.718924 
L 363.664343 -433.718924 
L 358.419982 -433.718924 
L 358.419982 -433.718924 
L 344.11718 -433.718924 
L 344.11718 -433.718924 
L 343.64042 -433.718924 
L 343.64042 -433.718924 
L 340.303099 -433.718924 
L 340.303099 -441.345775 
L 338.872819 -441.345775 
L 338.872819 -441.345775 
L 337.442539 -441.345775 
L 337.442539 -441.345775 
L 332.674938 -441.345775 
L 332.674938 -448.291178 
L 331.244658 -448.291178 
L 331.244658 -448.291178 
L 329.814378 -448.291178 
L 329.814378 -448.291178 
L 327.907337 -448.291178 
L 327.907337 -448.291178 
L 327.430577 -448.291178 
L 327.430577 -448.291178 
L 326.477057 -448.291178 
L 326.477057 -448.291178 
L 326.000297 -448.291178 
L 326.000297 -454.585031 
L 324.570017 -454.585031 
L 324.570017 -454.585031 
L 321.709456 -454.585031 
L 321.709456 -460.672121 
L 321.232696 -460.672121 
L 321.232696 -460.672121 
L 320.755936 -460.672121 
L 320.755936 -466.480683 
L 320.279176 -466.480683 
L 320.279176 -466.480683 
L 318.848896 -466.480683 
L 318.848896 -472.099825 
L 318.372136 -472.099825 
L 318.372136 -472.099825 
L 317.895376 -472.099825 
L 317.895376 -472.099825 
L 317.418615 -472.099825 
L 317.418615 -472.099825 
L 315.034815 -472.099825 
L 315.034815 -472.099825 
L 314.558055 -472.099825 
L 314.558055 -472.099825 
L 314.081295 -472.099825 
L 314.081295 -472.099825 
L 313.604535 -472.099825 
L 313.604535 -472.099825 
L 309.313694 -472.099825 
L 309.313694 -477.112477 
L 308.836934 -477.112477 
L 308.836934 -477.112477 
L 307.406654 -477.112477 
L 307.406654 -477.112477 
L 304.069333 -477.112477 
L 304.069333 -477.112477 
L 303.592573 -477.112477 
L 303.592573 -477.112477 
L 301.208773 -477.112477 
L 301.208773 -477.112477 
L 297.394692 -477.112477 
L 297.394692 -481.786787 
L 296.441172 -481.786787 
L 296.441172 -481.786787 
L 292.150331 -481.786787 
L 292.150331 -486.3474 
L 291.673571 -486.3474 
L 291.673571 -486.3474 
L 290.243291 -486.3474 
L 290.243291 -486.3474 
L 284.04541 -486.3474 
L 284.04541 -486.3474 
L 280.708089 -486.3474 
L 280.708089 -490.667493 
L 279.277809 -490.667493 
L 279.277809 -490.667493 
L 278.801049 -490.667493 
L 278.801049 -494.809071 
L 275.463728 -494.809071 
L 275.463728 -494.809071 
L 274.510208 -494.809071 
L 274.510208 -494.809071 
L 273.079928 -494.809071 
L 273.079928 -494.809071 
L 271.172887 -494.809071 
L 271.172887 -494.809071 
L 270.219367 -494.809071 
L 270.219367 -494.809071 
L 269.742607 -494.809071 
L 269.742607 -494.809071 
L 269.265847 -494.809071 
L 269.265847 -498.649899 
L 268.789087 -498.649899 
L 268.789087 -498.649899 
L 268.312327 -498.649899 
L 268.312327 -502.411439 
L 265.928527 -502.411439 
L 265.928527 -502.411439 
L 264.021486 -502.411439 
L 264.021486 -502.411439 
L 262.591206 -502.411439 
L 262.591206 -506.03478 
L 261.637686 -506.03478 
L 261.637686 -506.03478 
L 254.963045 -506.03478 
L 254.963045 -509.501337 
L 253.056004 -509.501337 
L 253.056004 -512.871587 
L 251.625724 -512.871587 
L 251.625724 -512.871587 
L 249.718684 -512.871587 
L 249.718684 -516.14752 
L 248.765164 -516.14752 
L 248.765164 -516.14752 
L 248.288404 -516.14752 
L 248.288404 -516.14752 
L 246.858123 -516.14752 
L 246.858123 -519.28745 
L 241.613762 -519.28745 
L 241.613762 -522.379836 
L 235.892641 -522.379836 
L 235.892641 -522.379836 
L 234.462361 -522.379836 
L 234.462361 -525.380748 
L 232.078561 -525.380748 
L 232.078561 -525.380748 
L 231.601801 -525.380748 
L 231.601801 -525.380748 
L 230.17152 -525.380748 
L 230.17152 -525.380748 
L 229.69476 -525.380748 
L 229.69476 -525.380748 
L 229.218 -525.380748 
L 229.218 -525.380748 
L 227.78772 -525.380748 
L 227.78772 -528.219406 
L 223.973639 -528.219406 
L 223.973639 -531.004921 
L 223.496879 -531.004921 
L 223.496879 -531.004921 
L 222.543359 -531.004921 
L 222.543359 -533.714863 
L 221.589839 -533.714863 
L 221.589839 -533.714863 
L 221.113079 -533.714863 
L 221.113079 -536.343328 
L 219.206039 -536.343328 
L 219.206039 -536.343328 
L 218.729278 -536.343328 
L 218.729278 -536.343328 
L 214.915198 -536.343328 
L 214.915198 -536.343328 
L 213.961678 -536.343328 
L 213.961678 -538.856029 
L 213.008157 -538.856029 
L 213.008157 -538.856029 
L 208.717317 -538.856029 
L 208.717317 -538.856029 
L 208.240557 -538.856029 
L 208.240557 -538.856029 
L 207.287036 -538.856029 
L 207.287036 -541.225793 
L 206.810276 -541.225793 
L 206.810276 -541.225793 
L 205.379996 -541.225793 
L 205.379996 -541.225793 
L 204.426476 -541.225793 
L 204.426476 -541.225793 
L 201.565915 -541.225793 
L 201.565915 -541.225793 
L 200.612395 -541.225793 
L 200.612395 -541.225793 
L 197.275075 -541.225793 
L 197.275075 -541.225793 
L 196.798315 -541.225793 
L 196.798315 -541.225793 
L 196.321555 -541.225793 
L 196.321555 -541.225793 
L 195.368034 -541.225793 
L 195.368034 -545.416792 
L 193.460994 -545.416792 
L 193.460994 -547.353373 
L 192.030714 -547.353373 
L 192.030714 -547.353373 
L 191.077194 -547.353373 
L 191.077194 -547.353373 
L 190.123674 -547.353373 
L 190.123674 -547.353373 
L 187.739873 -547.353373 
L 187.739873 -549.130005 
L 187.263113 -549.130005 
L 187.263113 -549.130005 
L 186.786353 -549.130005 
L 186.786353 -549.130005 
L 186.309593 -549.130005 
L 186.309593 -549.130005 
L 185.356073 -549.130005 
L 185.356073 -549.130005 
L 180.111712 -549.130005 
L 180.111712 -550.72872 
L 176.297631 -550.72872 
L 176.297631 -550.72872 
L 173.437071 -550.72872 
L 173.437071 -550.72872 
L 172.00679 -550.72872 
L 172.00679 -550.72872 
L 171.05327 -550.72872 
L 171.05327 -550.72872 
L 170.57651 -550.72872 
L 170.57651 -550.72872 
L 163.901869 -550.72872 
L 163.901869 -552.091443 
L 161.041309 -552.091443 
L 161.041309 -553.136573 
L 152.459627 -553.136573 
L 152.459627 -553.545227 
L 140.540625 -553.545227 
z
" id="m5f3329695f" style="stroke:#ff0000;stroke-opacity:0.25;"/>
    </defs>
    <g clip-path="url(#p8a2e72f4f9)">
     <use style="fill:#ff0000;fill-opacity:0.25;stroke:#ff0000;stroke-opacity:0.25;" x="0" xlink:href="#m5f3329695f" y="603.1775"/>
    </g>
   </g>
   <g id="PolyCollection_2">
    <defs>
     <path d="M 140.540625 -553.545227 
L 140.540625 -553.545227 
L 176.297631 -553.545227 
L 176.297631 -553.545227 
L 177.251151 -553.545227 
L 177.251151 -553.545227 
L 180.588472 -553.545227 
L 180.588472 -553.545227 
L 182.495512 -553.545227 
L 182.495512 -553.545227 
L 183.925792 -553.545227 
L 183.925792 -553.545227 
L 185.832833 -553.545227 
L 185.832833 -553.545227 
L 186.309593 -553.545227 
L 186.309593 -553.545227 
L 188.693393 -553.545227 
L 188.693393 -553.545227 
L 189.170153 -553.545227 
L 189.170153 -553.545227 
L 189.646913 -553.545227 
L 189.646913 -553.545227 
L 192.030714 -553.545227 
L 192.030714 -553.545227 
L 192.507474 -553.545227 
L 192.507474 -553.545227 
L 192.984234 -553.545227 
L 192.984234 -553.545227 
L 195.368034 -553.545227 
L 195.368034 -553.545227 
L 195.844795 -553.545227 
L 195.844795 -553.545227 
L 197.751835 -553.545227 
L 197.751835 -553.545227 
L 198.705355 -553.545227 
L 198.705355 -553.545227 
L 199.182115 -553.545227 
L 199.182115 -553.545227 
L 199.658875 -553.545227 
L 199.658875 -553.545227 
L 200.612395 -553.545227 
L 200.612395 -553.545227 
L 201.565915 -553.545227 
L 201.565915 -553.545227 
L 202.996196 -553.545227 
L 202.996196 -553.545227 
L 203.472956 -553.545227 
L 203.472956 -553.545227 
L 204.426476 -553.545227 
L 204.426476 -553.545227 
L 205.379996 -553.545227 
L 205.379996 -553.545227 
L 206.810276 -553.545227 
L 206.810276 -553.545227 
L 208.240557 -553.545227 
L 208.240557 -553.545227 
L 211.101117 -553.545227 
L 211.101117 -553.545227 
L 211.577877 -553.545227 
L 211.577877 -553.545227 
L 213.008157 -553.545227 
L 213.008157 -553.545227 
L 213.961678 -553.545227 
L 213.961678 -553.545227 
L 218.729278 -553.545227 
L 218.729278 -553.545227 
L 219.682799 -553.545227 
L 219.682799 -553.545227 
L 220.636319 -553.545227 
L 220.636319 -553.545227 
L 222.066599 -553.545227 
L 222.066599 -553.545227 
L 223.496879 -553.545227 
L 223.496879 -553.545227 
L 224.450399 -553.545227 
L 224.450399 -553.545227 
L 229.218 -553.545227 
L 229.218 -553.545227 
L 230.648281 -553.545227 
L 230.648281 -553.545227 
L 232.078561 -553.545227 
L 232.078561 -553.545227 
L 233.508841 -553.545227 
L 233.508841 -553.545227 
L 233.985601 -553.545227 
L 233.985601 -553.545227 
L 234.462361 -553.545227 
L 234.462361 -553.545227 
L 235.415881 -553.545227 
L 235.415881 -553.545227 
L 235.892641 -553.545227 
L 235.892641 -553.545227 
L 239.706722 -553.545227 
L 239.706722 -553.545227 
L 241.137002 -553.545227 
L 241.137002 -553.545227 
L 243.997563 -553.545227 
L 243.997563 -553.545227 
L 245.427843 -553.545227 
L 245.427843 -553.545227 
L 245.904603 -553.545227 
L 245.904603 -553.545227 
L 247.811643 -553.545227 
L 247.811643 -553.545227 
L 248.765164 -553.545227 
L 248.765164 -553.545227 
L 256.393325 -553.545227 
L 256.393325 -553.545227 
L 258.777125 -553.545227 
L 258.777125 -553.545227 
L 259.253885 -553.545227 
L 259.253885 -553.545227 
L 260.207406 -553.545227 
L 260.207406 -553.545227 
L 265.451766 -553.545227 
L 265.451766 -553.545227 
L 269.265847 -553.545227 
L 269.265847 -553.545227 
L 270.696127 -553.545227 
L 270.696127 -553.545227 
L 274.510208 -553.545227 
L 274.510208 -553.545227 
L 278.324289 -553.545227 
L 278.324289 -553.545227 
L 280.231329 -553.545227 
L 280.231329 -553.545227 
L 282.615129 -553.545227 
L 282.615129 -553.545227 
L 284.04541 -553.545227 
L 284.04541 -553.545227 
L 286.90597 -553.545227 
L 286.90597 -553.545227 
L 288.813011 -553.545227 
L 288.813011 -553.545227 
L 289.289771 -553.545227 
L 289.289771 -553.545227 
L 289.766531 -553.545227 
L 289.766531 -553.545227 
L 295.010892 -553.545227 
L 295.010892 -553.545227 
L 296.441172 -553.545227 
L 296.441172 -553.545227 
L 299.301732 -553.545227 
L 299.301732 -553.545227 
L 299.778492 -553.545227 
L 299.778492 -553.545227 
L 300.732013 -553.545227 
L 300.732013 -553.545227 
L 302.639053 -553.545227 
L 302.639053 -553.545227 
L 303.592573 -553.545227 
L 303.592573 -553.545227 
L 305.499613 -553.545227 
L 305.499613 -553.545227 
L 306.453134 -553.545227 
L 306.453134 -553.545227 
L 307.406654 -553.545227 
L 307.406654 -553.545227 
L 307.883414 -553.545227 
L 307.883414 -553.545227 
L 309.790454 -553.545227 
L 309.790454 -553.545227 
L 310.743974 -553.545227 
L 310.743974 -553.545227 
L 313.127775 -553.545227 
L 313.127775 -553.545227 
L 314.081295 -553.545227 
L 314.081295 -553.545227 
L 315.511575 -553.545227 
L 315.511575 -553.545227 
L 321.232696 -553.545227 
L 321.232696 -553.545227 
L 327.907337 -553.545227 
L 327.907337 -553.545227 
L 329.337617 -553.545227 
L 329.337617 -553.545227 
L 329.814378 -553.545227 
L 329.814378 -553.545227 
L 330.291138 -553.545227 
L 330.291138 -553.545227 
L 330.767898 -553.545227 
L 330.767898 -553.545227 
L 331.721418 -553.545227 
L 331.721418 -553.545227 
L 333.151698 -553.545227 
L 333.151698 -553.545227 
L 338.872819 -553.545227 
L 338.872819 -553.545227 
L 340.303099 -553.545227 
L 340.303099 -553.545227 
L 341.25662 -553.545227 
L 341.25662 -553.545227 
L 342.21014 -553.545227 
L 342.21014 -553.545227 
L 343.16366 -553.545227 
L 343.16366 -553.545227 
L 343.64042 -553.545227 
L 343.64042 -553.545227 
L 344.11718 -553.545227 
L 344.11718 -553.545227 
L 348.408021 -553.545227 
L 348.408021 -553.545227 
L 350.315061 -553.545227 
L 350.315061 -553.545227 
L 350.791821 -553.545227 
L 350.791821 -553.545227 
L 354.129142 -553.545227 
L 354.129142 -553.545227 
L 356.512942 -553.545227 
L 356.512942 -553.545227 
L 360.327023 -553.545227 
L 360.327023 -553.545227 
L 361.280543 -553.545227 
L 361.280543 -553.545227 
L 364.617864 -553.545227 
L 364.617864 -553.545227 
L 367.955184 -553.545227 
L 367.955184 -553.545227 
L 370.338985 -553.545227 
L 370.338985 -553.545227 
L 375.106585 -553.545227 
L 375.106585 -553.545227 
L 382.734747 -553.545227 
L 382.734747 -553.545227 
L 383.211507 -553.545227 
L 383.211507 -553.545227 
L 385.118547 -553.545227 
L 385.118547 -553.545227 
L 387.979108 -553.545227 
L 387.979108 -553.545227 
L 388.932628 -553.545227 
L 388.932628 -553.545227 
L 391.316428 -553.545227 
L 391.316428 -553.545227 
L 392.269948 -553.545227 
L 392.269948 -553.545227 
L 392.746708 -553.545227 
L 392.746708 -553.545227 
L 394.176989 -553.545227 
L 394.176989 -553.545227 
L 398.944589 -553.545227 
L 398.944589 -553.545227 
L 401.32839 -553.545227 
L 401.32839 -553.545227 
L 403.71219 -553.545227 
L 403.71219 -553.545227 
L 405.142471 -553.545227 
L 405.142471 -553.545227 
L 405.619231 -553.545227 
L 405.619231 -553.545227 
L 409.910071 -553.545227 
L 409.910071 -553.545227 
L 411.340352 -553.545227 
L 411.340352 -553.545227 
L 411.817112 -553.545227 
L 411.817112 -553.545227 
L 413.247392 -553.545227 
L 413.247392 -553.545227 
L 413.724152 -553.545227 
L 413.724152 -553.545227 
L 414.200912 -553.545227 
L 414.200912 -553.545227 
L 415.631192 -553.545227 
L 415.631192 -553.545227 
L 417.538233 -553.545227 
L 417.538233 -553.545227 
L 418.014993 -553.545227 
L 418.014993 -553.545227 
L 418.491753 -553.545227 
L 418.491753 -553.545227 
L 419.922033 -553.545227 
L 419.922033 -553.545227 
L 423.736114 -553.545227 
L 423.736114 -553.545227 
L 427.073434 -553.545227 
L 427.073434 -553.545227 
L 430.410755 -553.545227 
L 430.410755 -553.545227 
L 431.841035 -553.545227 
L 431.841035 -553.545227 
L 433.748075 -553.545227 
L 433.748075 -553.545227 
L 435.178356 -553.545227 
L 435.178356 -553.545227 
L 440.899477 -553.545227 
L 440.899477 -553.545227 
L 453.771999 -553.545227 
L 453.771999 -553.545227 
L 463.783961 -553.545227 
L 463.783961 -553.545227 
L 477.133243 -553.545227 
L 477.133243 -553.545227 
L 487.621965 -553.545227 
L 487.621965 -553.545227 
L 556.752177 -553.545227 
L 556.752177 -553.545227 
L 556.752177 -553.545227 
L 556.752177 -553.545227 
L 556.752177 -553.545227 
L 487.621965 -553.545227 
L 487.621965 -553.545227 
L 477.133243 -553.545227 
L 477.133243 -553.545227 
L 463.783961 -553.545227 
L 463.783961 -553.545227 
L 453.771999 -553.545227 
L 453.771999 -553.545227 
L 440.899477 -553.545227 
L 440.899477 -553.545227 
L 435.178356 -553.545227 
L 435.178356 -553.545227 
L 433.748075 -553.545227 
L 433.748075 -553.545227 
L 431.841035 -553.545227 
L 431.841035 -553.545227 
L 430.410755 -553.545227 
L 430.410755 -553.545227 
L 427.073434 -553.545227 
L 427.073434 -553.545227 
L 423.736114 -553.545227 
L 423.736114 -553.545227 
L 419.922033 -553.545227 
L 419.922033 -553.545227 
L 418.491753 -553.545227 
L 418.491753 -553.545227 
L 418.014993 -553.545227 
L 418.014993 -553.545227 
L 417.538233 -553.545227 
L 417.538233 -553.545227 
L 415.631192 -553.545227 
L 415.631192 -553.545227 
L 414.200912 -553.545227 
L 414.200912 -553.545227 
L 413.724152 -553.545227 
L 413.724152 -553.545227 
L 413.247392 -553.545227 
L 413.247392 -553.545227 
L 411.817112 -553.545227 
L 411.817112 -553.545227 
L 411.340352 -553.545227 
L 411.340352 -553.545227 
L 409.910071 -553.545227 
L 409.910071 -553.545227 
L 405.619231 -553.545227 
L 405.619231 -553.545227 
L 405.142471 -553.545227 
L 405.142471 -553.545227 
L 403.71219 -553.545227 
L 403.71219 -553.545227 
L 401.32839 -553.545227 
L 401.32839 -553.545227 
L 398.944589 -553.545227 
L 398.944589 -553.545227 
L 394.176989 -553.545227 
L 394.176989 -553.545227 
L 392.746708 -553.545227 
L 392.746708 -553.545227 
L 392.269948 -553.545227 
L 392.269948 -553.545227 
L 391.316428 -553.545227 
L 391.316428 -553.545227 
L 388.932628 -553.545227 
L 388.932628 -553.545227 
L 387.979108 -553.545227 
L 387.979108 -553.545227 
L 385.118547 -553.545227 
L 385.118547 -553.545227 
L 383.211507 -553.545227 
L 383.211507 -553.545227 
L 382.734747 -553.545227 
L 382.734747 -553.545227 
L 375.106585 -553.545227 
L 375.106585 -553.545227 
L 370.338985 -553.545227 
L 370.338985 -553.545227 
L 367.955184 -553.545227 
L 367.955184 -553.545227 
L 364.617864 -553.545227 
L 364.617864 -553.545227 
L 361.280543 -553.545227 
L 361.280543 -553.545227 
L 360.327023 -553.545227 
L 360.327023 -553.545227 
L 356.512942 -553.545227 
L 356.512942 -553.545227 
L 354.129142 -553.545227 
L 354.129142 -553.545227 
L 350.791821 -553.545227 
L 350.791821 -553.545227 
L 350.315061 -553.545227 
L 350.315061 -553.545227 
L 348.408021 -553.545227 
L 348.408021 -553.545227 
L 344.11718 -553.545227 
L 344.11718 -553.545227 
L 343.64042 -553.545227 
L 343.64042 -553.545227 
L 343.16366 -553.545227 
L 343.16366 -553.545227 
L 342.21014 -553.545227 
L 342.21014 -553.545227 
L 341.25662 -553.545227 
L 341.25662 -553.545227 
L 340.303099 -553.545227 
L 340.303099 -553.545227 
L 338.872819 -553.545227 
L 338.872819 -553.545227 
L 333.151698 -553.545227 
L 333.151698 -553.545227 
L 331.721418 -553.545227 
L 331.721418 -553.545227 
L 330.767898 -553.545227 
L 330.767898 -553.545227 
L 330.291138 -553.545227 
L 330.291138 -553.545227 
L 329.814378 -553.545227 
L 329.814378 -553.545227 
L 329.337617 -553.545227 
L 329.337617 -553.545227 
L 327.907337 -553.545227 
L 327.907337 -553.545227 
L 321.232696 -553.545227 
L 321.232696 -553.545227 
L 315.511575 -553.545227 
L 315.511575 -553.545227 
L 314.081295 -553.545227 
L 314.081295 -553.545227 
L 313.127775 -553.545227 
L 313.127775 -553.545227 
L 310.743974 -553.545227 
L 310.743974 -553.545227 
L 309.790454 -553.545227 
L 309.790454 -553.545227 
L 307.883414 -553.545227 
L 307.883414 -553.545227 
L 307.406654 -553.545227 
L 307.406654 -553.545227 
L 306.453134 -553.545227 
L 306.453134 -553.545227 
L 305.499613 -553.545227 
L 305.499613 -553.545227 
L 303.592573 -553.545227 
L 303.592573 -553.545227 
L 302.639053 -553.545227 
L 302.639053 -553.545227 
L 300.732013 -553.545227 
L 300.732013 -553.545227 
L 299.778492 -553.545227 
L 299.778492 -553.545227 
L 299.301732 -553.545227 
L 299.301732 -553.545227 
L 296.441172 -553.545227 
L 296.441172 -553.545227 
L 295.010892 -553.545227 
L 295.010892 -553.545227 
L 289.766531 -553.545227 
L 289.766531 -553.545227 
L 289.289771 -553.545227 
L 289.289771 -553.545227 
L 288.813011 -553.545227 
L 288.813011 -553.545227 
L 286.90597 -553.545227 
L 286.90597 -553.545227 
L 284.04541 -553.545227 
L 284.04541 -553.545227 
L 282.615129 -553.545227 
L 282.615129 -553.545227 
L 280.231329 -553.545227 
L 280.231329 -553.545227 
L 278.324289 -553.545227 
L 278.324289 -553.545227 
L 274.510208 -553.545227 
L 274.510208 -553.545227 
L 270.696127 -553.545227 
L 270.696127 -553.545227 
L 269.265847 -553.545227 
L 269.265847 -553.545227 
L 265.451766 -553.545227 
L 265.451766 -553.545227 
L 260.207406 -553.545227 
L 260.207406 -553.545227 
L 259.253885 -553.545227 
L 259.253885 -553.545227 
L 258.777125 -553.545227 
L 258.777125 -553.545227 
L 256.393325 -553.545227 
L 256.393325 -553.545227 
L 248.765164 -553.545227 
L 248.765164 -553.545227 
L 247.811643 -553.545227 
L 247.811643 -553.545227 
L 245.904603 -553.545227 
L 245.904603 -553.545227 
L 245.427843 -553.545227 
L 245.427843 -553.545227 
L 243.997563 -553.545227 
L 243.997563 -553.545227 
L 241.137002 -553.545227 
L 241.137002 -553.545227 
L 239.706722 -553.545227 
L 239.706722 -553.545227 
L 235.892641 -553.545227 
L 235.892641 -553.545227 
L 235.415881 -553.545227 
L 235.415881 -553.545227 
L 234.462361 -553.545227 
L 234.462361 -553.545227 
L 233.985601 -553.545227 
L 233.985601 -553.545227 
L 233.508841 -553.545227 
L 233.508841 -553.545227 
L 232.078561 -553.545227 
L 232.078561 -553.545227 
L 230.648281 -553.545227 
L 230.648281 -553.545227 
L 229.218 -553.545227 
L 229.218 -553.545227 
L 224.450399 -553.545227 
L 224.450399 -553.545227 
L 223.496879 -553.545227 
L 223.496879 -553.545227 
L 222.066599 -553.545227 
L 222.066599 -553.545227 
L 220.636319 -553.545227 
L 220.636319 -553.545227 
L 219.682799 -553.545227 
L 219.682799 -553.545227 
L 218.729278 -553.545227 
L 218.729278 -553.545227 
L 213.961678 -553.545227 
L 213.961678 -553.545227 
L 213.008157 -553.545227 
L 213.008157 -553.545227 
L 211.577877 -553.545227 
L 211.577877 -553.545227 
L 211.101117 -553.545227 
L 211.101117 -553.545227 
L 208.240557 -553.545227 
L 208.240557 -553.545227 
L 206.810276 -553.545227 
L 206.810276 -553.545227 
L 205.379996 -553.545227 
L 205.379996 -553.545227 
L 204.426476 -553.545227 
L 204.426476 -553.545227 
L 203.472956 -553.545227 
L 203.472956 -553.545227 
L 202.996196 -553.545227 
L 202.996196 -553.545227 
L 201.565915 -553.545227 
L 201.565915 -553.545227 
L 200.612395 -553.545227 
L 200.612395 -553.545227 
L 199.658875 -553.545227 
L 199.658875 -553.545227 
L 199.182115 -553.545227 
L 199.182115 -553.545227 
L 198.705355 -553.545227 
L 198.705355 -553.545227 
L 197.751835 -553.545227 
L 197.751835 -553.545227 
L 195.844795 -553.545227 
L 195.844795 -553.545227 
L 195.368034 -553.545227 
L 195.368034 -553.545227 
L 192.984234 -553.545227 
L 192.984234 -553.545227 
L 192.507474 -553.545227 
L 192.507474 -553.545227 
L 192.030714 -553.545227 
L 192.030714 -553.545227 
L 189.646913 -553.545227 
L 189.646913 -553.545227 
L 189.170153 -553.545227 
L 189.170153 -553.545227 
L 188.693393 -553.545227 
L 188.693393 -553.545227 
L 186.309593 -553.545227 
L 186.309593 -553.545227 
L 185.832833 -553.545227 
L 185.832833 -553.545227 
L 183.925792 -553.545227 
L 183.925792 -553.545227 
L 182.495512 -553.545227 
L 182.495512 -553.545227 
L 180.588472 -553.545227 
L 180.588472 -553.545227 
L 177.251151 -553.545227 
L 177.251151 -553.545227 
L 176.297631 -553.545227 
L 176.297631 -553.545227 
L 140.540625 -553.545227 
z
" id="m994fc0c6a0" style="stroke:#008000;stroke-opacity:0.25;"/>
    </defs>
    <g clip-path="url(#p8a2e72f4f9)">
     <use style="fill:#008000;fill-opacity:0.25;stroke:#008000;stroke-opacity:0.25;" x="0" xlink:href="#m994fc0c6a0" y="603.1775"/>
    </g>
   </g>
   <g id="matplotlib.axis_1">
    <g id="xtick_1">
     <g id="line2d_1">
      <defs>
       <path d="M 0 0 
L 0 3.5 
" id="ma567832b2a" style="stroke:#000000;stroke-width:0.8;"/>
      </defs>
      <g>
       <use style="stroke:#000000;stroke-width:0.8;" x="140.540625" xlink:href="#ma567832b2a" y="464.745"/>
      </g>
     </g>
     <g id="text_1">
      <!-- 0 -->
      <defs>
       <path d="M 3.609375 32.71875 
Q 3.609375 44.046875 7.03125 52.21875 
Q 10.453125 60.40625 16.109375 64.40625 
Q 20.515625 67.578125 25.203125 67.578125 
Q 32.8125 67.578125 38.875 59.8125 
Q 46.4375 50.203125 46.4375 33.734375 
Q 46.4375 22.21875 43.109375 14.15625 
Q 39.796875 6.109375 34.640625 2.46875 
Q 29.5 -1.171875 24.703125 -1.171875 
Q 15.234375 -1.171875 8.9375 10.015625 
Q 3.609375 19.4375 3.609375 32.71875 
z
M 13.1875 31.5 
Q 13.1875 17.828125 16.546875 9.1875 
Q 19.34375 1.90625 24.859375 1.90625 
Q 27.484375 1.90625 30.3125 4.265625 
Q 33.15625 6.640625 34.625 12.203125 
Q 36.859375 20.609375 36.859375 35.890625 
Q 36.859375 47.21875 34.515625 54.78125 
Q 32.765625 60.40625 29.984375 62.75 
Q 27.984375 64.359375 25.140625 64.359375 
Q 21.828125 64.359375 19.234375 61.375 
Q 15.71875 57.328125 14.453125 48.625 
Q 13.1875 39.9375 13.1875 31.5 
z
" id="TimesNewRomanPSMT-48"/>
      </defs>
      <g transform="translate(135.540625 485.6325)scale(0.2 -0.2)">
       <use xlink:href="#TimesNewRomanPSMT-48"/>
      </g>
     </g>
    </g>
    <g id="xtick_2">
     <g id="line2d_2">
      <g>
       <use style="stroke:#000000;stroke-width:0.8;" x="235.892641" xlink:href="#ma567832b2a" y="464.745"/>
      </g>
     </g>
     <g id="text_2">
      <!-- 20 -->
      <defs>
       <path d="M 45.84375 12.75 
L 41.21875 0 
L 2.15625 0 
L 2.15625 1.8125 
Q 19.390625 17.53125 26.421875 27.484375 
Q 33.453125 37.453125 33.453125 45.703125 
Q 33.453125 52 29.59375 56.046875 
Q 25.734375 60.109375 20.359375 60.109375 
Q 15.484375 60.109375 11.59375 57.25 
Q 7.71875 54.390625 5.859375 48.875 
L 4.046875 48.875 
Q 5.28125 57.90625 10.328125 62.734375 
Q 15.375 67.578125 22.953125 67.578125 
Q 31 67.578125 36.390625 62.40625 
Q 41.796875 57.234375 41.796875 50.203125 
Q 41.796875 45.171875 39.453125 40.140625 
Q 35.84375 32.234375 27.734375 23.390625 
Q 15.578125 10.109375 12.546875 7.375 
L 29.828125 7.375 
Q 35.109375 7.375 37.234375 7.765625 
Q 39.359375 8.15625 41.0625 9.34375 
Q 42.78125 10.546875 44.046875 12.75 
z
" id="TimesNewRomanPSMT-50"/>
      </defs>
      <g transform="translate(225.892641 485.6325)scale(0.2 -0.2)">
       <use xlink:href="#TimesNewRomanPSMT-50"/>
       <use x="50" xlink:href="#TimesNewRomanPSMT-48"/>
      </g>
     </g>
    </g>
    <g id="xtick_3">
     <g id="line2d_3">
      <g>
       <use style="stroke:#000000;stroke-width:0.8;" x="331.244658" xlink:href="#ma567832b2a" y="464.745"/>
      </g>
     </g>
     <g id="text_3">
      <!-- 40 -->
      <defs>
       <path d="M 46.53125 24.421875 
L 46.53125 17.484375 
L 37.640625 17.484375 
L 37.640625 0 
L 29.59375 0 
L 29.59375 17.484375 
L 1.5625 17.484375 
L 1.5625 23.734375 
L 32.28125 67.578125 
L 37.640625 67.578125 
L 37.640625 24.421875 
z
M 29.59375 24.421875 
L 29.59375 57.28125 
L 6.34375 24.421875 
z
" id="TimesNewRomanPSMT-52"/>
      </defs>
      <g transform="translate(321.244658 485.6325)scale(0.2 -0.2)">
       <use xlink:href="#TimesNewRomanPSMT-52"/>
       <use x="50" xlink:href="#TimesNewRomanPSMT-48"/>
      </g>
     </g>
    </g>
    <g id="xtick_4">
     <g id="line2d_4">
      <g>
       <use style="stroke:#000000;stroke-width:0.8;" x="426.596674" xlink:href="#ma567832b2a" y="464.745"/>
      </g>
     </g>
     <g id="text_4">
      <!-- 60 -->
      <defs>
       <path d="M 44.828125 67.578125 
L 44.828125 65.765625 
Q 38.375 65.140625 34.296875 63.203125 
Q 30.21875 61.28125 26.234375 57.328125 
Q 22.265625 53.375 19.65625 48.515625 
Q 17.046875 43.65625 15.28125 36.96875 
Q 22.3125 41.796875 29.390625 41.796875 
Q 36.1875 41.796875 41.15625 36.328125 
Q 46.140625 30.859375 46.140625 22.265625 
Q 46.140625 13.96875 41.109375 7.125 
Q 35.0625 -1.171875 25.09375 -1.171875 
Q 18.3125 -1.171875 13.578125 3.328125 
Q 4.296875 12.0625 4.296875 25.984375 
Q 4.296875 34.859375 7.859375 42.859375 
Q 11.421875 50.875 18.03125 57.078125 
Q 24.65625 63.28125 30.703125 65.421875 
Q 36.765625 67.578125 42 67.578125 
z
M 14.453125 33.40625 
Q 13.578125 26.8125 13.578125 22.75 
Q 13.578125 18.0625 15.3125 12.5625 
Q 17.046875 7.078125 20.453125 3.859375 
Q 22.953125 1.5625 26.515625 1.5625 
Q 30.765625 1.5625 34.109375 5.5625 
Q 37.453125 9.578125 37.453125 17 
Q 37.453125 25.34375 34.125 31.4375 
Q 30.8125 37.546875 24.703125 37.546875 
Q 22.859375 37.546875 20.734375 36.765625 
Q 18.609375 35.984375 14.453125 33.40625 
z
" id="TimesNewRomanPSMT-54"/>
      </defs>
      <g transform="translate(416.596674 485.6325)scale(0.2 -0.2)">
       <use xlink:href="#TimesNewRomanPSMT-54"/>
       <use x="50" xlink:href="#TimesNewRomanPSMT-48"/>
      </g>
     </g>
    </g>
    <g id="xtick_5">
     <g id="line2d_5">
      <g>
       <use style="stroke:#000000;stroke-width:0.8;" x="521.948691" xlink:href="#ma567832b2a" y="464.745"/>
      </g>
     </g>
     <g id="text_5">
      <!-- 80 -->
      <defs>
       <path d="M 19.1875 33.34375 
Q 11.328125 39.796875 9.046875 43.703125 
Q 6.78125 47.609375 6.78125 51.8125 
Q 6.78125 58.25 11.765625 62.90625 
Q 16.75 67.578125 25 67.578125 
Q 33.015625 67.578125 37.890625 63.234375 
Q 42.78125 58.890625 42.78125 53.328125 
Q 42.78125 49.609375 40.140625 45.75 
Q 37.5 41.890625 29.15625 36.671875 
Q 37.75 30.03125 40.53125 26.21875 
Q 44.234375 21.234375 44.234375 15.71875 
Q 44.234375 8.734375 38.90625 3.78125 
Q 33.59375 -1.171875 24.953125 -1.171875 
Q 15.53125 -1.171875 10.25 4.734375 
Q 6.0625 9.46875 6.0625 15.09375 
Q 6.0625 19.484375 9.015625 23.796875 
Q 11.96875 28.125 19.1875 33.34375 
z
M 26.859375 38.578125 
Q 32.71875 43.84375 34.28125 46.890625 
Q 35.84375 49.953125 35.84375 53.8125 
Q 35.84375 58.9375 32.953125 61.84375 
Q 30.078125 64.75 25.09375 64.75 
Q 20.125 64.75 17 61.859375 
Q 13.875 58.984375 13.875 55.125 
Q 13.875 52.59375 15.15625 50.046875 
Q 16.453125 47.515625 18.84375 45.21875 
z
M 21.484375 31.5 
Q 17.4375 28.078125 15.484375 24.046875 
Q 13.53125 20.015625 13.53125 15.328125 
Q 13.53125 9.03125 16.96875 5.25 
Q 20.40625 1.46875 25.734375 1.46875 
Q 31 1.46875 34.171875 4.4375 
Q 37.359375 7.421875 37.359375 11.671875 
Q 37.359375 15.1875 35.5 17.96875 
Q 32.03125 23.140625 21.484375 31.5 
z
" id="TimesNewRomanPSMT-56"/>
      </defs>
      <g transform="translate(511.948691 485.6325)scale(0.2 -0.2)">
       <use xlink:href="#TimesNewRomanPSMT-56"/>
       <use x="50" xlink:href="#TimesNewRomanPSMT-48"/>
      </g>
     </g>
    </g>
    <g id="xtick_6">
     <g id="line2d_6">
      <g>
       <use style="stroke:#000000;stroke-width:0.8;" x="617.300707" xlink:href="#ma567832b2a" y="464.745"/>
      </g>
     </g>
     <g id="text_6">
      <!-- 100 -->
      <defs>
       <path d="M 11.71875 59.71875 
L 27.828125 67.578125 
L 29.4375 67.578125 
L 29.4375 11.671875 
Q 29.4375 6.109375 29.90625 4.734375 
Q 30.375 3.375 31.828125 2.640625 
Q 33.296875 1.90625 37.796875 1.8125 
L 37.796875 0 
L 12.890625 0 
L 12.890625 1.8125 
Q 17.578125 1.90625 18.9375 2.609375 
Q 20.3125 3.328125 20.84375 4.515625 
Q 21.390625 5.71875 21.390625 11.671875 
L 21.390625 47.40625 
Q 21.390625 54.640625 20.90625 56.6875 
Q 20.5625 58.25 19.65625 58.984375 
Q 18.75 59.71875 17.484375 59.71875 
Q 15.671875 59.71875 12.453125 58.203125 
z
" id="TimesNewRomanPSMT-49"/>
      </defs>
      <g transform="translate(602.300707 485.6325)scale(0.2 -0.2)">
       <use xlink:href="#TimesNewRomanPSMT-49"/>
       <use x="50" xlink:href="#TimesNewRomanPSMT-48"/>
       <use x="100" xlink:href="#TimesNewRomanPSMT-48"/>
      </g>
     </g>
    </g>
    <g id="text_7">
     <!-- Time(months) -->
     <defs>
      <path d="M 57.859375 66.21875 
L 58.59375 50.6875 
L 56.734375 50.6875 
Q 56.203125 54.78125 55.28125 56.546875 
Q 53.765625 59.375 51.25 60.71875 
Q 48.734375 62.0625 44.625 62.0625 
L 35.296875 62.0625 
L 35.296875 11.46875 
Q 35.296875 5.375 36.625 3.859375 
Q 38.484375 1.8125 42.328125 1.8125 
L 44.625 1.8125 
L 44.625 0 
L 16.546875 0 
L 16.546875 1.8125 
L 18.890625 1.8125 
Q 23.09375 1.8125 24.859375 4.34375 
Q 25.921875 5.90625 25.921875 11.46875 
L 25.921875 62.0625 
L 17.96875 62.0625 
Q 13.328125 62.0625 11.375 61.375 
Q 8.84375 60.453125 7.03125 57.8125 
Q 5.21875 55.171875 4.890625 50.6875 
L 3.03125 50.6875 
L 3.8125 66.21875 
z
" id="TimesNewRomanPSMT-84"/>
      <path d="M 14.5 69.4375 
Q 16.546875 69.4375 17.984375 67.984375 
Q 19.4375 66.546875 19.4375 64.5 
Q 19.4375 62.453125 17.984375 60.984375 
Q 16.546875 59.515625 14.5 59.515625 
Q 12.453125 59.515625 10.984375 60.984375 
Q 9.515625 62.453125 9.515625 64.5 
Q 9.515625 66.546875 10.953125 67.984375 
Q 12.40625 69.4375 14.5 69.4375 
z
M 18.5625 46.046875 
L 18.5625 10.109375 
Q 18.5625 5.90625 19.171875 4.515625 
Q 19.78125 3.125 20.96875 2.4375 
Q 22.171875 1.765625 25.34375 1.765625 
L 25.34375 0 
L 3.609375 0 
L 3.609375 1.765625 
Q 6.890625 1.765625 8 2.390625 
Q 9.125 3.03125 9.78125 4.484375 
Q 10.453125 5.953125 10.453125 10.109375 
L 10.453125 27.34375 
Q 10.453125 34.625 10.015625 36.765625 
Q 9.671875 38.328125 8.9375 38.9375 
Q 8.203125 39.546875 6.9375 39.546875 
Q 5.5625 39.546875 3.609375 38.8125 
L 2.9375 40.578125 
L 16.40625 46.046875 
z
" id="TimesNewRomanPSMT-105"/>
      <path d="M 16.40625 36.53125 
Q 21.296875 41.40625 22.171875 42.140625 
Q 24.359375 44 26.890625 45.015625 
Q 29.4375 46.046875 31.9375 46.046875 
Q 36.140625 46.046875 39.15625 43.59375 
Q 42.1875 41.15625 43.21875 36.53125 
Q 48.25 42.390625 51.703125 44.21875 
Q 55.171875 46.046875 58.84375 46.046875 
Q 62.40625 46.046875 65.15625 44.21875 
Q 67.921875 42.390625 69.53125 38.234375 
Q 70.609375 35.40625 70.609375 29.34375 
L 70.609375 10.109375 
Q 70.609375 5.90625 71.234375 4.34375 
Q 71.734375 3.265625 73.046875 2.515625 
Q 74.359375 1.765625 77.34375 1.765625 
L 77.34375 0 
L 55.28125 0 
L 55.28125 1.765625 
L 56.203125 1.765625 
Q 59.078125 1.765625 60.6875 2.875 
Q 61.8125 3.65625 62.3125 5.375 
Q 62.5 6.203125 62.5 10.109375 
L 62.5 29.34375 
Q 62.5 34.8125 61.1875 37.0625 
Q 59.28125 40.1875 55.078125 40.1875 
Q 52.484375 40.1875 49.875 38.890625 
Q 47.265625 37.59375 43.5625 34.078125 
L 43.453125 33.546875 
L 43.5625 31.453125 
L 43.5625 10.109375 
Q 43.5625 5.515625 44.0625 4.390625 
Q 44.578125 3.265625 45.984375 2.515625 
Q 47.40625 1.765625 50.828125 1.765625 
L 50.828125 0 
L 28.21875 0 
L 28.21875 1.765625 
Q 31.9375 1.765625 33.328125 2.640625 
Q 34.71875 3.515625 35.25 5.28125 
Q 35.5 6.109375 35.5 10.109375 
L 35.5 29.34375 
Q 35.5 34.8125 33.890625 37.203125 
Q 31.734375 40.328125 27.875 40.328125 
Q 25.25 40.328125 22.65625 38.921875 
Q 18.609375 36.765625 16.40625 34.078125 
L 16.40625 10.109375 
Q 16.40625 5.71875 17.015625 4.390625 
Q 17.625 3.078125 18.8125 2.421875 
Q 20.015625 1.765625 23.6875 1.765625 
L 23.6875 0 
L 1.5625 0 
L 1.5625 1.765625 
Q 4.640625 1.765625 5.859375 2.421875 
Q 7.078125 3.078125 7.703125 4.515625 
Q 8.34375 5.953125 8.34375 10.109375 
L 8.34375 27.203125 
Q 8.34375 34.578125 7.90625 36.71875 
Q 7.5625 38.328125 6.828125 38.9375 
Q 6.109375 39.546875 4.828125 39.546875 
Q 3.46875 39.546875 1.5625 38.8125 
L 0.828125 40.578125 
L 14.3125 46.046875 
L 16.40625 46.046875 
z
" id="TimesNewRomanPSMT-109"/>
      <path d="M 10.640625 27.875 
Q 10.59375 17.921875 15.484375 12.25 
Q 20.359375 6.59375 26.953125 6.59375 
Q 31.34375 6.59375 34.59375 9 
Q 37.84375 11.421875 40.046875 17.28125 
L 41.546875 16.3125 
Q 40.53125 9.625 35.59375 4.125 
Q 30.671875 -1.375 23.25 -1.375 
Q 15.1875 -1.375 9.453125 4.90625 
Q 3.71875 11.1875 3.71875 21.78125 
Q 3.71875 33.25 9.59375 39.671875 
Q 15.484375 46.09375 24.359375 46.09375 
Q 31.890625 46.09375 36.71875 41.140625 
Q 41.546875 36.1875 41.546875 27.875 
z
M 10.640625 30.71875 
L 31.34375 30.71875 
Q 31.109375 35.015625 30.328125 36.765625 
Q 29.109375 39.5 26.6875 41.0625 
Q 24.265625 42.625 21.625 42.625 
Q 17.578125 42.625 14.375 39.46875 
Q 11.1875 36.328125 10.640625 30.71875 
z
" id="TimesNewRomanPSMT-101"/>
      <path d="M 31.0625 -19.578125 
L 31.0625 -21.390625 
Q 23.6875 -17.671875 18.75 -12.703125 
Q 11.71875 -5.609375 7.90625 4 
Q 4.109375 13.625 4.109375 23.96875 
Q 4.109375 39.109375 11.578125 51.578125 
Q 19.046875 64.0625 31.0625 69.4375 
L 31.0625 67.390625 
Q 25.046875 64.0625 21.1875 58.296875 
Q 17.328125 52.546875 15.421875 43.703125 
Q 13.53125 34.859375 13.53125 25.25 
Q 13.53125 14.796875 15.140625 6.25 
Q 16.40625 -0.484375 18.203125 -4.5625 
Q 20.015625 -8.640625 23.0625 -12.390625 
Q 26.125 -16.15625 31.0625 -19.578125 
z
" id="TimesNewRomanPSMT-40"/>
      <path d="M 25 46.046875 
Q 35.15625 46.046875 41.3125 38.328125 
Q 46.53125 31.734375 46.53125 23.1875 
Q 46.53125 17.1875 43.640625 11.03125 
Q 40.765625 4.890625 35.71875 1.75 
Q 30.671875 -1.375 24.46875 -1.375 
Q 14.359375 -1.375 8.40625 6.6875 
Q 3.375 13.484375 3.375 21.921875 
Q 3.375 28.078125 6.421875 34.15625 
Q 9.46875 40.234375 14.453125 43.140625 
Q 19.4375 46.046875 25 46.046875 
z
M 23.484375 42.875 
Q 20.90625 42.875 18.28125 41.328125 
Q 15.671875 39.796875 14.0625 35.9375 
Q 12.453125 32.078125 12.453125 26.03125 
Q 12.453125 16.265625 16.328125 9.171875 
Q 20.21875 2.09375 26.5625 2.09375 
Q 31.296875 2.09375 34.375 6 
Q 37.453125 9.90625 37.453125 19.4375 
Q 37.453125 31.34375 32.328125 38.1875 
Q 28.859375 42.875 23.484375 42.875 
z
" id="TimesNewRomanPSMT-111"/>
      <path d="M 16.15625 36.578125 
Q 24.03125 46.046875 31.15625 46.046875 
Q 34.8125 46.046875 37.453125 44.21875 
Q 40.09375 42.390625 41.65625 38.1875 
Q 42.71875 35.25 42.71875 29.203125 
L 42.71875 10.109375 
Q 42.71875 5.859375 43.40625 4.34375 
Q 43.953125 3.125 45.140625 2.4375 
Q 46.34375 1.765625 49.5625 1.765625 
L 49.5625 0 
L 27.4375 0 
L 27.4375 1.765625 
L 28.375 1.765625 
Q 31.5 1.765625 32.734375 2.703125 
Q 33.984375 3.65625 34.46875 5.515625 
Q 34.671875 6.25 34.671875 10.109375 
L 34.671875 28.421875 
Q 34.671875 34.515625 33.078125 37.28125 
Q 31.5 40.046875 27.734375 40.046875 
Q 21.921875 40.046875 16.15625 33.6875 
L 16.15625 10.109375 
Q 16.15625 5.5625 16.703125 4.5 
Q 17.390625 3.078125 18.578125 2.421875 
Q 19.78125 1.765625 23.4375 1.765625 
L 23.4375 0 
L 1.3125 0 
L 1.3125 1.765625 
L 2.296875 1.765625 
Q 5.71875 1.765625 6.90625 3.484375 
Q 8.109375 5.21875 8.109375 10.109375 
L 8.109375 26.703125 
Q 8.109375 34.765625 7.734375 36.515625 
Q 7.375 38.28125 6.609375 38.90625 
Q 5.859375 39.546875 4.59375 39.546875 
Q 3.21875 39.546875 1.3125 38.8125 
L 0.59375 40.578125 
L 14.0625 46.046875 
L 16.15625 46.046875 
z
" id="TimesNewRomanPSMT-110"/>
      <path d="M 16.109375 59.421875 
L 16.109375 44.734375 
L 26.5625 44.734375 
L 26.5625 41.3125 
L 16.109375 41.3125 
L 16.109375 12.3125 
Q 16.109375 7.953125 17.359375 6.4375 
Q 18.609375 4.9375 20.5625 4.9375 
Q 22.171875 4.9375 23.6875 5.9375 
Q 25.203125 6.9375 26.03125 8.890625 
L 27.9375 8.890625 
Q 26.21875 4.109375 23.09375 1.6875 
Q 19.96875 -0.734375 16.65625 -0.734375 
Q 14.40625 -0.734375 12.25 0.515625 
Q 10.109375 1.765625 9.078125 4.078125 
Q 8.0625 6.390625 8.0625 11.234375 
L 8.0625 41.3125 
L 0.984375 41.3125 
L 0.984375 42.921875 
Q 3.65625 44 6.46875 46.5625 
Q 9.28125 49.125 11.46875 52.640625 
Q 12.59375 54.5 14.59375 59.421875 
z
" id="TimesNewRomanPSMT-116"/>
      <path d="M 16.265625 69.4375 
L 16.265625 36.71875 
Q 21.6875 42.671875 24.859375 44.359375 
Q 28.03125 46.046875 31.203125 46.046875 
Q 35.015625 46.046875 37.75 43.9375 
Q 40.484375 41.84375 41.796875 37.359375 
Q 42.71875 34.234375 42.71875 25.921875 
L 42.71875 10.109375 
Q 42.71875 5.859375 43.40625 4.296875 
Q 43.890625 3.125 45.0625 2.4375 
Q 46.234375 1.765625 49.359375 1.765625 
L 49.359375 0 
L 27.390625 0 
L 27.390625 1.765625 
L 28.421875 1.765625 
Q 31.546875 1.765625 32.765625 2.703125 
Q 33.984375 3.65625 34.46875 5.515625 
Q 34.625 6.296875 34.625 10.109375 
L 34.625 25.921875 
Q 34.625 33.25 33.859375 35.546875 
Q 33.109375 37.84375 31.4375 38.984375 
Q 29.78125 40.140625 27.4375 40.140625 
Q 25.046875 40.140625 22.453125 38.859375 
Q 19.875 37.59375 16.265625 33.734375 
L 16.265625 10.109375 
Q 16.265625 5.515625 16.765625 4.390625 
Q 17.28125 3.265625 18.671875 2.515625 
Q 20.0625 1.765625 23.484375 1.765625 
L 23.484375 0 
L 1.3125 0 
L 1.3125 1.765625 
Q 4.296875 1.765625 6 2.6875 
Q 6.984375 3.171875 7.5625 4.53125 
Q 8.15625 5.90625 8.15625 10.109375 
L 8.15625 50.59375 
Q 8.15625 58.25 7.78125 60 
Q 7.421875 61.765625 6.65625 62.390625 
Q 5.90625 63.03125 4.640625 63.03125 
Q 3.609375 63.03125 1.3125 62.25 
L 0.640625 63.96875 
L 14.015625 69.4375 
z
" id="TimesNewRomanPSMT-104"/>
      <path d="M 32.03125 46.046875 
L 32.03125 30.8125 
L 30.421875 30.8125 
Q 28.5625 37.984375 25.65625 40.578125 
Q 22.75 43.171875 18.265625 43.171875 
Q 14.84375 43.171875 12.734375 41.359375 
Q 10.640625 39.546875 10.640625 37.359375 
Q 10.640625 34.625 12.203125 32.671875 
Q 13.71875 30.671875 18.359375 28.421875 
L 25.484375 24.953125 
Q 35.40625 20.125 35.40625 12.203125 
Q 35.40625 6.109375 30.78125 2.359375 
Q 26.171875 -1.375 20.453125 -1.375 
Q 16.359375 -1.375 11.078125 0.09375 
Q 9.46875 0.59375 8.453125 0.59375 
Q 7.328125 0.59375 6.6875 -0.6875 
L 5.078125 -0.6875 
L 5.078125 15.28125 
L 6.6875 15.28125 
Q 8.0625 8.453125 11.90625 4.984375 
Q 15.765625 1.515625 20.5625 1.515625 
Q 23.921875 1.515625 26.046875 3.484375 
Q 28.171875 5.46875 28.171875 8.25 
Q 28.171875 11.625 25.796875 13.921875 
Q 23.4375 16.21875 16.359375 19.734375 
Q 9.28125 23.25 7.078125 26.078125 
Q 4.890625 28.859375 4.890625 33.109375 
Q 4.890625 38.625 8.671875 42.328125 
Q 12.453125 46.046875 18.453125 46.046875 
Q 21.09375 46.046875 24.859375 44.921875 
Q 27.34375 44.1875 28.171875 44.1875 
Q 28.953125 44.1875 29.390625 44.53125 
Q 29.828125 44.875 30.421875 46.046875 
z
" id="TimesNewRomanPSMT-115"/>
      <path d="M 2.25 67.390625 
L 2.25 69.4375 
Q 9.671875 65.765625 14.59375 60.796875 
Q 21.578125 53.65625 25.390625 44.0625 
Q 29.203125 34.46875 29.203125 24.078125 
Q 29.203125 8.9375 21.75 -3.53125 
Q 14.3125 -16.015625 2.25 -21.390625 
L 2.25 -19.578125 
Q 8.25 -16.21875 12.125 -10.46875 
Q 16.015625 -4.734375 17.890625 4.125 
Q 19.78125 12.984375 19.78125 22.609375 
Q 19.78125 33.015625 18.171875 41.609375 
Q 16.9375 48.34375 15.109375 52.390625 
Q 13.28125 56.453125 10.25 60.203125 
Q 7.234375 63.96875 2.25 67.390625 
z
" id="TimesNewRomanPSMT-41"/>
     </defs>
     <g transform="translate(337.316051 507.798125)scale(0.2 -0.2)">
      <use xlink:href="#TimesNewRomanPSMT-84"/>
      <use x="57.583984" xlink:href="#TimesNewRomanPSMT-105"/>
      <use x="85.367188" xlink:href="#TimesNewRomanPSMT-109"/>
      <use x="163.150391" xlink:href="#TimesNewRomanPSMT-101"/>
      <use x="207.535156" xlink:href="#TimesNewRomanPSMT-40"/>
      <use x="240.835938" xlink:href="#TimesNewRomanPSMT-109"/>
      <use x="318.619141" xlink:href="#TimesNewRomanPSMT-111"/>
      <use x="368.619141" xlink:href="#TimesNewRomanPSMT-110"/>
      <use x="418.619141" xlink:href="#TimesNewRomanPSMT-116"/>
      <use x="446.402344" xlink:href="#TimesNewRomanPSMT-104"/>
      <use x="496.402344" xlink:href="#TimesNewRomanPSMT-115"/>
      <use x="535.318359" xlink:href="#TimesNewRomanPSMT-41"/>
     </g>
    </g>
   </g>
   <g id="matplotlib.axis_2">
    <g id="ytick_1">
     <g id="line2d_7">
      <defs>
       <path d="M 0 0 
L -3.5 0 
" id="m8a6f566c1f" style="stroke:#000000;stroke-width:0.8;"/>
      </defs>
      <g>
       <use style="stroke:#000000;stroke-width:0.8;" x="115.176989" xlink:href="#m8a6f566c1f" y="452.46319"/>
      </g>
     </g>
     <g id="text_8">
      <!-- 0.2 -->
      <defs>
       <path d="M 12.5 9.46875 
Q 14.796875 9.46875 16.359375 7.875 
Q 17.921875 6.296875 17.921875 4.046875 
Q 17.921875 1.8125 16.328125 0.21875 
Q 14.75 -1.375 12.5 -1.375 
Q 10.25 -1.375 8.65625 0.21875 
Q 7.078125 1.8125 7.078125 4.046875 
Q 7.078125 6.34375 8.65625 7.90625 
Q 10.25 9.46875 12.5 9.46875 
z
" id="TimesNewRomanPSMT-46"/>
      </defs>
      <g transform="translate(83.176989 459.40694)scale(0.2 -0.2)">
       <use xlink:href="#TimesNewRomanPSMT-48"/>
       <use x="50" xlink:href="#TimesNewRomanPSMT-46"/>
       <use x="75" xlink:href="#TimesNewRomanPSMT-50"/>
      </g>
     </g>
    </g>
    <g id="ytick_2">
     <g id="line2d_8">
      <g>
       <use style="stroke:#000000;stroke-width:0.8;" x="115.176989" xlink:href="#m8a6f566c1f" y="402.109325"/>
      </g>
     </g>
     <g id="text_9">
      <!-- 0.3 -->
      <defs>
       <path d="M 5.078125 53.609375 
Q 7.90625 60.296875 12.21875 63.9375 
Q 16.546875 67.578125 23 67.578125 
Q 30.953125 67.578125 35.203125 62.40625 
Q 38.421875 58.546875 38.421875 54.15625 
Q 38.421875 46.921875 29.34375 39.203125 
Q 35.453125 36.8125 38.578125 32.375 
Q 41.703125 27.9375 41.703125 21.921875 
Q 41.703125 13.328125 36.234375 7.03125 
Q 29.109375 -1.171875 15.578125 -1.171875 
Q 8.890625 -1.171875 6.46875 0.484375 
Q 4.046875 2.15625 4.046875 4.046875 
Q 4.046875 5.46875 5.1875 6.546875 
Q 6.34375 7.625 7.953125 7.625 
Q 9.1875 7.625 10.453125 7.234375 
Q 11.28125 6.984375 14.203125 5.4375 
Q 17.140625 3.90625 18.265625 3.609375 
Q 20.0625 3.078125 22.125 3.078125 
Q 27.09375 3.078125 30.78125 6.9375 
Q 34.46875 10.796875 34.46875 16.0625 
Q 34.46875 19.921875 32.765625 23.578125 
Q 31.5 26.3125 29.984375 27.734375 
Q 27.875 29.6875 24.21875 31.265625 
Q 20.5625 32.859375 16.75 32.859375 
L 15.1875 32.859375 
L 15.1875 34.328125 
Q 19.046875 34.8125 22.921875 37.109375 
Q 26.8125 39.40625 28.5625 42.625 
Q 30.328125 45.84375 30.328125 49.703125 
Q 30.328125 54.734375 27.171875 57.828125 
Q 24.03125 60.9375 19.34375 60.9375 
Q 11.765625 60.9375 6.6875 52.828125 
z
" id="TimesNewRomanPSMT-51"/>
      </defs>
      <g transform="translate(83.176989 409.053075)scale(0.2 -0.2)">
       <use xlink:href="#TimesNewRomanPSMT-48"/>
       <use x="50" xlink:href="#TimesNewRomanPSMT-46"/>
       <use x="75" xlink:href="#TimesNewRomanPSMT-51"/>
      </g>
     </g>
    </g>
    <g id="ytick_3">
     <g id="line2d_9">
      <g>
       <use style="stroke:#000000;stroke-width:0.8;" x="115.176989" xlink:href="#m8a6f566c1f" y="351.755461"/>
      </g>
     </g>
     <g id="text_10">
      <!-- 0.4 -->
      <g transform="translate(83.176989 358.699211)scale(0.2 -0.2)">
       <use xlink:href="#TimesNewRomanPSMT-48"/>
       <use x="50" xlink:href="#TimesNewRomanPSMT-46"/>
       <use x="75" xlink:href="#TimesNewRomanPSMT-52"/>
      </g>
     </g>
    </g>
    <g id="ytick_4">
     <g id="line2d_10">
      <g>
       <use style="stroke:#000000;stroke-width:0.8;" x="115.176989" xlink:href="#m8a6f566c1f" y="301.401596"/>
      </g>
     </g>
     <g id="text_11">
      <!-- 0.5 -->
      <defs>
       <path d="M 43.40625 66.21875 
L 39.59375 57.90625 
L 19.671875 57.90625 
L 15.328125 49.03125 
Q 28.265625 47.125 35.84375 39.40625 
Q 42.328125 32.765625 42.328125 23.78125 
Q 42.328125 18.5625 40.203125 14.109375 
Q 38.09375 9.671875 34.859375 6.546875 
Q 31.640625 3.421875 27.6875 1.515625 
Q 22.078125 -1.171875 16.15625 -1.171875 
Q 10.203125 -1.171875 7.484375 0.84375 
Q 4.78125 2.875 4.78125 5.328125 
Q 4.78125 6.6875 5.90625 7.734375 
Q 7.03125 8.796875 8.734375 8.796875 
Q 10.015625 8.796875 10.96875 8.40625 
Q 11.921875 8.015625 14.203125 6.390625 
Q 17.875 3.859375 21.625 3.859375 
Q 27.34375 3.859375 31.65625 8.171875 
Q 35.984375 12.5 35.984375 18.703125 
Q 35.984375 24.703125 32.125 29.90625 
Q 28.265625 35.109375 21.484375 37.9375 
Q 16.15625 40.140625 6.984375 40.484375 
L 19.671875 66.21875 
z
" id="TimesNewRomanPSMT-53"/>
      </defs>
      <g transform="translate(83.176989 308.345346)scale(0.2 -0.2)">
       <use xlink:href="#TimesNewRomanPSMT-48"/>
       <use x="50" xlink:href="#TimesNewRomanPSMT-46"/>
       <use x="75" xlink:href="#TimesNewRomanPSMT-53"/>
      </g>
     </g>
    </g>
    <g id="ytick_5">
     <g id="line2d_11">
      <g>
       <use style="stroke:#000000;stroke-width:0.8;" x="115.176989" xlink:href="#m8a6f566c1f" y="251.047731"/>
      </g>
     </g>
     <g id="text_12">
      <!-- 0.6 -->
      <g transform="translate(83.176989 257.991481)scale(0.2 -0.2)">
       <use xlink:href="#TimesNewRomanPSMT-48"/>
       <use x="50" xlink:href="#TimesNewRomanPSMT-46"/>
       <use x="75" xlink:href="#TimesNewRomanPSMT-54"/>
      </g>
     </g>
    </g>
    <g id="ytick_6">
     <g id="line2d_12">
      <g>
       <use style="stroke:#000000;stroke-width:0.8;" x="115.176989" xlink:href="#m8a6f566c1f" y="200.693867"/>
      </g>
     </g>
     <g id="text_13">
      <!-- 0.7 -->
      <defs>
       <path d="M 10.0625 66.21875 
L 45.5625 66.21875 
L 45.5625 64.359375 
L 23.484375 -1.375 
L 18.015625 -1.375 
L 37.796875 58.25 
L 19.578125 58.25 
Q 14.0625 58.25 11.71875 56.9375 
Q 7.625 54.6875 5.125 50 
L 3.71875 50.53125 
z
" id="TimesNewRomanPSMT-55"/>
      </defs>
      <g transform="translate(83.176989 207.637617)scale(0.2 -0.2)">
       <use xlink:href="#TimesNewRomanPSMT-48"/>
       <use x="50" xlink:href="#TimesNewRomanPSMT-46"/>
       <use x="75" xlink:href="#TimesNewRomanPSMT-55"/>
      </g>
     </g>
    </g>
    <g id="ytick_7">
     <g id="line2d_13">
      <g>
       <use style="stroke:#000000;stroke-width:0.8;" x="115.176989" xlink:href="#m8a6f566c1f" y="150.340002"/>
      </g>
     </g>
     <g id="text_14">
      <!-- 0.8 -->
      <g transform="translate(83.176989 157.283752)scale(0.2 -0.2)">
       <use xlink:href="#TimesNewRomanPSMT-48"/>
       <use x="50" xlink:href="#TimesNewRomanPSMT-46"/>
       <use x="75" xlink:href="#TimesNewRomanPSMT-56"/>
      </g>
     </g>
    </g>
    <g id="ytick_8">
     <g id="line2d_14">
      <g>
       <use style="stroke:#000000;stroke-width:0.8;" x="115.176989" xlink:href="#m8a6f566c1f" y="99.986137"/>
      </g>
     </g>
     <g id="text_15">
      <!-- 0.9 -->
      <defs>
       <path d="M 5.28125 -1.375 
L 5.28125 0.4375 
Q 11.625 0.53125 17.09375 3.390625 
Q 22.5625 6.25 27.65625 13.375 
Q 32.765625 20.515625 34.765625 29.046875 
Q 27.09375 24.125 20.90625 24.125 
Q 13.921875 24.125 8.9375 29.515625 
Q 3.953125 34.90625 3.953125 43.84375 
Q 3.953125 52.546875 8.9375 59.328125 
Q 14.9375 67.578125 24.609375 67.578125 
Q 32.765625 67.578125 38.578125 60.84375 
Q 45.703125 52.484375 45.703125 40.234375 
Q 45.703125 29.203125 40.28125 19.65625 
Q 34.859375 10.109375 25.203125 3.8125 
Q 17.328125 -1.375 8.0625 -1.375 
z
M 35.546875 32.671875 
Q 36.421875 39.015625 36.421875 42.828125 
Q 36.421875 47.5625 34.8125 53.046875 
Q 33.203125 58.546875 30.25 61.46875 
Q 27.296875 64.40625 23.53125 64.40625 
Q 19.1875 64.40625 15.90625 60.5 
Q 12.640625 56.59375 12.640625 48.875 
Q 12.640625 38.578125 17 32.765625 
Q 20.171875 28.5625 24.8125 28.5625 
Q 27.046875 28.5625 30.125 29.640625 
Q 33.203125 30.71875 35.546875 32.671875 
z
" id="TimesNewRomanPSMT-57"/>
      </defs>
      <g transform="translate(83.176989 106.929887)scale(0.2 -0.2)">
       <use xlink:href="#TimesNewRomanPSMT-48"/>
       <use x="50" xlink:href="#TimesNewRomanPSMT-46"/>
       <use x="75" xlink:href="#TimesNewRomanPSMT-57"/>
      </g>
     </g>
    </g>
    <g id="ytick_9">
     <g id="line2d_15">
      <g>
       <use style="stroke:#000000;stroke-width:0.8;" x="115.176989" xlink:href="#m8a6f566c1f" y="49.632273"/>
      </g>
     </g>
     <g id="text_16">
      <!-- 1.0 -->
      <g transform="translate(83.176989 56.576023)scale(0.2 -0.2)">
       <use xlink:href="#TimesNewRomanPSMT-49"/>
       <use x="50" xlink:href="#TimesNewRomanPSMT-46"/>
       <use x="75" xlink:href="#TimesNewRomanPSMT-48"/>
      </g>
     </g>
    </g>
    <g id="text_17">
     <!-- Probability -->
     <defs>
      <path d="M 20.515625 31 
L 20.515625 11.71875 
Q 20.515625 5.46875 21.875 3.953125 
Q 23.734375 1.8125 27.484375 1.8125 
L 30.03125 1.8125 
L 30.03125 0 
L 1.65625 0 
L 1.65625 1.8125 
L 4.15625 1.8125 
Q 8.34375 1.8125 10.15625 4.546875 
Q 11.140625 6.0625 11.140625 11.71875 
L 11.140625 54.5 
Q 11.140625 60.75 9.8125 62.25 
Q 7.90625 64.40625 4.15625 64.40625 
L 1.65625 64.40625 
L 1.65625 66.21875 
L 25.921875 66.21875 
Q 34.8125 66.21875 39.9375 64.375 
Q 45.0625 62.546875 48.578125 58.203125 
Q 52.09375 53.859375 52.09375 47.90625 
Q 52.09375 39.796875 46.75 34.71875 
Q 41.40625 29.640625 31.640625 29.640625 
Q 29.25 29.640625 26.46875 29.984375 
Q 23.6875 30.328125 20.515625 31 
z
M 20.515625 33.796875 
Q 23.09375 33.296875 25.09375 33.046875 
Q 27.09375 32.8125 28.515625 32.8125 
Q 33.59375 32.8125 37.28125 36.734375 
Q 40.96875 40.671875 40.96875 46.921875 
Q 40.96875 51.21875 39.203125 54.90625 
Q 37.453125 58.59375 34.21875 60.421875 
Q 31 62.25 26.90625 62.25 
Q 24.421875 62.25 20.515625 61.328125 
z
" id="TimesNewRomanPSMT-80"/>
      <path d="M 16.21875 46.046875 
L 16.21875 35.984375 
Q 21.828125 46.046875 27.734375 46.046875 
Q 30.421875 46.046875 32.171875 44.40625 
Q 33.9375 42.78125 33.9375 40.625 
Q 33.9375 38.71875 32.65625 37.390625 
Q 31.390625 36.078125 29.640625 36.078125 
Q 27.9375 36.078125 25.8125 37.765625 
Q 23.6875 39.453125 22.65625 39.453125 
Q 21.78125 39.453125 20.75 38.484375 
Q 18.5625 36.46875 16.21875 31.890625 
L 16.21875 10.453125 
Q 16.21875 6.734375 17.140625 4.828125 
Q 17.78125 3.515625 19.390625 2.640625 
Q 21 1.765625 24.03125 1.765625 
L 24.03125 0 
L 1.125 0 
L 1.125 1.765625 
Q 4.546875 1.765625 6.203125 2.828125 
Q 7.421875 3.609375 7.90625 5.328125 
Q 8.15625 6.15625 8.15625 10.0625 
L 8.15625 27.390625 
Q 8.15625 35.203125 7.828125 36.6875 
Q 7.515625 38.1875 6.65625 38.859375 
Q 5.8125 39.546875 4.546875 39.546875 
Q 3.03125 39.546875 1.125 38.8125 
L 0.640625 40.578125 
L 14.15625 46.046875 
z
" id="TimesNewRomanPSMT-114"/>
      <path d="M 15.375 37.015625 
Q 21.875 46.046875 29.390625 46.046875 
Q 36.28125 46.046875 41.40625 40.15625 
Q 46.53125 34.28125 46.53125 24.078125 
Q 46.53125 12.15625 38.625 4.890625 
Q 31.84375 -1.375 23.484375 -1.375 
Q 19.578125 -1.375 15.546875 0.046875 
Q 11.53125 1.46875 7.328125 4.296875 
L 7.328125 50.640625 
Q 7.328125 58.25 6.953125 60 
Q 6.59375 61.765625 5.8125 62.390625 
Q 5.03125 63.03125 3.859375 63.03125 
Q 2.484375 63.03125 0.4375 62.25 
L -0.25 63.96875 
L 13.1875 69.4375 
L 15.375 69.4375 
z
M 15.375 33.890625 
L 15.375 7.125 
Q 17.875 4.6875 20.53125 3.4375 
Q 23.1875 2.203125 25.984375 2.203125 
Q 30.421875 2.203125 34.25 7.078125 
Q 38.09375 11.96875 38.09375 21.296875 
Q 38.09375 29.890625 34.25 34.5 
Q 30.421875 39.109375 25.53125 39.109375 
Q 22.953125 39.109375 20.359375 37.796875 
Q 18.40625 36.8125 15.375 33.890625 
z
" id="TimesNewRomanPSMT-98"/>
      <path d="M 28.46875 6.453125 
Q 21.578125 1.125 19.828125 0.296875 
Q 17.1875 -0.921875 14.203125 -0.921875 
Q 9.578125 -0.921875 6.5625 2.25 
Q 3.5625 5.421875 3.5625 10.59375 
Q 3.5625 13.875 5.03125 16.265625 
Q 7.03125 19.578125 11.984375 22.5 
Q 16.9375 25.4375 28.46875 29.640625 
L 28.46875 31.390625 
Q 28.46875 38.09375 26.34375 40.578125 
Q 24.21875 43.0625 20.171875 43.0625 
Q 17.09375 43.0625 15.28125 41.40625 
Q 13.421875 39.75 13.421875 37.59375 
L 13.53125 34.765625 
Q 13.53125 32.515625 12.375 31.296875 
Q 11.234375 30.078125 9.375 30.078125 
Q 7.5625 30.078125 6.421875 31.34375 
Q 5.28125 32.625 5.28125 34.8125 
Q 5.28125 39.015625 9.578125 42.53125 
Q 13.875 46.046875 21.625 46.046875 
Q 27.59375 46.046875 31.390625 44.046875 
Q 34.28125 42.53125 35.640625 39.3125 
Q 36.53125 37.203125 36.53125 30.71875 
L 36.53125 15.53125 
Q 36.53125 9.125 36.765625 7.6875 
Q 37.015625 6.25 37.578125 5.765625 
Q 38.140625 5.28125 38.875 5.28125 
Q 39.65625 5.28125 40.234375 5.609375 
Q 41.265625 6.25 44.1875 9.1875 
L 44.1875 6.453125 
Q 38.71875 -0.875 33.734375 -0.875 
Q 31.34375 -0.875 29.921875 0.78125 
Q 28.515625 2.4375 28.46875 6.453125 
z
M 28.46875 9.625 
L 28.46875 26.65625 
Q 21.09375 23.734375 18.953125 22.515625 
Q 15.09375 20.359375 13.421875 18.015625 
Q 11.765625 15.671875 11.765625 12.890625 
Q 11.765625 9.375 13.859375 7.046875 
Q 15.96875 4.734375 18.703125 4.734375 
Q 22.40625 4.734375 28.46875 9.625 
z
" id="TimesNewRomanPSMT-97"/>
      <path d="M 18.5 69.4375 
L 18.5 10.109375 
Q 18.5 5.90625 19.109375 4.53125 
Q 19.734375 3.171875 21 2.46875 
Q 22.265625 1.765625 25.734375 1.765625 
L 25.734375 0 
L 3.8125 0 
L 3.8125 1.765625 
Q 6.890625 1.765625 8 2.390625 
Q 9.125 3.03125 9.765625 4.484375 
Q 10.40625 5.953125 10.40625 10.109375 
L 10.40625 50.734375 
Q 10.40625 58.296875 10.0625 60.03125 
Q 9.71875 61.765625 8.953125 62.390625 
Q 8.203125 63.03125 7.03125 63.03125 
Q 5.765625 63.03125 3.8125 62.25 
L 2.984375 63.96875 
L 16.3125 69.4375 
z
" id="TimesNewRomanPSMT-108"/>
      <path d="M 0.59375 44.734375 
L 21.4375 44.734375 
L 21.4375 42.921875 
L 20.40625 42.921875 
Q 18.21875 42.921875 17.109375 41.96875 
Q 16.015625 41.015625 16.015625 39.59375 
Q 16.015625 37.703125 17.625 34.328125 
L 28.515625 11.765625 
L 38.53125 36.46875 
Q 39.359375 38.484375 39.359375 40.4375 
Q 39.359375 41.3125 39.015625 41.75 
Q 38.625 42.28125 37.796875 42.59375 
Q 36.96875 42.921875 34.859375 42.921875 
L 34.859375 44.734375 
L 49.421875 44.734375 
L 49.421875 42.921875 
Q 47.609375 42.71875 46.625 42.125 
Q 45.65625 41.546875 44.484375 39.9375 
Q 44.046875 39.265625 42.828125 36.1875 
L 24.609375 -8.453125 
Q 21.96875 -14.9375 17.6875 -18.25 
Q 13.421875 -21.578125 9.46875 -21.578125 
Q 6.59375 -21.578125 4.734375 -19.921875 
Q 2.875 -18.265625 2.875 -16.109375 
Q 2.875 -14.0625 4.21875 -12.8125 
Q 5.5625 -11.578125 7.90625 -11.578125 
Q 9.515625 -11.578125 12.3125 -12.640625 
Q 14.265625 -13.375 14.75 -13.375 
Q 16.21875 -13.375 17.9375 -11.859375 
Q 19.671875 -10.359375 21.4375 -6 
L 24.609375 1.765625 
L 8.546875 35.5 
Q 7.8125 37.015625 6.203125 39.265625 
Q 4.984375 40.96875 4.203125 41.546875 
Q 3.078125 42.328125 0.59375 42.921875 
z
" id="TimesNewRomanPSMT-121"/>
     </defs>
     <g transform="translate(74.861364 291.747187)rotate(-90)scale(0.2 -0.2)">
      <use xlink:href="#TimesNewRomanPSMT-80"/>
      <use x="55.615234" xlink:href="#TimesNewRomanPSMT-114"/>
      <use x="88.916016" xlink:href="#TimesNewRomanPSMT-111"/>
      <use x="138.916016" xlink:href="#TimesNewRomanPSMT-98"/>
      <use x="188.916016" xlink:href="#TimesNewRomanPSMT-97"/>
      <use x="233.300781" xlink:href="#TimesNewRomanPSMT-98"/>
      <use x="283.300781" xlink:href="#TimesNewRomanPSMT-105"/>
      <use x="311.083984" xlink:href="#TimesNewRomanPSMT-108"/>
      <use x="338.867188" xlink:href="#TimesNewRomanPSMT-105"/>
      <use x="366.650391" xlink:href="#TimesNewRomanPSMT-116"/>
      <use x="394.433594" xlink:href="#TimesNewRomanPSMT-121"/>
     </g>
    </g>
   </g>
   <g id="line2d_16">
    <path clip-path="url(#p8a2e72f4f9)" d="M 140.540625 49.632273 
L 152.459627 49.632273 
L 152.459627 52.526173 
L 161.041309 52.526173 
L 161.041309 55.420073 
L 163.901869 55.420073 
L 163.901869 58.313974 
L 180.111712 58.313974 
L 180.111712 61.313107 
L 187.739873 61.313107 
L 187.739873 64.387218 
L 193.460994 64.387218 
L 193.460994 67.561138 
L 195.368034 67.561138 
L 195.368034 73.993056 
L 207.287036 73.993056 
L 207.287036 77.542521 
L 213.961678 77.542521 
L 213.961678 81.229563 
L 221.113079 81.229563 
L 221.113079 85.005094 
L 222.543359 85.005094 
L 222.543359 88.81132 
L 223.973639 88.81132 
L 223.973639 92.649003 
L 227.78772 92.649003 
L 227.78772 96.486685 
L 234.462361 96.486685 
L 234.462361 100.528139 
L 241.613762 100.528139 
L 241.613762 104.643073 
L 246.858123 104.643073 
L 246.858123 108.758008 
L 249.718684 108.758008 
L 249.718684 113.031209 
L 253.056004 113.031209 
L 253.056004 117.389028 
L 254.963045 117.389028 
L 254.963045 121.835782 
L 262.591206 121.835782 
L 262.591206 126.473794 
L 268.312327 126.473794 
L 268.312327 131.268144 
L 269.265847 131.268144 
L 269.265847 136.117601 
L 278.801049 136.117601 
L 278.801049 141.396757 
L 280.708089 141.396757 
L 280.708089 146.887079 
L 292.150331 146.887079 
L 292.150331 152.691134 
L 297.394692 152.691134 
L 297.394692 158.580542 
L 309.313694 158.580542 
L 309.313694 164.944903 
L 318.848896 164.944903 
L 318.848896 172.269922 
L 320.755936 172.269922 
L 320.755936 179.738569 
L 321.709456 179.738569 
L 321.709456 187.51841 
L 326.000297 187.51841 
L 326.000297 195.467378 
L 332.674938 195.467378 
L 332.674938 204.409966 
L 340.303099 204.409966 
L 340.303099 214.374565 
L 365.094624 214.374565 
L 365.094624 225.667777 
L 371.292505 225.667777 
L 371.292505 237.797523 
L 375.106585 237.797523 
L 375.106585 251.50941 
L 385.595307 251.50941 
L 385.595307 265.874243 
L 392.746708 265.874243 
L 392.746708 281.83517 
L 395.607269 281.83517 
L 395.607269 297.796096 
L 397.514309 297.796096 
L 397.514309 313.757023 
L 400.85163 313.757023 
L 400.85163 329.717949 
L 430.887515 329.717949 
L 430.887515 361.639802 
L 647.813352 361.639802 
L 647.813352 361.639802 
" style="fill:none;stroke:#ff0000;stroke-linecap:square;stroke-width:1.5;"/>
   </g>
   <g id="line2d_17">
    <path clip-path="url(#p8a2e72f4f9)" d="M 140.540625 49.632273 
L 556.752177 49.632273 
L 556.752177 49.632273 
" style="fill:none;stroke:#008000;stroke-linecap:square;stroke-width:1.5;"/>
   </g>
   <g id="patch_3">
    <path d="M 115.176989 464.745 
L 115.176989 29.865 
" style="fill:none;stroke:#000000;stroke-linecap:square;stroke-linejoin:miter;stroke-width:0.8;"/>
   </g>
   <g id="patch_4">
    <path d="M 673.176989 464.745 
L 673.176989 29.865 
" style="fill:none;stroke:#000000;stroke-linecap:square;stroke-linejoin:miter;stroke-width:0.8;"/>
   </g>
   <g id="patch_5">
    <path d="M 115.176989 464.745 
L 673.176989 464.745 
" style="fill:none;stroke:#000000;stroke-linecap:square;stroke-linejoin:miter;stroke-width:0.8;"/>
   </g>
   <g id="patch_6">
    <path d="M 115.176989 29.865 
L 673.176989 29.865 
" style="fill:none;stroke:#000000;stroke-linecap:square;stroke-linejoin:miter;stroke-width:0.8;"/>
   </g>
   <g id="text_18">
    <!-- P&lt;0.001 -->
    <defs>
     <path d="M 1.8125 34.46875 
L 54.34375 57.234375 
L 54.34375 52.984375 
L 9.125 33.34375 
L 54.34375 13.53125 
L 54.34375 9.125 
L 1.8125 32.078125 
z
" id="TimesNewRomanPSMT-60"/>
    </defs>
    <g transform="translate(142.924425 301.401596)scale(0.2 -0.2)">
     <use xlink:href="#TimesNewRomanPSMT-80"/>
     <use x="55.615234" xlink:href="#TimesNewRomanPSMT-60"/>
     <use x="112.011719" xlink:href="#TimesNewRomanPSMT-48"/>
     <use x="162.011719" xlink:href="#TimesNewRomanPSMT-46"/>
     <use x="187.011719" xlink:href="#TimesNewRomanPSMT-48"/>
     <use x="237.011719" xlink:href="#TimesNewRomanPSMT-48"/>
     <use x="287.011719" xlink:href="#TimesNewRomanPSMT-49"/>
    </g>
   </g>
   <g id="text_19">
    <!-- OS Cohort Training -->
    <defs>
     <path d="M 36.578125 67.71875 
Q 49.46875 67.71875 58.90625 57.921875 
Q 68.359375 48.140625 68.359375 33.5 
Q 68.359375 18.40625 58.828125 8.4375 
Q 49.3125 -1.515625 35.796875 -1.515625 
Q 22.125 -1.515625 12.8125 8.203125 
Q 3.515625 17.921875 3.515625 33.34375 
Q 3.515625 49.125 14.265625 59.078125 
Q 23.578125 67.71875 36.578125 67.71875 
z
M 35.640625 64.15625 
Q 26.765625 64.15625 21.390625 57.5625 
Q 14.703125 49.359375 14.703125 33.546875 
Q 14.703125 17.328125 21.625 8.59375 
Q 26.953125 1.953125 35.6875 1.953125 
Q 45.015625 1.953125 51.09375 9.21875 
Q 57.171875 16.5 57.171875 32.171875 
Q 57.171875 49.171875 50.484375 57.515625 
Q 45.125 64.15625 35.640625 64.15625 
z
" id="TimesNewRomanPSMT-79"/>
     <path d="M 45.84375 67.71875 
L 45.84375 44.828125 
L 44.046875 44.828125 
Q 43.171875 51.421875 40.890625 55.328125 
Q 38.625 59.234375 34.421875 61.515625 
Q 30.21875 63.8125 25.734375 63.8125 
Q 20.65625 63.8125 17.328125 60.71875 
Q 14.015625 57.625 14.015625 53.65625 
Q 14.015625 50.640625 16.109375 48.140625 
Q 19.140625 44.484375 30.515625 38.375 
Q 39.796875 33.40625 43.1875 30.734375 
Q 46.578125 28.078125 48.40625 24.453125 
Q 50.25 20.84375 50.25 16.890625 
Q 50.25 9.375 44.40625 3.921875 
Q 38.578125 -1.515625 29.390625 -1.515625 
Q 26.515625 -1.515625 23.96875 -1.078125 
Q 22.46875 -0.828125 17.703125 0.703125 
Q 12.9375 2.25 11.671875 2.25 
Q 10.453125 2.25 9.734375 1.515625 
Q 9.03125 0.78125 8.6875 -1.515625 
L 6.890625 -1.515625 
L 6.890625 21.1875 
L 8.6875 21.1875 
Q 9.96875 14.0625 12.109375 10.515625 
Q 14.265625 6.984375 18.671875 4.640625 
Q 23.09375 2.296875 28.375 2.296875 
Q 34.46875 2.296875 38 5.515625 
Q 41.546875 8.734375 41.546875 13.140625 
Q 41.546875 15.578125 40.203125 18.0625 
Q 38.875 20.5625 36.03125 22.703125 
Q 34.125 24.171875 25.625 28.921875 
Q 17.140625 33.6875 13.546875 36.515625 
Q 9.96875 39.359375 8.109375 42.765625 
Q 6.25 46.1875 6.25 50.296875 
Q 6.25 57.421875 11.71875 62.5625 
Q 17.1875 67.71875 25.640625 67.71875 
Q 30.90625 67.71875 36.8125 65.140625 
Q 39.546875 63.921875 40.671875 63.921875 
Q 41.9375 63.921875 42.75 64.671875 
Q 43.5625 65.4375 44.046875 67.71875 
z
" id="TimesNewRomanPSMT-83"/>
     <path id="TimesNewRomanPSMT-32"/>
     <path d="M 60.203125 67.71875 
L 61.71875 45.21875 
L 60.203125 45.21875 
Q 57.171875 55.328125 51.5625 59.765625 
Q 45.953125 64.203125 38.09375 64.203125 
Q 31.5 64.203125 26.171875 60.859375 
Q 20.84375 57.515625 17.796875 50.1875 
Q 14.75 42.875 14.75 31.984375 
Q 14.75 23 17.625 16.40625 
Q 20.515625 9.8125 26.296875 6.296875 
Q 32.078125 2.78125 39.5 2.78125 
Q 45.953125 2.78125 50.875 5.53125 
Q 55.8125 8.296875 61.71875 16.5 
L 63.234375 15.53125 
Q 58.25 6.6875 51.609375 2.578125 
Q 44.96875 -1.515625 35.84375 -1.515625 
Q 19.390625 -1.515625 10.359375 10.6875 
Q 3.609375 19.78125 3.609375 32.078125 
Q 3.609375 42 8.046875 50.296875 
Q 12.5 58.59375 20.28125 63.15625 
Q 28.078125 67.71875 37.3125 67.71875 
Q 44.484375 67.71875 51.46875 64.203125 
Q 53.515625 63.140625 54.390625 63.140625 
Q 55.71875 63.140625 56.6875 64.0625 
Q 57.953125 65.375 58.5 67.71875 
z
" id="TimesNewRomanPSMT-67"/>
     <path d="M 15.09375 16.3125 
Q 10.984375 18.3125 8.78125 21.890625 
Q 6.59375 25.484375 6.59375 29.828125 
Q 6.59375 36.46875 11.59375 41.25 
Q 16.609375 46.046875 24.421875 46.046875 
Q 30.8125 46.046875 35.5 42.921875 
L 44.96875 42.921875 
Q 47.078125 42.921875 47.40625 42.796875 
Q 47.75 42.671875 47.90625 42.390625 
Q 48.1875 41.9375 48.1875 40.828125 
Q 48.1875 39.546875 47.953125 39.0625 
Q 47.796875 38.8125 47.4375 38.671875 
Q 47.078125 38.53125 44.96875 38.53125 
L 39.15625 38.53125 
Q 41.890625 35.015625 41.890625 29.546875 
Q 41.890625 23.296875 37.109375 18.84375 
Q 32.328125 14.40625 24.265625 14.40625 
Q 20.953125 14.40625 17.484375 15.375 
Q 15.328125 13.53125 14.5625 12.140625 
Q 13.8125 10.75 13.8125 9.765625 
Q 13.8125 8.9375 14.625 8.15625 
Q 15.4375 7.375 17.78125 7.03125 
Q 19.140625 6.84375 24.609375 6.6875 
Q 34.671875 6.453125 37.640625 6 
Q 42.1875 5.375 44.890625 2.640625 
Q 47.609375 -0.09375 47.609375 -4.109375 
Q 47.609375 -9.625 42.4375 -14.453125 
Q 34.8125 -21.578125 22.5625 -21.578125 
Q 13.140625 -21.578125 6.640625 -17.328125 
Q 2.984375 -14.890625 2.984375 -12.25 
Q 2.984375 -11.078125 3.515625 -9.90625 
Q 4.34375 -8.109375 6.9375 -4.890625 
Q 7.28125 -4.4375 11.921875 0.390625 
Q 9.375 1.90625 8.328125 3.09375 
Q 7.28125 4.296875 7.28125 5.8125 
Q 7.28125 7.515625 8.671875 9.8125 
Q 10.0625 12.109375 15.09375 16.3125 
z
M 23.578125 43.703125 
Q 19.96875 43.703125 17.53125 40.8125 
Q 15.09375 37.9375 15.09375 31.984375 
Q 15.09375 24.265625 18.40625 20.015625 
Q 20.953125 16.796875 24.859375 16.796875 
Q 28.5625 16.796875 30.953125 19.578125 
Q 33.34375 22.359375 33.34375 28.328125 
Q 33.34375 36.078125 29.984375 40.484375 
Q 27.484375 43.703125 23.578125 43.703125 
z
M 14.59375 0 
Q 12.3125 -2.484375 11.140625 -4.625 
Q 9.96875 -6.78125 9.96875 -8.59375 
Q 9.96875 -10.9375 12.796875 -12.703125 
Q 17.671875 -15.71875 26.90625 -15.71875 
Q 35.6875 -15.71875 39.859375 -12.609375 
Q 44.046875 -9.515625 44.046875 -6 
Q 44.046875 -3.46875 41.546875 -2.390625 
Q 39.015625 -1.3125 31.5 -1.125 
Q 20.515625 -0.828125 14.59375 0 
z
" id="TimesNewRomanPSMT-103"/>
    </defs>
    <g transform="translate(298.814489 23.865)scale(0.24 -0.24)">
     <use xlink:href="#TimesNewRomanPSMT-79"/>
     <use x="72.216797" xlink:href="#TimesNewRomanPSMT-83"/>
     <use x="127.832031" xlink:href="#TimesNewRomanPSMT-32"/>
     <use x="152.832031" xlink:href="#TimesNewRomanPSMT-67"/>
     <use x="219.53125" xlink:href="#TimesNewRomanPSMT-111"/>
     <use x="269.53125" xlink:href="#TimesNewRomanPSMT-104"/>
     <use x="319.53125" xlink:href="#TimesNewRomanPSMT-111"/>
     <use x="369.53125" xlink:href="#TimesNewRomanPSMT-114"/>
     <use x="402.832031" xlink:href="#TimesNewRomanPSMT-116"/>
     <use x="430.615234" xlink:href="#TimesNewRomanPSMT-32"/>
     <use x="453.865234" xlink:href="#TimesNewRomanPSMT-84"/>
     <use x="511.449219" xlink:href="#TimesNewRomanPSMT-114"/>
     <use x="544.75" xlink:href="#TimesNewRomanPSMT-97"/>
     <use x="589.134766" xlink:href="#TimesNewRomanPSMT-105"/>
     <use x="616.917969" xlink:href="#TimesNewRomanPSMT-110"/>
     <use x="666.917969" xlink:href="#TimesNewRomanPSMT-105"/>
     <use x="694.701172" xlink:href="#TimesNewRomanPSMT-110"/>
     <use x="744.701172" xlink:href="#TimesNewRomanPSMT-103"/>
    </g>
   </g>
   <g id="legend_1">
    <g id="patch_7">
     <path d="M 129.176989 454.745 
L 274.858239 454.745 
Q 278.858239 454.745 278.858239 450.745 
L 278.858239 396.15125 
Q 278.858239 392.15125 274.858239 392.15125 
L 129.176989 392.15125 
Q 125.176989 392.15125 125.176989 396.15125 
L 125.176989 450.745 
Q 125.176989 454.745 129.176989 454.745 
z
" style="fill:#ffffff;opacity:0.8;stroke:#cccccc;stroke-linejoin:miter;"/>
    </g>
    <g id="line2d_18">
     <path d="M 133.176989 407.15125 
L 173.176989 407.15125 
" style="fill:none;stroke:#ff0000;stroke-linecap:square;stroke-width:1.5;"/>
    </g>
    <g id="line2d_19"/>
    <g id="text_20">
     <!-- High Risk -->
     <defs>
      <path d="M 20.5625 35.5 
L 51.3125 35.5 
L 51.3125 54.4375 
Q 51.3125 59.515625 50.6875 61.140625 
Q 50.203125 62.359375 48.640625 63.234375 
Q 46.53125 64.40625 44.1875 64.40625 
L 41.84375 64.40625 
L 41.84375 66.21875 
L 70.171875 66.21875 
L 70.171875 64.40625 
L 67.828125 64.40625 
Q 65.484375 64.40625 63.375 63.28125 
Q 61.8125 62.5 61.25 60.90625 
Q 60.6875 59.328125 60.6875 54.4375 
L 60.6875 11.71875 
Q 60.6875 6.6875 61.328125 5.078125 
Q 61.8125 3.859375 63.328125 2.984375 
Q 65.484375 1.8125 67.828125 1.8125 
L 70.171875 1.8125 
L 70.171875 0 
L 41.84375 0 
L 41.84375 1.8125 
L 44.1875 1.8125 
Q 48.25 1.8125 50.09375 4.203125 
Q 51.3125 5.765625 51.3125 11.71875 
L 51.3125 31.890625 
L 20.5625 31.890625 
L 20.5625 11.71875 
Q 20.5625 6.6875 21.1875 5.078125 
Q 21.6875 3.859375 23.25 2.984375 
Q 25.34375 1.8125 27.6875 1.8125 
L 30.078125 1.8125 
L 30.078125 0 
L 1.703125 0 
L 1.703125 1.8125 
L 4.046875 1.8125 
Q 8.15625 1.8125 10.015625 4.203125 
Q 11.1875 5.765625 11.1875 11.71875 
L 11.1875 54.4375 
Q 11.1875 59.515625 10.546875 61.140625 
Q 10.0625 62.359375 8.546875 63.234375 
Q 6.390625 64.40625 4.046875 64.40625 
L 1.703125 64.40625 
L 1.703125 66.21875 
L 30.078125 66.21875 
L 30.078125 64.40625 
L 27.6875 64.40625 
Q 25.34375 64.40625 23.25 63.28125 
Q 21.734375 62.5 21.140625 60.90625 
Q 20.5625 59.328125 20.5625 54.4375 
z
" id="TimesNewRomanPSMT-72"/>
      <path d="M 67.578125 0 
L 49.90625 0 
L 27.484375 30.953125 
Q 25 30.859375 23.4375 30.859375 
Q 22.796875 30.859375 22.0625 30.875 
Q 21.34375 30.90625 20.5625 30.953125 
L 20.5625 11.71875 
Q 20.5625 5.46875 21.921875 3.953125 
Q 23.78125 1.8125 27.484375 1.8125 
L 30.078125 1.8125 
L 30.078125 0 
L 1.703125 0 
L 1.703125 1.8125 
L 4.203125 1.8125 
Q 8.40625 1.8125 10.203125 4.546875 
Q 11.234375 6.0625 11.234375 11.71875 
L 11.234375 54.5 
Q 11.234375 60.75 9.859375 62.25 
Q 7.953125 64.40625 4.203125 64.40625 
L 1.703125 64.40625 
L 1.703125 66.21875 
L 25.828125 66.21875 
Q 36.375 66.21875 41.375 64.671875 
Q 46.390625 63.140625 49.875 59.015625 
Q 53.375 54.890625 53.375 49.171875 
Q 53.375 43.0625 49.390625 38.5625 
Q 45.40625 34.078125 37.0625 32.234375 
L 50.734375 13.234375 
Q 55.421875 6.6875 58.78125 4.53125 
Q 62.15625 2.390625 67.578125 1.8125 
z
M 20.5625 34.03125 
Q 21.484375 34.03125 22.171875 34 
Q 22.859375 33.984375 23.296875 33.984375 
Q 32.765625 33.984375 37.578125 38.078125 
Q 42.390625 42.1875 42.390625 48.53125 
Q 42.390625 54.734375 38.5 58.609375 
Q 34.625 62.5 28.21875 62.5 
Q 25.390625 62.5 20.5625 61.578125 
z
" id="TimesNewRomanPSMT-82"/>
      <path d="M 16.359375 69.4375 
L 16.359375 24.953125 
L 27.734375 35.296875 
Q 31.34375 38.625 31.9375 39.5 
Q 32.328125 40.09375 32.328125 40.671875 
Q 32.328125 41.65625 31.515625 42.359375 
Q 30.71875 43.0625 28.859375 43.171875 
L 28.859375 44.734375 
L 48.296875 44.734375 
L 48.296875 43.171875 
Q 44.28125 43.0625 41.625 41.9375 
Q 38.96875 40.828125 35.796875 37.9375 
L 24.3125 27.34375 
L 35.796875 12.84375 
Q 40.578125 6.84375 42.234375 5.21875 
Q 44.578125 2.9375 46.34375 2.25 
Q 47.5625 1.765625 50.59375 1.765625 
L 50.59375 0 
L 28.859375 0 
L 28.859375 1.765625 
Q 30.71875 1.8125 31.375 2.3125 
Q 32.03125 2.828125 32.03125 3.765625 
Q 32.03125 4.890625 30.078125 7.375 
L 16.359375 24.90625 
L 16.359375 10.0625 
Q 16.359375 5.71875 16.96875 4.34375 
Q 17.578125 2.984375 18.703125 2.390625 
Q 19.828125 1.8125 23.578125 1.765625 
L 23.578125 0 
L 0.828125 0 
L 0.828125 1.765625 
Q 4.25 1.765625 5.953125 2.59375 
Q 6.984375 3.125 7.515625 4.25 
Q 8.25 5.859375 8.25 9.8125 
L 8.25 50.53125 
Q 8.25 58.296875 7.90625 60.03125 
Q 7.5625 61.765625 6.78125 62.421875 
Q 6 63.09375 4.734375 63.09375 
Q 3.71875 63.09375 1.65625 62.25 
L 0.828125 63.96875 
L 14.109375 69.4375 
z
" id="TimesNewRomanPSMT-107"/>
     </defs>
     <g transform="translate(189.176989 414.15125)scale(0.2 -0.2)">
      <use xlink:href="#TimesNewRomanPSMT-72"/>
      <use x="72.216797" xlink:href="#TimesNewRomanPSMT-105"/>
      <use x="100" xlink:href="#TimesNewRomanPSMT-103"/>
      <use x="150" xlink:href="#TimesNewRomanPSMT-104"/>
      <use x="200" xlink:href="#TimesNewRomanPSMT-32"/>
      <use x="225" xlink:href="#TimesNewRomanPSMT-82"/>
      <use x="291.699219" xlink:href="#TimesNewRomanPSMT-105"/>
      <use x="319.482422" xlink:href="#TimesNewRomanPSMT-115"/>
      <use x="358.398438" xlink:href="#TimesNewRomanPSMT-107"/>
     </g>
    </g>
    <g id="line2d_20">
     <path d="M 133.176989 435.466875 
L 173.176989 435.466875 
" style="fill:none;stroke:#008000;stroke-linecap:square;stroke-width:1.5;"/>
    </g>
    <g id="line2d_21"/>
    <g id="text_21">
     <!-- Low Risk -->
     <defs>
      <path d="M 57.328125 18.3125 
L 58.9375 17.96875 
L 53.265625 0 
L 2 0 
L 2 1.8125 
L 4.5 1.8125 
Q 8.6875 1.8125 10.5 4.546875 
Q 11.53125 6.109375 11.53125 11.765625 
L 11.53125 54.5 
Q 11.53125 60.6875 10.15625 62.25 
Q 8.25 64.40625 4.5 64.40625 
L 2 64.40625 
L 2 66.21875 
L 31.984375 66.21875 
L 31.984375 64.40625 
Q 26.703125 64.453125 24.578125 63.421875 
Q 22.46875 62.40625 21.6875 60.84375 
Q 20.90625 59.28125 20.90625 53.375 
L 20.90625 11.765625 
Q 20.90625 7.71875 21.6875 6.203125 
Q 22.265625 5.171875 23.484375 4.6875 
Q 24.703125 4.203125 31.109375 4.203125 
L 35.9375 4.203125 
Q 43.5625 4.203125 46.625 5.328125 
Q 49.703125 6.453125 52.234375 9.296875 
Q 54.78125 12.15625 57.328125 18.3125 
z
" id="TimesNewRomanPSMT-76"/>
      <path d="M 0.640625 44.734375 
L 19.390625 44.734375 
L 19.390625 42.921875 
Q 16.796875 42.71875 15.984375 41.984375 
Q 15.1875 41.265625 15.1875 39.890625 
Q 15.1875 38.375 16.015625 36.234375 
L 25.59375 10.5 
L 35.203125 31.453125 
L 32.671875 38.03125 
Q 31.5 40.96875 29.59375 42.09375 
Q 28.515625 42.78125 25.59375 42.921875 
L 25.59375 44.734375 
L 46.875 44.734375 
L 46.875 42.921875 
Q 43.359375 42.78125 41.890625 41.65625 
Q 40.921875 40.875 40.921875 39.15625 
Q 40.921875 38.1875 41.3125 37.15625 
L 51.46875 11.46875 
L 60.890625 36.234375 
Q 61.859375 38.875 61.859375 40.4375 
Q 61.859375 41.359375 60.90625 42.09375 
Q 59.96875 42.828125 57.171875 42.921875 
L 57.171875 44.734375 
L 71.296875 44.734375 
L 71.296875 42.921875 
Q 67.046875 42.28125 65.046875 37.15625 
L 50.09375 -1.375 
L 48.09375 -1.375 
L 36.921875 27.203125 
L 23.875 -1.375 
L 22.078125 -1.375 
L 7.71875 36.234375 
Q 6.296875 39.796875 4.921875 41.03125 
Q 3.5625 42.28125 0.640625 42.921875 
z
" id="TimesNewRomanPSMT-119"/>
     </defs>
     <g transform="translate(189.176989 442.466875)scale(0.2 -0.2)">
      <use xlink:href="#TimesNewRomanPSMT-76"/>
      <use x="61.083984" xlink:href="#TimesNewRomanPSMT-111"/>
      <use x="111.083984" xlink:href="#TimesNewRomanPSMT-119"/>
      <use x="183.300781" xlink:href="#TimesNewRomanPSMT-32"/>
      <use x="208.300781" xlink:href="#TimesNewRomanPSMT-82"/>
      <use x="275" xlink:href="#TimesNewRomanPSMT-105"/>
      <use x="302.783203" xlink:href="#TimesNewRomanPSMT-115"/>
      <use x="341.699219" xlink:href="#TimesNewRomanPSMT-107"/>
     </g>
    </g>
   </g>
  </g>
  <g id="axes_2">
   <g id="matplotlib.axis_3">
    <g id="xtick_7">
     <g id="text_22">
      <!-- At risk -->
      <defs>
       <path d="M 45.75 22.171875 
L 20.125 22.171875 
L 15.625 11.71875 
Q 13.96875 7.859375 13.96875 5.953125 
Q 13.96875 4.4375 15.40625 3.296875 
Q 16.84375 2.15625 21.625 1.8125 
L 21.625 0 
L 0.78125 0 
L 0.78125 1.8125 
Q 4.9375 2.546875 6.15625 3.71875 
Q 8.640625 6.0625 11.671875 13.234375 
L 34.96875 67.71875 
L 36.671875 67.71875 
L 59.71875 12.640625 
Q 62.5 6 64.765625 4.015625 
Q 67.046875 2.046875 71.09375 1.8125 
L 71.09375 0 
L 44.96875 0 
L 44.96875 1.8125 
Q 48.921875 2 50.3125 3.125 
Q 51.703125 4.25 51.703125 5.859375 
Q 51.703125 8.015625 49.75 12.640625 
z
M 44.390625 25.78125 
L 33.15625 52.546875 
L 21.625 25.78125 
z
" id="TimesNewRomanPSMT-65"/>
      </defs>
      <g transform="translate(85.540625 528.8325)scale(0.2 -0.2)">
       <use xlink:href="#TimesNewRomanPSMT-65"/>
       <use x="72.216797" xlink:href="#TimesNewRomanPSMT-116"/>
       <use x="100" xlink:href="#TimesNewRomanPSMT-32"/>
       <use x="125" xlink:href="#TimesNewRomanPSMT-114"/>
       <use x="158.300781" xlink:href="#TimesNewRomanPSMT-105"/>
       <use x="186.083984" xlink:href="#TimesNewRomanPSMT-115"/>
       <use x="225" xlink:href="#TimesNewRomanPSMT-107"/>
      </g>
      <!--  High Risk   174 -->
      <g transform="translate(8.859375 549.775625)scale(0.2 -0.2)">
       <use xlink:href="#TimesNewRomanPSMT-32"/>
       <use x="25" xlink:href="#TimesNewRomanPSMT-72"/>
       <use x="97.216797" xlink:href="#TimesNewRomanPSMT-105"/>
       <use x="125" xlink:href="#TimesNewRomanPSMT-103"/>
       <use x="175" xlink:href="#TimesNewRomanPSMT-104"/>
       <use x="225" xlink:href="#TimesNewRomanPSMT-32"/>
       <use x="250" xlink:href="#TimesNewRomanPSMT-82"/>
       <use x="316.699219" xlink:href="#TimesNewRomanPSMT-105"/>
       <use x="344.482422" xlink:href="#TimesNewRomanPSMT-115"/>
       <use x="383.398438" xlink:href="#TimesNewRomanPSMT-107"/>
       <use x="433.398438" xlink:href="#TimesNewRomanPSMT-32"/>
       <use x="458.398438" xlink:href="#TimesNewRomanPSMT-32"/>
       <use x="483.398438" xlink:href="#TimesNewRomanPSMT-32"/>
       <use x="508.398438" xlink:href="#TimesNewRomanPSMT-49"/>
       <use x="558.398438" xlink:href="#TimesNewRomanPSMT-55"/>
       <use x="608.398438" xlink:href="#TimesNewRomanPSMT-52"/>
      </g>
      <!--   Low Risk   173 -->
      <g transform="translate(7.2 570.75625)scale(0.2 -0.2)">
       <use xlink:href="#TimesNewRomanPSMT-32"/>
       <use x="25" xlink:href="#TimesNewRomanPSMT-32"/>
       <use x="50" xlink:href="#TimesNewRomanPSMT-76"/>
       <use x="111.083984" xlink:href="#TimesNewRomanPSMT-111"/>
       <use x="161.083984" xlink:href="#TimesNewRomanPSMT-119"/>
       <use x="233.300781" xlink:href="#TimesNewRomanPSMT-32"/>
       <use x="258.300781" xlink:href="#TimesNewRomanPSMT-82"/>
       <use x="325" xlink:href="#TimesNewRomanPSMT-105"/>
       <use x="352.783203" xlink:href="#TimesNewRomanPSMT-115"/>
       <use x="391.699219" xlink:href="#TimesNewRomanPSMT-107"/>
       <use x="441.699219" xlink:href="#TimesNewRomanPSMT-32"/>
       <use x="466.699219" xlink:href="#TimesNewRomanPSMT-32"/>
       <use x="491.699219" xlink:href="#TimesNewRomanPSMT-32"/>
       <use x="516.699219" xlink:href="#TimesNewRomanPSMT-49"/>
       <use x="566.699219" xlink:href="#TimesNewRomanPSMT-55"/>
       <use x="616.699219" xlink:href="#TimesNewRomanPSMT-51"/>
      </g>
      <!--  -->
      <g transform="translate(140.540625 591.699375)scale(0.2 -0.2)"/>
     </g>
    </g>
    <g id="xtick_8">
     <g id="text_23">
      <!--  -->
      <g transform="translate(235.892641 528.8325)scale(0.2 -0.2)"/>
      <!-- 110 -->
      <g transform="translate(206.642641 549.775625)scale(0.2 -0.2)">
       <use xlink:href="#TimesNewRomanPSMT-49"/>
       <use x="46.25" xlink:href="#TimesNewRomanPSMT-49"/>
       <use x="96.25" xlink:href="#TimesNewRomanPSMT-48"/>
      </g>
      <!-- 113 -->
      <g transform="translate(206.642641 570.71875)scale(0.2 -0.2)">
       <use xlink:href="#TimesNewRomanPSMT-49"/>
       <use x="46.25" xlink:href="#TimesNewRomanPSMT-49"/>
       <use x="96.25" xlink:href="#TimesNewRomanPSMT-51"/>
      </g>
     </g>
    </g>
    <g id="xtick_9">
     <g id="text_24">
      <!--  -->
      <g transform="translate(331.244658 528.8325)scale(0.2 -0.2)"/>
      <!-- 40 -->
      <g transform="translate(311.244658 549.775625)scale(0.2 -0.2)">
       <use xlink:href="#TimesNewRomanPSMT-52"/>
       <use x="50" xlink:href="#TimesNewRomanPSMT-48"/>
      </g>
      <!-- 63 -->
      <g transform="translate(311.244658 570.71875)scale(0.2 -0.2)">
       <use xlink:href="#TimesNewRomanPSMT-54"/>
       <use x="50" xlink:href="#TimesNewRomanPSMT-51"/>
      </g>
     </g>
    </g>
    <g id="xtick_10">
     <g id="text_25">
      <!--  -->
      <g transform="translate(426.596674 528.8325)scale(0.2 -0.2)"/>
      <!-- 9 -->
      <g transform="translate(416.596674 549.775625)scale(0.2 -0.2)">
       <use xlink:href="#TimesNewRomanPSMT-57"/>
      </g>
      <!-- 11 -->
      <g transform="translate(407.346674 570.71875)scale(0.2 -0.2)">
       <use xlink:href="#TimesNewRomanPSMT-49"/>
       <use x="46.25" xlink:href="#TimesNewRomanPSMT-49"/>
      </g>
     </g>
    </g>
    <g id="xtick_11">
     <g id="text_26">
      <!--  -->
      <g transform="translate(521.948691 528.8325)scale(0.2 -0.2)"/>
      <!-- 1 -->
      <g transform="translate(511.948691 549.775625)scale(0.2 -0.2)">
       <use xlink:href="#TimesNewRomanPSMT-49"/>
      </g>
      <!-- 1 -->
      <g transform="translate(511.948691 570.71875)scale(0.2 -0.2)">
       <use xlink:href="#TimesNewRomanPSMT-49"/>
      </g>
     </g>
    </g>
    <g id="xtick_12">
     <g id="text_27">
      <!--  -->
      <g transform="translate(617.300707 528.8325)scale(0.2 -0.2)"/>
      <!-- 1 -->
      <g transform="translate(607.300707 549.775625)scale(0.2 -0.2)">
       <use xlink:href="#TimesNewRomanPSMT-49"/>
      </g>
      <!-- 0 -->
      <g transform="translate(607.300707 570.71875)scale(0.2 -0.2)">
       <use xlink:href="#TimesNewRomanPSMT-48"/>
      </g>
     </g>
    </g>
   </g>
  </g>
 </g>
 <defs>
  <clipPath id="p8a2e72f4f9">
   <rect height="434.88" width="558" x="115.176989" y="29.865"/>
  </clipPath>
 </defs>
</svg>
