<?xml version="1.0" encoding="utf-8" standalone="no"?>
<!DOCTYPE svg PUBLIC "-//W3C//DTD SVG 1.1//EN"
  "http://www.w3.org/Graphics/SVG/1.1/DTD/svg11.dtd">
<!-- Created with matplotlib (https://matplotlib.org/) -->
<svg height="603.1775pt" version="1.1" viewBox="0 0 670.376989 603.1775" width="670.376989pt" xmlns="http://www.w3.org/2000/svg" xmlns:xlink="http://www.w3.org/1999/xlink">
 <defs>
  <style type="text/css">
*{stroke-linecap:butt;stroke-linejoin:round;}
  </style>
 </defs>
 <g id="figure_1">
  <g id="patch_1">
   <path d="M 0 603.1775 
L 670.376989 603.1775 
L 670.376989 0 
L 0 0 
z
" style="fill:#ffffff;"/>
  </g>
  <g id="axes_1">
   <g id="patch_2">
    <path d="M 105.176989 464.745 
L 663.176989 464.745 
L 663.176989 29.865 
L 105.176989 29.865 
z
" style="fill:#ffffff;"/>
   </g>
   <g id="PolyCollection_1">
    <defs>
     <path d="M 130.540625 -553.545227 
L 130.540625 -553.545227 
L 131.6257 -553.545227 
L 131.6257 -518.134481 
L 141.391379 -518.134481 
L 141.391379 -507.221875 
L 144.646605 -507.221875 
L 144.646605 -500.599734 
L 148.444368 -500.599734 
L 148.444368 -494.015492 
L 149.529444 -494.015492 
L 149.529444 -487.521063 
L 152.78467 -487.521063 
L 152.78467 -481.124669 
L 153.327207 -481.124669 
L 153.327207 -474.822725 
L 153.869745 -474.822725 
L 153.869745 -468.608582 
L 157.667509 -468.608582 
L 157.667509 -456.416163 
L 159.83766 -456.416163 
L 159.83766 -450.425581 
L 161.465273 -450.425581 
L 161.465273 -444.498418 
L 162.550348 -444.498418 
L 162.550348 -438.630266 
L 164.720499 -438.630266 
L 164.720499 -432.817293 
L 165.805574 -432.817293 
L 165.805574 -427.05616 
L 166.890649 -427.05616 
L 166.890649 -421.343953 
L 169.603338 -421.343953 
L 169.603338 -415.678119 
L 172.858564 -415.678119 
L 172.858564 -410.056414 
L 173.401101 -410.056414 
L 173.401101 -398.937714 
L 173.943639 -398.937714 
L 173.943639 -393.308028 
L 176.11379 -393.308028 
L 176.11379 -387.71987 
L 178.283941 -387.71987 
L 178.283941 -376.662051 
L 183.709317 -376.662051 
L 183.709317 -371.189806 
L 188.049619 -371.189806 
L 188.049619 -371.189806 
L 191.304845 -371.189806 
L 191.304845 -365.612713 
L 192.38992 -365.612713 
L 192.38992 -360.074962 
L 195.102608 -360.074962 
L 195.102608 -354.423796 
L 199.985448 -354.423796 
L 199.985448 -354.423796 
L 201.613061 -354.423796 
L 201.613061 -348.652442 
L 206.4959 -348.652442 
L 206.4959 -342.926381 
L 207.038437 -342.926381 
L 207.038437 -337.244402 
L 214.633965 -337.244402 
L 214.633965 -331.42719 
L 217.346653 -331.42719 
L 217.346653 -325.65745 
L 218.974266 -325.65745 
L 218.974266 -319.934187 
L 221.686955 -319.934187 
L 221.686955 -319.934187 
L 226.027256 -319.934187 
L 226.027256 -314.057453 
L 226.569794 -314.057453 
L 226.569794 -314.057453 
L 227.112331 -314.057453 
L 227.112331 -314.057453 
L 231.452633 -314.057453 
L 231.452633 -314.057453 
L 232.537708 -314.057453 
L 232.537708 -307.532205 
L 238.505623 -307.532205 
L 238.505623 -301.082244 
L 239.590698 -301.082244 
L 239.590698 -294.705692 
L 240.133236 -294.705692 
L 240.133236 -288.401081 
L 240.675773 -288.401081 
L 240.675773 -282.167317 
L 242.303386 -282.167317 
L 242.303386 -276.003655 
L 247.728763 -276.003655 
L 247.728763 -263.885326 
L 249.898914 -263.885326 
L 249.898914 -263.885326 
L 256.409366 -263.885326 
L 256.409366 -257.600961 
L 258.036979 -257.600961 
L 258.036979 -251.401395 
L 268.887732 -251.401395 
L 268.887732 -251.401395 
L 272.685496 -251.401395 
L 272.685496 -251.401395 
L 274.313109 -251.401395 
L 274.313109 -251.401395 
L 280.281024 -251.401395 
L 280.281024 -251.401395 
L 282.451174 -251.401395 
L 282.451174 -243.378974 
L 287.876551 -243.378974 
L 287.876551 -235.565326 
L 290.046702 -235.565326 
L 290.046702 -227.958202 
L 291.674315 -227.958202 
L 291.674315 -227.958202 
L 292.216853 -227.958202 
L 292.216853 -219.806809 
L 293.301928 -219.806809 
L 293.301928 -219.806809 
L 340.502706 -219.806809 
L 340.502706 -219.806809 
L 355.693761 -219.806809 
L 355.693761 -209.802432 
L 386.075871 -209.802432 
L 386.075871 -209.802432 
L 394.756473 -209.802432 
L 394.756473 -198.796558 
L 415.372905 -198.796558 
L 415.372905 -198.796558 
L 417.543056 -198.796558 
L 417.543056 -186.443496 
L 425.681121 -186.443496 
L 425.681121 -186.443496 
L 428.393809 -186.443496 
L 428.393809 -186.443496 
L 452.808005 -186.443496 
L 452.808005 -186.443496 
L 458.775919 -186.443496 
L 458.775919 -158.199773 
L 532.561043 -158.199773 
L 532.561043 -158.199773 
L 532.561043 -264.211594 
L 532.561043 -264.211594 
L 532.561043 -264.211594 
L 458.775919 -264.211594 
L 458.775919 -275.576817 
L 452.808005 -275.576817 
L 452.808005 -275.576817 
L 428.393809 -275.576817 
L 428.393809 -275.576817 
L 425.681121 -275.576817 
L 425.681121 -275.576817 
L 417.543056 -275.576817 
L 417.543056 -288.022455 
L 415.372905 -288.022455 
L 415.372905 -288.022455 
L 394.756473 -288.022455 
L 394.756473 -299.013058 
L 386.075871 -299.013058 
L 386.075871 -299.013058 
L 355.693761 -299.013058 
L 355.693761 -308.941622 
L 340.502706 -308.941622 
L 340.502706 -308.941622 
L 293.301928 -308.941622 
L 293.301928 -308.941622 
L 292.216853 -308.941622 
L 292.216853 -317.65059 
L 291.674315 -317.65059 
L 291.674315 -317.65059 
L 290.046702 -317.65059 
L 290.046702 -325.796384 
L 287.876551 -325.796384 
L 287.876551 -333.79142 
L 282.451174 -333.79142 
L 282.451174 -341.636735 
L 280.281024 -341.636735 
L 280.281024 -341.636735 
L 274.313109 -341.636735 
L 274.313109 -341.636735 
L 272.685496 -341.636735 
L 272.685496 -341.636735 
L 268.887732 -341.636735 
L 268.887732 -341.636735 
L 258.036979 -341.636735 
L 258.036979 -348.329152 
L 256.409366 -348.329152 
L 256.409366 -354.953996 
L 249.898914 -354.953996 
L 249.898914 -354.953996 
L 247.728763 -354.953996 
L 247.728763 -367.616935 
L 242.303386 -367.616935 
L 242.303386 -373.863901 
L 240.675773 -373.863901 
L 240.675773 -380.054987 
L 240.133236 -380.054987 
L 240.133236 -386.190279 
L 239.590698 -386.190279 
L 239.590698 -392.269658 
L 238.505623 -392.269658 
L 238.505623 -398.292797 
L 232.537708 -398.292797 
L 232.537708 -404.25915 
L 231.452633 -404.25915 
L 231.452633 -404.25915 
L 227.112331 -404.25915 
L 227.112331 -404.25915 
L 226.569794 -404.25915 
L 226.569794 -404.25915 
L 226.027256 -404.25915 
L 226.027256 -409.786673 
L 221.686955 -409.786673 
L 221.686955 -409.786673 
L 218.974266 -409.786673 
L 218.974266 -415.158045 
L 217.346653 -415.158045 
L 217.346653 -420.490079 
L 214.633965 -420.490079 
L 214.633965 -425.782275 
L 207.038437 -425.782275 
L 207.038437 -430.935293 
L 206.4959 -430.935293 
L 206.4959 -436.050378 
L 201.613061 -436.050378 
L 201.613061 -441.126805 
L 199.985448 -441.126805 
L 199.985448 -441.126805 
L 195.102608 -441.126805 
L 195.102608 -446.077113 
L 192.38992 -446.077113 
L 192.38992 -450.908399 
L 191.304845 -450.908399 
L 191.304845 -455.703638 
L 188.049619 -455.703638 
L 188.049619 -455.703638 
L 183.709317 -455.703638 
L 183.709317 -460.387457 
L 178.283941 -460.387457 
L 178.283941 -469.6464 
L 176.11379 -469.6464 
L 176.11379 -474.219055 
L 173.943639 -474.219055 
L 173.943639 -478.751912 
L 173.401101 -478.751912 
L 173.401101 -487.56894 
L 172.858564 -487.56894 
L 172.858564 -491.913717 
L 169.603338 -491.913717 
L 169.603338 -496.213012 
L 166.890649 -496.213012 
L 166.890649 -500.464159 
L 165.805574 -500.464159 
L 165.805574 -504.664078 
L 164.720499 -504.664078 
L 164.720499 -508.809181 
L 162.550348 -508.809181 
L 162.550348 -512.895253 
L 161.465273 -512.895253 
L 161.465273 -516.917297 
L 159.83766 -516.917297 
L 159.83766 -520.869317 
L 157.667509 -520.869317 
L 157.667509 -528.532402 
L 153.869745 -528.532402 
L 153.869745 -532.223105 
L 153.327207 -532.223105 
L 153.327207 -535.801478 
L 152.78467 -535.801478 
L 152.78467 -539.248039 
L 149.529444 -539.248039 
L 149.529444 -542.535877 
L 148.444368 -542.535877 
L 148.444368 -545.625888 
L 144.646605 -545.625888 
L 144.646605 -548.457123 
L 141.391379 -548.457123 
L 141.391379 -552.810179 
L 131.6257 -552.810179 
L 131.6257 -553.545227 
L 130.540625 -553.545227 
z
" id="m7d9ac70c73" style="stroke:#ff0000;stroke-opacity:0.25;"/>
    </defs>
    <g clip-path="url(#pca6733a73a)">
     <use style="fill:#ff0000;fill-opacity:0.25;stroke:#ff0000;stroke-opacity:0.25;" x="0" xlink:href="#m7d9ac70c73" y="603.1775"/>
    </g>
   </g>
   <g id="PolyCollection_2">
    <defs>
     <path d="M 130.540625 -553.545227 
L 130.540625 -553.545227 
L 157.124971 -553.545227 
L 157.124971 -522.40783 
L 165.263036 -522.40783 
L 165.263036 -522.40783 
L 169.603338 -522.40783 
L 169.603338 -522.40783 
L 170.145875 -522.40783 
L 170.145875 -522.40783 
L 172.316026 -522.40783 
L 172.316026 -522.40783 
L 173.943639 -522.40783 
L 173.943639 -522.40783 
L 177.198865 -522.40783 
L 177.198865 -522.40783 
L 178.283941 -522.40783 
L 178.283941 -522.40783 
L 182.081704 -522.40783 
L 182.081704 -522.40783 
L 182.624242 -522.40783 
L 182.624242 -522.40783 
L 183.16678 -522.40783 
L 183.16678 -522.40783 
L 183.709317 -522.40783 
L 183.709317 -522.40783 
L 184.794393 -522.40783 
L 184.794393 -522.40783 
L 196.730221 -522.40783 
L 196.730221 -515.590113 
L 198.357835 -515.590113 
L 198.357835 -515.590113 
L 199.985448 -515.590113 
L 199.985448 -515.590113 
L 201.070523 -515.590113 
L 201.070523 -515.590113 
L 204.325749 -515.590113 
L 204.325749 -507.803286 
L 204.868287 -507.803286 
L 204.868287 -507.803286 
L 205.953362 -507.803286 
L 205.953362 -507.803286 
L 207.580975 -507.803286 
L 207.580975 -507.803286 
L 212.463814 -507.803286 
L 212.463814 -507.803286 
L 213.548889 -507.803286 
L 213.548889 -507.803286 
L 214.091427 -507.803286 
L 214.091427 -498.9609 
L 214.633965 -498.9609 
L 214.633965 -498.9609 
L 219.516804 -498.9609 
L 219.516804 -498.9609 
L 221.144417 -498.9609 
L 221.144417 -498.9609 
L 228.197407 -498.9609 
L 228.197407 -489.708887 
L 228.739944 -489.708887 
L 228.739944 -489.708887 
L 230.910095 -489.708887 
L 230.910095 -489.708887 
L 232.537708 -489.708887 
L 232.537708 -489.708887 
L 236.87801 -489.708887 
L 236.87801 -489.708887 
L 241.218311 -489.708887 
L 241.218311 -479.932198 
L 241.760849 -479.932198 
L 241.760849 -479.932198 
L 242.303386 -479.932198 
L 242.303386 -479.932198 
L 243.930999 -479.932198 
L 243.930999 -479.932198 
L 245.016075 -479.932198 
L 245.016075 -479.932198 
L 246.10115 -479.932198 
L 246.10115 -479.932198 
L 249.356376 -479.932198 
L 249.356376 -479.932198 
L 249.898914 -479.932198 
L 249.898914 -479.932198 
L 256.951904 -479.932198 
L 256.951904 -467.074818 
L 267.802657 -467.074818 
L 267.802657 -455.278917 
L 271.057883 -455.278917 
L 271.057883 -455.278917 
L 271.600421 -455.278917 
L 271.600421 -455.278917 
L 279.195948 -455.278917 
L 279.195948 -455.278917 
L 283.53625 -455.278917 
L 283.53625 -455.278917 
L 286.248938 -455.278917 
L 286.248938 -455.278917 
L 291.674315 -455.278917 
L 291.674315 -455.278917 
L 295.472079 -455.278917 
L 295.472079 -455.278917 
L 298.184767 -455.278917 
L 298.184767 -455.278917 
L 370.884816 -455.278917 
L 370.884816 -455.278917 
L 373.054966 -455.278917 
L 373.054966 -455.278917 
L 378.480343 -455.278917 
L 378.480343 -455.278917 
L 380.107956 -455.278917 
L 380.107956 -455.278917 
L 383.90572 -455.278917 
L 383.90572 -455.278917 
L 393.12886 -455.278917 
L 393.12886 -432.993308 
L 394.213936 -432.993308 
L 394.213936 -432.993308 
L 398.554237 -432.993308 
L 398.554237 -432.993308 
L 405.064689 -432.993308 
L 405.064689 -411.03685 
L 408.862453 -411.03685 
L 408.862453 -391.469279 
L 412.117679 -391.469279 
L 412.117679 -391.469279 
L 413.202754 -391.469279 
L 413.202754 -391.469279 
L 413.745292 -391.469279 
L 413.745292 -391.469279 
L 418.628131 -391.469279 
L 418.628131 -391.469279 
L 434.361724 -391.469279 
L 434.361724 -391.469279 
L 437.61695 -391.469279 
L 437.61695 -391.469279 
L 444.66994 -391.469279 
L 444.66994 -361.75679 
L 449.010241 -361.75679 
L 449.010241 -361.75679 
L 451.180392 -361.75679 
L 451.180392 -361.75679 
L 460.403532 -361.75679 
L 460.403532 -361.75679 
L 489.700567 -361.75679 
L 489.700567 -361.75679 
L 524.965516 -361.75679 
L 524.965516 -361.75679 
L 525.508053 -361.75679 
L 525.508053 -312.913573 
L 529.848355 -312.913573 
L 529.848355 -312.913573 
L 530.390892 -312.913573 
L 530.390892 -312.913573 
L 538.528958 -312.913573 
L 538.528958 -312.913573 
L 540.699108 -312.913573 
L 540.699108 -312.913573 
L 576.506595 -312.913573 
L 576.506595 -312.913573 
L 598.75064 -312.913573 
L 598.75064 -312.913573 
L 599.293177 -312.913573 
L 599.293177 -312.913573 
L 637.813352 -312.913573 
L 637.813352 -312.913573 
L 637.813352 -473.129323 
L 637.813352 -473.129323 
L 637.813352 -473.129323 
L 599.293177 -473.129323 
L 599.293177 -473.129323 
L 598.75064 -473.129323 
L 598.75064 -473.129323 
L 576.506595 -473.129323 
L 576.506595 -473.129323 
L 540.699108 -473.129323 
L 540.699108 -473.129323 
L 538.528958 -473.129323 
L 538.528958 -473.129323 
L 530.390892 -473.129323 
L 530.390892 -473.129323 
L 529.848355 -473.129323 
L 529.848355 -473.129323 
L 525.508053 -473.129323 
L 525.508053 -489.712107 
L 524.965516 -489.712107 
L 524.965516 -489.712107 
L 489.700567 -489.712107 
L 489.700567 -489.712107 
L 460.403532 -489.712107 
L 460.403532 -489.712107 
L 451.180392 -489.712107 
L 451.180392 -489.712107 
L 449.010241 -489.712107 
L 449.010241 -489.712107 
L 444.66994 -489.712107 
L 444.66994 -501.883325 
L 437.61695 -501.883325 
L 437.61695 -501.883325 
L 434.361724 -501.883325 
L 434.361724 -501.883325 
L 418.628131 -501.883325 
L 418.628131 -501.883325 
L 413.745292 -501.883325 
L 413.745292 -501.883325 
L 413.202754 -501.883325 
L 413.202754 -501.883325 
L 412.117679 -501.883325 
L 412.117679 -501.883325 
L 408.862453 -501.883325 
L 408.862453 -511.351796 
L 405.064689 -511.351796 
L 405.064689 -520.0146 
L 398.554237 -520.0146 
L 398.554237 -520.0146 
L 394.213936 -520.0146 
L 394.213936 -520.0146 
L 393.12886 -520.0146 
L 393.12886 -527.405622 
L 383.90572 -527.405622 
L 383.90572 -527.405622 
L 380.107956 -527.405622 
L 380.107956 -527.405622 
L 378.480343 -527.405622 
L 378.480343 -527.405622 
L 373.054966 -527.405622 
L 373.054966 -527.405622 
L 370.884816 -527.405622 
L 370.884816 -527.405622 
L 298.184767 -527.405622 
L 298.184767 -527.405622 
L 295.472079 -527.405622 
L 295.472079 -527.405622 
L 291.674315 -527.405622 
L 291.674315 -527.405622 
L 286.248938 -527.405622 
L 286.248938 -527.405622 
L 283.53625 -527.405622 
L 283.53625 -527.405622 
L 279.195948 -527.405622 
L 279.195948 -527.405622 
L 271.600421 -527.405622 
L 271.600421 -527.405622 
L 271.057883 -527.405622 
L 271.057883 -527.405622 
L 267.802657 -527.405622 
L 267.802657 -532.774494 
L 256.951904 -532.774494 
L 256.951904 -537.769228 
L 249.898914 -537.769228 
L 249.898914 -537.769228 
L 249.356376 -537.769228 
L 249.356376 -537.769228 
L 246.10115 -537.769228 
L 246.10115 -537.769228 
L 245.016075 -537.769228 
L 245.016075 -537.769228 
L 243.930999 -537.769228 
L 243.930999 -537.769228 
L 242.303386 -537.769228 
L 242.303386 -537.769228 
L 241.760849 -537.769228 
L 241.760849 -537.769228 
L 241.218311 -537.769228 
L 241.218311 -541.86064 
L 236.87801 -541.86064 
L 236.87801 -541.86064 
L 232.537708 -541.86064 
L 232.537708 -541.86064 
L 230.910095 -541.86064 
L 230.910095 -541.86064 
L 228.739944 -541.86064 
L 228.739944 -541.86064 
L 228.197407 -541.86064 
L 228.197407 -545.464109 
L 221.144417 -545.464109 
L 221.144417 -545.464109 
L 219.516804 -545.464109 
L 219.516804 -545.464109 
L 214.633965 -545.464109 
L 214.633965 -545.464109 
L 214.091427 -545.464109 
L 214.091427 -548.568681 
L 213.548889 -548.568681 
L 213.548889 -548.568681 
L 212.463814 -548.568681 
L 212.463814 -548.568681 
L 207.580975 -548.568681 
L 207.580975 -548.568681 
L 205.953362 -548.568681 
L 205.953362 -548.568681 
L 204.868287 -548.568681 
L 204.868287 -548.568681 
L 204.325749 -548.568681 
L 204.325749 -551.080536 
L 201.070523 -551.080536 
L 201.070523 -551.080536 
L 199.985448 -551.080536 
L 199.985448 -551.080536 
L 198.357835 -551.080536 
L 198.357835 -551.080536 
L 196.730221 -551.080536 
L 196.730221 -552.902511 
L 184.794393 -552.902511 
L 184.794393 -552.902511 
L 183.709317 -552.902511 
L 183.709317 -552.902511 
L 183.16678 -552.902511 
L 183.16678 -552.902511 
L 182.624242 -552.902511 
L 182.624242 -552.902511 
L 182.081704 -552.902511 
L 182.081704 -552.902511 
L 178.283941 -552.902511 
L 178.283941 -552.902511 
L 177.198865 -552.902511 
L 177.198865 -552.902511 
L 173.943639 -552.902511 
L 173.943639 -552.902511 
L 172.316026 -552.902511 
L 172.316026 -552.902511 
L 170.145875 -552.902511 
L 170.145875 -552.902511 
L 169.603338 -552.902511 
L 169.603338 -552.902511 
L 165.263036 -552.902511 
L 165.263036 -552.902511 
L 157.124971 -552.902511 
L 157.124971 -553.545227 
L 130.540625 -553.545227 
z
" id="m20675beed4" style="stroke:#008000;stroke-opacity:0.25;"/>
    </defs>
    <g clip-path="url(#pca6733a73a)">
     <use style="fill:#008000;fill-opacity:0.25;stroke:#008000;stroke-opacity:0.25;" x="0" xlink:href="#m20675beed4" y="603.1775"/>
    </g>
   </g>
   <g id="matplotlib.axis_1">
    <g id="xtick_1">
     <g id="line2d_1">
      <defs>
       <path d="M 0 0 
L 0 3.5 
" id="m13bdf94e89" style="stroke:#000000;stroke-width:0.8;"/>
      </defs>
      <g>
       <use style="stroke:#000000;stroke-width:0.8;" x="130.540625" xlink:href="#m13bdf94e89" y="464.745"/>
      </g>
     </g>
     <g id="text_1">
      <!-- 0 -->
      <defs>
       <path d="M 3.609375 32.71875 
Q 3.609375 44.046875 7.03125 52.21875 
Q 10.453125 60.40625 16.109375 64.40625 
Q 20.515625 67.578125 25.203125 67.578125 
Q 32.8125 67.578125 38.875 59.8125 
Q 46.4375 50.203125 46.4375 33.734375 
Q 46.4375 22.21875 43.109375 14.15625 
Q 39.796875 6.109375 34.640625 2.46875 
Q 29.5 -1.171875 24.703125 -1.171875 
Q 15.234375 -1.171875 8.9375 10.015625 
Q 3.609375 19.4375 3.609375 32.71875 
z
M 13.1875 31.5 
Q 13.1875 17.828125 16.546875 9.1875 
Q 19.34375 1.90625 24.859375 1.90625 
Q 27.484375 1.90625 30.3125 4.265625 
Q 33.15625 6.640625 34.625 12.203125 
Q 36.859375 20.609375 36.859375 35.890625 
Q 36.859375 47.21875 34.515625 54.78125 
Q 32.765625 60.40625 29.984375 62.75 
Q 27.984375 64.359375 25.140625 64.359375 
Q 21.828125 64.359375 19.234375 61.375 
Q 15.71875 57.328125 14.453125 48.625 
Q 13.1875 39.9375 13.1875 31.5 
z
" id="TimesNewRomanPSMT-48"/>
      </defs>
      <g transform="translate(125.540625 485.6325)scale(0.2 -0.2)">
       <use xlink:href="#TimesNewRomanPSMT-48"/>
      </g>
     </g>
    </g>
    <g id="xtick_2">
     <g id="line2d_2">
      <g>
       <use style="stroke:#000000;stroke-width:0.8;" x="239.04816" xlink:href="#m13bdf94e89" y="464.745"/>
      </g>
     </g>
     <g id="text_2">
      <!-- 20 -->
      <defs>
       <path d="M 45.84375 12.75 
L 41.21875 0 
L 2.15625 0 
L 2.15625 1.8125 
Q 19.390625 17.53125 26.421875 27.484375 
Q 33.453125 37.453125 33.453125 45.703125 
Q 33.453125 52 29.59375 56.046875 
Q 25.734375 60.109375 20.359375 60.109375 
Q 15.484375 60.109375 11.59375 57.25 
Q 7.71875 54.390625 5.859375 48.875 
L 4.046875 48.875 
Q 5.28125 57.90625 10.328125 62.734375 
Q 15.375 67.578125 22.953125 67.578125 
Q 31 67.578125 36.390625 62.40625 
Q 41.796875 57.234375 41.796875 50.203125 
Q 41.796875 45.171875 39.453125 40.140625 
Q 35.84375 32.234375 27.734375 23.390625 
Q 15.578125 10.109375 12.546875 7.375 
L 29.828125 7.375 
Q 35.109375 7.375 37.234375 7.765625 
Q 39.359375 8.15625 41.0625 9.34375 
Q 42.78125 10.546875 44.046875 12.75 
z
" id="TimesNewRomanPSMT-50"/>
      </defs>
      <g transform="translate(229.04816 485.6325)scale(0.2 -0.2)">
       <use xlink:href="#TimesNewRomanPSMT-50"/>
       <use x="50" xlink:href="#TimesNewRomanPSMT-48"/>
      </g>
     </g>
    </g>
    <g id="xtick_3">
     <g id="line2d_3">
      <g>
       <use style="stroke:#000000;stroke-width:0.8;" x="347.555695" xlink:href="#m13bdf94e89" y="464.745"/>
      </g>
     </g>
     <g id="text_3">
      <!-- 40 -->
      <defs>
       <path d="M 46.53125 24.421875 
L 46.53125 17.484375 
L 37.640625 17.484375 
L 37.640625 0 
L 29.59375 0 
L 29.59375 17.484375 
L 1.5625 17.484375 
L 1.5625 23.734375 
L 32.28125 67.578125 
L 37.640625 67.578125 
L 37.640625 24.421875 
z
M 29.59375 24.421875 
L 29.59375 57.28125 
L 6.34375 24.421875 
z
" id="TimesNewRomanPSMT-52"/>
      </defs>
      <g transform="translate(337.555695 485.6325)scale(0.2 -0.2)">
       <use xlink:href="#TimesNewRomanPSMT-52"/>
       <use x="50" xlink:href="#TimesNewRomanPSMT-48"/>
      </g>
     </g>
    </g>
    <g id="xtick_4">
     <g id="line2d_4">
      <g>
       <use style="stroke:#000000;stroke-width:0.8;" x="456.063231" xlink:href="#m13bdf94e89" y="464.745"/>
      </g>
     </g>
     <g id="text_4">
      <!-- 60 -->
      <defs>
       <path d="M 44.828125 67.578125 
L 44.828125 65.765625 
Q 38.375 65.140625 34.296875 63.203125 
Q 30.21875 61.28125 26.234375 57.328125 
Q 22.265625 53.375 19.65625 48.515625 
Q 17.046875 43.65625 15.28125 36.96875 
Q 22.3125 41.796875 29.390625 41.796875 
Q 36.1875 41.796875 41.15625 36.328125 
Q 46.140625 30.859375 46.140625 22.265625 
Q 46.140625 13.96875 41.109375 7.125 
Q 35.0625 -1.171875 25.09375 -1.171875 
Q 18.3125 -1.171875 13.578125 3.328125 
Q 4.296875 12.0625 4.296875 25.984375 
Q 4.296875 34.859375 7.859375 42.859375 
Q 11.421875 50.875 18.03125 57.078125 
Q 24.65625 63.28125 30.703125 65.421875 
Q 36.765625 67.578125 42 67.578125 
z
M 14.453125 33.40625 
Q 13.578125 26.8125 13.578125 22.75 
Q 13.578125 18.0625 15.3125 12.5625 
Q 17.046875 7.078125 20.453125 3.859375 
Q 22.953125 1.5625 26.515625 1.5625 
Q 30.765625 1.5625 34.109375 5.5625 
Q 37.453125 9.578125 37.453125 17 
Q 37.453125 25.34375 34.125 31.4375 
Q 30.8125 37.546875 24.703125 37.546875 
Q 22.859375 37.546875 20.734375 36.765625 
Q 18.609375 35.984375 14.453125 33.40625 
z
" id="TimesNewRomanPSMT-54"/>
      </defs>
      <g transform="translate(446.063231 485.6325)scale(0.2 -0.2)">
       <use xlink:href="#TimesNewRomanPSMT-54"/>
       <use x="50" xlink:href="#TimesNewRomanPSMT-48"/>
      </g>
     </g>
    </g>
    <g id="xtick_5">
     <g id="line2d_5">
      <g>
       <use style="stroke:#000000;stroke-width:0.8;" x="564.570766" xlink:href="#m13bdf94e89" y="464.745"/>
      </g>
     </g>
     <g id="text_5">
      <!-- 80 -->
      <defs>
       <path d="M 19.1875 33.34375 
Q 11.328125 39.796875 9.046875 43.703125 
Q 6.78125 47.609375 6.78125 51.8125 
Q 6.78125 58.25 11.765625 62.90625 
Q 16.75 67.578125 25 67.578125 
Q 33.015625 67.578125 37.890625 63.234375 
Q 42.78125 58.890625 42.78125 53.328125 
Q 42.78125 49.609375 40.140625 45.75 
Q 37.5 41.890625 29.15625 36.671875 
Q 37.75 30.03125 40.53125 26.21875 
Q 44.234375 21.234375 44.234375 15.71875 
Q 44.234375 8.734375 38.90625 3.78125 
Q 33.59375 -1.171875 24.953125 -1.171875 
Q 15.53125 -1.171875 10.25 4.734375 
Q 6.0625 9.46875 6.0625 15.09375 
Q 6.0625 19.484375 9.015625 23.796875 
Q 11.96875 28.125 19.1875 33.34375 
z
M 26.859375 38.578125 
Q 32.71875 43.84375 34.28125 46.890625 
Q 35.84375 49.953125 35.84375 53.8125 
Q 35.84375 58.9375 32.953125 61.84375 
Q 30.078125 64.75 25.09375 64.75 
Q 20.125 64.75 17 61.859375 
Q 13.875 58.984375 13.875 55.125 
Q 13.875 52.59375 15.15625 50.046875 
Q 16.453125 47.515625 18.84375 45.21875 
z
M 21.484375 31.5 
Q 17.4375 28.078125 15.484375 24.046875 
Q 13.53125 20.015625 13.53125 15.328125 
Q 13.53125 9.03125 16.96875 5.25 
Q 20.40625 1.46875 25.734375 1.46875 
Q 31 1.46875 34.171875 4.4375 
Q 37.359375 7.421875 37.359375 11.671875 
Q 37.359375 15.1875 35.5 17.96875 
Q 32.03125 23.140625 21.484375 31.5 
z
" id="TimesNewRomanPSMT-56"/>
      </defs>
      <g transform="translate(554.570766 485.6325)scale(0.2 -0.2)">
       <use xlink:href="#TimesNewRomanPSMT-56"/>
       <use x="50" xlink:href="#TimesNewRomanPSMT-48"/>
      </g>
     </g>
    </g>
    <g id="text_6">
     <!-- Time(months) -->
     <defs>
      <path d="M 57.859375 66.21875 
L 58.59375 50.6875 
L 56.734375 50.6875 
Q 56.203125 54.78125 55.28125 56.546875 
Q 53.765625 59.375 51.25 60.71875 
Q 48.734375 62.0625 44.625 62.0625 
L 35.296875 62.0625 
L 35.296875 11.46875 
Q 35.296875 5.375 36.625 3.859375 
Q 38.484375 1.8125 42.328125 1.8125 
L 44.625 1.8125 
L 44.625 0 
L 16.546875 0 
L 16.546875 1.8125 
L 18.890625 1.8125 
Q 23.09375 1.8125 24.859375 4.34375 
Q 25.921875 5.90625 25.921875 11.46875 
L 25.921875 62.0625 
L 17.96875 62.0625 
Q 13.328125 62.0625 11.375 61.375 
Q 8.84375 60.453125 7.03125 57.8125 
Q 5.21875 55.171875 4.890625 50.6875 
L 3.03125 50.6875 
L 3.8125 66.21875 
z
" id="TimesNewRomanPSMT-84"/>
      <path d="M 14.5 69.4375 
Q 16.546875 69.4375 17.984375 67.984375 
Q 19.4375 66.546875 19.4375 64.5 
Q 19.4375 62.453125 17.984375 60.984375 
Q 16.546875 59.515625 14.5 59.515625 
Q 12.453125 59.515625 10.984375 60.984375 
Q 9.515625 62.453125 9.515625 64.5 
Q 9.515625 66.546875 10.953125 67.984375 
Q 12.40625 69.4375 14.5 69.4375 
z
M 18.5625 46.046875 
L 18.5625 10.109375 
Q 18.5625 5.90625 19.171875 4.515625 
Q 19.78125 3.125 20.96875 2.4375 
Q 22.171875 1.765625 25.34375 1.765625 
L 25.34375 0 
L 3.609375 0 
L 3.609375 1.765625 
Q 6.890625 1.765625 8 2.390625 
Q 9.125 3.03125 9.78125 4.484375 
Q 10.453125 5.953125 10.453125 10.109375 
L 10.453125 27.34375 
Q 10.453125 34.625 10.015625 36.765625 
Q 9.671875 38.328125 8.9375 38.9375 
Q 8.203125 39.546875 6.9375 39.546875 
Q 5.5625 39.546875 3.609375 38.8125 
L 2.9375 40.578125 
L 16.40625 46.046875 
z
" id="TimesNewRomanPSMT-105"/>
      <path d="M 16.40625 36.53125 
Q 21.296875 41.40625 22.171875 42.140625 
Q 24.359375 44 26.890625 45.015625 
Q 29.4375 46.046875 31.9375 46.046875 
Q 36.140625 46.046875 39.15625 43.59375 
Q 42.1875 41.15625 43.21875 36.53125 
Q 48.25 42.390625 51.703125 44.21875 
Q 55.171875 46.046875 58.84375 46.046875 
Q 62.40625 46.046875 65.15625 44.21875 
Q 67.921875 42.390625 69.53125 38.234375 
Q 70.609375 35.40625 70.609375 29.34375 
L 70.609375 10.109375 
Q 70.609375 5.90625 71.234375 4.34375 
Q 71.734375 3.265625 73.046875 2.515625 
Q 74.359375 1.765625 77.34375 1.765625 
L 77.34375 0 
L 55.28125 0 
L 55.28125 1.765625 
L 56.203125 1.765625 
Q 59.078125 1.765625 60.6875 2.875 
Q 61.8125 3.65625 62.3125 5.375 
Q 62.5 6.203125 62.5 10.109375 
L 62.5 29.34375 
Q 62.5 34.8125 61.1875 37.0625 
Q 59.28125 40.1875 55.078125 40.1875 
Q 52.484375 40.1875 49.875 38.890625 
Q 47.265625 37.59375 43.5625 34.078125 
L 43.453125 33.546875 
L 43.5625 31.453125 
L 43.5625 10.109375 
Q 43.5625 5.515625 44.0625 4.390625 
Q 44.578125 3.265625 45.984375 2.515625 
Q 47.40625 1.765625 50.828125 1.765625 
L 50.828125 0 
L 28.21875 0 
L 28.21875 1.765625 
Q 31.9375 1.765625 33.328125 2.640625 
Q 34.71875 3.515625 35.25 5.28125 
Q 35.5 6.109375 35.5 10.109375 
L 35.5 29.34375 
Q 35.5 34.8125 33.890625 37.203125 
Q 31.734375 40.328125 27.875 40.328125 
Q 25.25 40.328125 22.65625 38.921875 
Q 18.609375 36.765625 16.40625 34.078125 
L 16.40625 10.109375 
Q 16.40625 5.71875 17.015625 4.390625 
Q 17.625 3.078125 18.8125 2.421875 
Q 20.015625 1.765625 23.6875 1.765625 
L 23.6875 0 
L 1.5625 0 
L 1.5625 1.765625 
Q 4.640625 1.765625 5.859375 2.421875 
Q 7.078125 3.078125 7.703125 4.515625 
Q 8.34375 5.953125 8.34375 10.109375 
L 8.34375 27.203125 
Q 8.34375 34.578125 7.90625 36.71875 
Q 7.5625 38.328125 6.828125 38.9375 
Q 6.109375 39.546875 4.828125 39.546875 
Q 3.46875 39.546875 1.5625 38.8125 
L 0.828125 40.578125 
L 14.3125 46.046875 
L 16.40625 46.046875 
z
" id="TimesNewRomanPSMT-109"/>
      <path d="M 10.640625 27.875 
Q 10.59375 17.921875 15.484375 12.25 
Q 20.359375 6.59375 26.953125 6.59375 
Q 31.34375 6.59375 34.59375 9 
Q 37.84375 11.421875 40.046875 17.28125 
L 41.546875 16.3125 
Q 40.53125 9.625 35.59375 4.125 
Q 30.671875 -1.375 23.25 -1.375 
Q 15.1875 -1.375 9.453125 4.90625 
Q 3.71875 11.1875 3.71875 21.78125 
Q 3.71875 33.25 9.59375 39.671875 
Q 15.484375 46.09375 24.359375 46.09375 
Q 31.890625 46.09375 36.71875 41.140625 
Q 41.546875 36.1875 41.546875 27.875 
z
M 10.640625 30.71875 
L 31.34375 30.71875 
Q 31.109375 35.015625 30.328125 36.765625 
Q 29.109375 39.5 26.6875 41.0625 
Q 24.265625 42.625 21.625 42.625 
Q 17.578125 42.625 14.375 39.46875 
Q 11.1875 36.328125 10.640625 30.71875 
z
" id="TimesNewRomanPSMT-101"/>
      <path d="M 31.0625 -19.578125 
L 31.0625 -21.390625 
Q 23.6875 -17.671875 18.75 -12.703125 
Q 11.71875 -5.609375 7.90625 4 
Q 4.109375 13.625 4.109375 23.96875 
Q 4.109375 39.109375 11.578125 51.578125 
Q 19.046875 64.0625 31.0625 69.4375 
L 31.0625 67.390625 
Q 25.046875 64.0625 21.1875 58.296875 
Q 17.328125 52.546875 15.421875 43.703125 
Q 13.53125 34.859375 13.53125 25.25 
Q 13.53125 14.796875 15.140625 6.25 
Q 16.40625 -0.484375 18.203125 -4.5625 
Q 20.015625 -8.640625 23.0625 -12.390625 
Q 26.125 -16.15625 31.0625 -19.578125 
z
" id="TimesNewRomanPSMT-40"/>
      <path d="M 25 46.046875 
Q 35.15625 46.046875 41.3125 38.328125 
Q 46.53125 31.734375 46.53125 23.1875 
Q 46.53125 17.1875 43.640625 11.03125 
Q 40.765625 4.890625 35.71875 1.75 
Q 30.671875 -1.375 24.46875 -1.375 
Q 14.359375 -1.375 8.40625 6.6875 
Q 3.375 13.484375 3.375 21.921875 
Q 3.375 28.078125 6.421875 34.15625 
Q 9.46875 40.234375 14.453125 43.140625 
Q 19.4375 46.046875 25 46.046875 
z
M 23.484375 42.875 
Q 20.90625 42.875 18.28125 41.328125 
Q 15.671875 39.796875 14.0625 35.9375 
Q 12.453125 32.078125 12.453125 26.03125 
Q 12.453125 16.265625 16.328125 9.171875 
Q 20.21875 2.09375 26.5625 2.09375 
Q 31.296875 2.09375 34.375 6 
Q 37.453125 9.90625 37.453125 19.4375 
Q 37.453125 31.34375 32.328125 38.1875 
Q 28.859375 42.875 23.484375 42.875 
z
" id="TimesNewRomanPSMT-111"/>
      <path d="M 16.15625 36.578125 
Q 24.03125 46.046875 31.15625 46.046875 
Q 34.8125 46.046875 37.453125 44.21875 
Q 40.09375 42.390625 41.65625 38.1875 
Q 42.71875 35.25 42.71875 29.203125 
L 42.71875 10.109375 
Q 42.71875 5.859375 43.40625 4.34375 
Q 43.953125 3.125 45.140625 2.4375 
Q 46.34375 1.765625 49.5625 1.765625 
L 49.5625 0 
L 27.4375 0 
L 27.4375 1.765625 
L 28.375 1.765625 
Q 31.5 1.765625 32.734375 2.703125 
Q 33.984375 3.65625 34.46875 5.515625 
Q 34.671875 6.25 34.671875 10.109375 
L 34.671875 28.421875 
Q 34.671875 34.515625 33.078125 37.28125 
Q 31.5 40.046875 27.734375 40.046875 
Q 21.921875 40.046875 16.15625 33.6875 
L 16.15625 10.109375 
Q 16.15625 5.5625 16.703125 4.5 
Q 17.390625 3.078125 18.578125 2.421875 
Q 19.78125 1.765625 23.4375 1.765625 
L 23.4375 0 
L 1.3125 0 
L 1.3125 1.765625 
L 2.296875 1.765625 
Q 5.71875 1.765625 6.90625 3.484375 
Q 8.109375 5.21875 8.109375 10.109375 
L 8.109375 26.703125 
Q 8.109375 34.765625 7.734375 36.515625 
Q 7.375 38.28125 6.609375 38.90625 
Q 5.859375 39.546875 4.59375 39.546875 
Q 3.21875 39.546875 1.3125 38.8125 
L 0.59375 40.578125 
L 14.0625 46.046875 
L 16.15625 46.046875 
z
" id="TimesNewRomanPSMT-110"/>
      <path d="M 16.109375 59.421875 
L 16.109375 44.734375 
L 26.5625 44.734375 
L 26.5625 41.3125 
L 16.109375 41.3125 
L 16.109375 12.3125 
Q 16.109375 7.953125 17.359375 6.4375 
Q 18.609375 4.9375 20.5625 4.9375 
Q 22.171875 4.9375 23.6875 5.9375 
Q 25.203125 6.9375 26.03125 8.890625 
L 27.9375 8.890625 
Q 26.21875 4.109375 23.09375 1.6875 
Q 19.96875 -0.734375 16.65625 -0.734375 
Q 14.40625 -0.734375 12.25 0.515625 
Q 10.109375 1.765625 9.078125 4.078125 
Q 8.0625 6.390625 8.0625 11.234375 
L 8.0625 41.3125 
L 0.984375 41.3125 
L 0.984375 42.921875 
Q 3.65625 44 6.46875 46.5625 
Q 9.28125 49.125 11.46875 52.640625 
Q 12.59375 54.5 14.59375 59.421875 
z
" id="TimesNewRomanPSMT-116"/>
      <path d="M 16.265625 69.4375 
L 16.265625 36.71875 
Q 21.6875 42.671875 24.859375 44.359375 
Q 28.03125 46.046875 31.203125 46.046875 
Q 35.015625 46.046875 37.75 43.9375 
Q 40.484375 41.84375 41.796875 37.359375 
Q 42.71875 34.234375 42.71875 25.921875 
L 42.71875 10.109375 
Q 42.71875 5.859375 43.40625 4.296875 
Q 43.890625 3.125 45.0625 2.4375 
Q 46.234375 1.765625 49.359375 1.765625 
L 49.359375 0 
L 27.390625 0 
L 27.390625 1.765625 
L 28.421875 1.765625 
Q 31.546875 1.765625 32.765625 2.703125 
Q 33.984375 3.65625 34.46875 5.515625 
Q 34.625 6.296875 34.625 10.109375 
L 34.625 25.921875 
Q 34.625 33.25 33.859375 35.546875 
Q 33.109375 37.84375 31.4375 38.984375 
Q 29.78125 40.140625 27.4375 40.140625 
Q 25.046875 40.140625 22.453125 38.859375 
Q 19.875 37.59375 16.265625 33.734375 
L 16.265625 10.109375 
Q 16.265625 5.515625 16.765625 4.390625 
Q 17.28125 3.265625 18.671875 2.515625 
Q 20.0625 1.765625 23.484375 1.765625 
L 23.484375 0 
L 1.3125 0 
L 1.3125 1.765625 
Q 4.296875 1.765625 6 2.6875 
Q 6.984375 3.171875 7.5625 4.53125 
Q 8.15625 5.90625 8.15625 10.109375 
L 8.15625 50.59375 
Q 8.15625 58.25 7.78125 60 
Q 7.421875 61.765625 6.65625 62.390625 
Q 5.90625 63.03125 4.640625 63.03125 
Q 3.609375 63.03125 1.3125 62.25 
L 0.640625 63.96875 
L 14.015625 69.4375 
z
" id="TimesNewRomanPSMT-104"/>
      <path d="M 32.03125 46.046875 
L 32.03125 30.8125 
L 30.421875 30.8125 
Q 28.5625 37.984375 25.65625 40.578125 
Q 22.75 43.171875 18.265625 43.171875 
Q 14.84375 43.171875 12.734375 41.359375 
Q 10.640625 39.546875 10.640625 37.359375 
Q 10.640625 34.625 12.203125 32.671875 
Q 13.71875 30.671875 18.359375 28.421875 
L 25.484375 24.953125 
Q 35.40625 20.125 35.40625 12.203125 
Q 35.40625 6.109375 30.78125 2.359375 
Q 26.171875 -1.375 20.453125 -1.375 
Q 16.359375 -1.375 11.078125 0.09375 
Q 9.46875 0.59375 8.453125 0.59375 
Q 7.328125 0.59375 6.6875 -0.6875 
L 5.078125 -0.6875 
L 5.078125 15.28125 
L 6.6875 15.28125 
Q 8.0625 8.453125 11.90625 4.984375 
Q 15.765625 1.515625 20.5625 1.515625 
Q 23.921875 1.515625 26.046875 3.484375 
Q 28.171875 5.46875 28.171875 8.25 
Q 28.171875 11.625 25.796875 13.921875 
Q 23.4375 16.21875 16.359375 19.734375 
Q 9.28125 23.25 7.078125 26.078125 
Q 4.890625 28.859375 4.890625 33.109375 
Q 4.890625 38.625 8.671875 42.328125 
Q 12.453125 46.046875 18.453125 46.046875 
Q 21.09375 46.046875 24.859375 44.921875 
Q 27.34375 44.1875 28.171875 44.1875 
Q 28.953125 44.1875 29.390625 44.53125 
Q 29.828125 44.875 30.421875 46.046875 
z
" id="TimesNewRomanPSMT-115"/>
      <path d="M 2.25 67.390625 
L 2.25 69.4375 
Q 9.671875 65.765625 14.59375 60.796875 
Q 21.578125 53.65625 25.390625 44.0625 
Q 29.203125 34.46875 29.203125 24.078125 
Q 29.203125 8.9375 21.75 -3.53125 
Q 14.3125 -16.015625 2.25 -21.390625 
L 2.25 -19.578125 
Q 8.25 -16.21875 12.125 -10.46875 
Q 16.015625 -4.734375 17.890625 4.125 
Q 19.78125 12.984375 19.78125 22.609375 
Q 19.78125 33.015625 18.171875 41.609375 
Q 16.9375 48.34375 15.109375 52.390625 
Q 13.28125 56.453125 10.25 60.203125 
Q 7.234375 63.96875 2.25 67.390625 
z
" id="TimesNewRomanPSMT-41"/>
     </defs>
     <g transform="translate(327.316051 507.798125)scale(0.2 -0.2)">
      <use xlink:href="#TimesNewRomanPSMT-84"/>
      <use x="57.583984" xlink:href="#TimesNewRomanPSMT-105"/>
      <use x="85.367188" xlink:href="#TimesNewRomanPSMT-109"/>
      <use x="163.150391" xlink:href="#TimesNewRomanPSMT-101"/>
      <use x="207.535156" xlink:href="#TimesNewRomanPSMT-40"/>
      <use x="240.835938" xlink:href="#TimesNewRomanPSMT-109"/>
      <use x="318.619141" xlink:href="#TimesNewRomanPSMT-111"/>
      <use x="368.619141" xlink:href="#TimesNewRomanPSMT-110"/>
      <use x="418.619141" xlink:href="#TimesNewRomanPSMT-116"/>
      <use x="446.402344" xlink:href="#TimesNewRomanPSMT-104"/>
      <use x="496.402344" xlink:href="#TimesNewRomanPSMT-115"/>
      <use x="535.318359" xlink:href="#TimesNewRomanPSMT-41"/>
     </g>
    </g>
   </g>
   <g id="matplotlib.axis_2">
    <g id="ytick_1">
     <g id="line2d_6">
      <defs>
       <path d="M 0 0 
L -3.5 0 
" id="m837cfca879" style="stroke:#000000;stroke-width:0.8;"/>
      </defs>
      <g>
       <use style="stroke:#000000;stroke-width:0.8;" x="105.176989" xlink:href="#m837cfca879" y="449.188928"/>
      </g>
     </g>
     <g id="text_7">
      <!-- 0.0 -->
      <defs>
       <path d="M 12.5 9.46875 
Q 14.796875 9.46875 16.359375 7.875 
Q 17.921875 6.296875 17.921875 4.046875 
Q 17.921875 1.8125 16.328125 0.21875 
Q 14.75 -1.375 12.5 -1.375 
Q 10.25 -1.375 8.65625 0.21875 
Q 7.078125 1.8125 7.078125 4.046875 
Q 7.078125 6.34375 8.65625 7.90625 
Q 10.25 9.46875 12.5 9.46875 
z
" id="TimesNewRomanPSMT-46"/>
      </defs>
      <g transform="translate(73.176989 456.132678)scale(0.2 -0.2)">
       <use xlink:href="#TimesNewRomanPSMT-48"/>
       <use x="50" xlink:href="#TimesNewRomanPSMT-46"/>
       <use x="75" xlink:href="#TimesNewRomanPSMT-48"/>
      </g>
     </g>
    </g>
    <g id="ytick_2">
     <g id="line2d_7">
      <g>
       <use style="stroke:#000000;stroke-width:0.8;" x="105.176989" xlink:href="#m837cfca879" y="369.277597"/>
      </g>
     </g>
     <g id="text_8">
      <!-- 0.2 -->
      <g transform="translate(73.176989 376.221347)scale(0.2 -0.2)">
       <use xlink:href="#TimesNewRomanPSMT-48"/>
       <use x="50" xlink:href="#TimesNewRomanPSMT-46"/>
       <use x="75" xlink:href="#TimesNewRomanPSMT-50"/>
      </g>
     </g>
    </g>
    <g id="ytick_3">
     <g id="line2d_8">
      <g>
       <use style="stroke:#000000;stroke-width:0.8;" x="105.176989" xlink:href="#m837cfca879" y="289.366266"/>
      </g>
     </g>
     <g id="text_9">
      <!-- 0.4 -->
      <g transform="translate(73.176989 296.310016)scale(0.2 -0.2)">
       <use xlink:href="#TimesNewRomanPSMT-48"/>
       <use x="50" xlink:href="#TimesNewRomanPSMT-46"/>
       <use x="75" xlink:href="#TimesNewRomanPSMT-52"/>
      </g>
     </g>
    </g>
    <g id="ytick_4">
     <g id="line2d_9">
      <g>
       <use style="stroke:#000000;stroke-width:0.8;" x="105.176989" xlink:href="#m837cfca879" y="209.454935"/>
      </g>
     </g>
     <g id="text_10">
      <!-- 0.6 -->
      <g transform="translate(73.176989 216.398685)scale(0.2 -0.2)">
       <use xlink:href="#TimesNewRomanPSMT-48"/>
       <use x="50" xlink:href="#TimesNewRomanPSMT-46"/>
       <use x="75" xlink:href="#TimesNewRomanPSMT-54"/>
      </g>
     </g>
    </g>
    <g id="ytick_5">
     <g id="line2d_10">
      <g>
       <use style="stroke:#000000;stroke-width:0.8;" x="105.176989" xlink:href="#m837cfca879" y="129.543604"/>
      </g>
     </g>
     <g id="text_11">
      <!-- 0.8 -->
      <g transform="translate(73.176989 136.487354)scale(0.2 -0.2)">
       <use xlink:href="#TimesNewRomanPSMT-48"/>
       <use x="50" xlink:href="#TimesNewRomanPSMT-46"/>
       <use x="75" xlink:href="#TimesNewRomanPSMT-56"/>
      </g>
     </g>
    </g>
    <g id="ytick_6">
     <g id="line2d_11">
      <g>
       <use style="stroke:#000000;stroke-width:0.8;" x="105.176989" xlink:href="#m837cfca879" y="49.632273"/>
      </g>
     </g>
     <g id="text_12">
      <!-- 1.0 -->
      <defs>
       <path d="M 11.71875 59.71875 
L 27.828125 67.578125 
L 29.4375 67.578125 
L 29.4375 11.671875 
Q 29.4375 6.109375 29.90625 4.734375 
Q 30.375 3.375 31.828125 2.640625 
Q 33.296875 1.90625 37.796875 1.8125 
L 37.796875 0 
L 12.890625 0 
L 12.890625 1.8125 
Q 17.578125 1.90625 18.9375 2.609375 
Q 20.3125 3.328125 20.84375 4.515625 
Q 21.390625 5.71875 21.390625 11.671875 
L 21.390625 47.40625 
Q 21.390625 54.640625 20.90625 56.6875 
Q 20.5625 58.25 19.65625 58.984375 
Q 18.75 59.71875 17.484375 59.71875 
Q 15.671875 59.71875 12.453125 58.203125 
z
" id="TimesNewRomanPSMT-49"/>
      </defs>
      <g transform="translate(73.176989 56.576023)scale(0.2 -0.2)">
       <use xlink:href="#TimesNewRomanPSMT-49"/>
       <use x="50" xlink:href="#TimesNewRomanPSMT-46"/>
       <use x="75" xlink:href="#TimesNewRomanPSMT-48"/>
      </g>
     </g>
    </g>
    <g id="text_13">
     <!-- Probability -->
     <defs>
      <path d="M 20.515625 31 
L 20.515625 11.71875 
Q 20.515625 5.46875 21.875 3.953125 
Q 23.734375 1.8125 27.484375 1.8125 
L 30.03125 1.8125 
L 30.03125 0 
L 1.65625 0 
L 1.65625 1.8125 
L 4.15625 1.8125 
Q 8.34375 1.8125 10.15625 4.546875 
Q 11.140625 6.0625 11.140625 11.71875 
L 11.140625 54.5 
Q 11.140625 60.75 9.8125 62.25 
Q 7.90625 64.40625 4.15625 64.40625 
L 1.65625 64.40625 
L 1.65625 66.21875 
L 25.921875 66.21875 
Q 34.8125 66.21875 39.9375 64.375 
Q 45.0625 62.546875 48.578125 58.203125 
Q 52.09375 53.859375 52.09375 47.90625 
Q 52.09375 39.796875 46.75 34.71875 
Q 41.40625 29.640625 31.640625 29.640625 
Q 29.25 29.640625 26.46875 29.984375 
Q 23.6875 30.328125 20.515625 31 
z
M 20.515625 33.796875 
Q 23.09375 33.296875 25.09375 33.046875 
Q 27.09375 32.8125 28.515625 32.8125 
Q 33.59375 32.8125 37.28125 36.734375 
Q 40.96875 40.671875 40.96875 46.921875 
Q 40.96875 51.21875 39.203125 54.90625 
Q 37.453125 58.59375 34.21875 60.421875 
Q 31 62.25 26.90625 62.25 
Q 24.421875 62.25 20.515625 61.328125 
z
" id="TimesNewRomanPSMT-80"/>
      <path d="M 16.21875 46.046875 
L 16.21875 35.984375 
Q 21.828125 46.046875 27.734375 46.046875 
Q 30.421875 46.046875 32.171875 44.40625 
Q 33.9375 42.78125 33.9375 40.625 
Q 33.9375 38.71875 32.65625 37.390625 
Q 31.390625 36.078125 29.640625 36.078125 
Q 27.9375 36.078125 25.8125 37.765625 
Q 23.6875 39.453125 22.65625 39.453125 
Q 21.78125 39.453125 20.75 38.484375 
Q 18.5625 36.46875 16.21875 31.890625 
L 16.21875 10.453125 
Q 16.21875 6.734375 17.140625 4.828125 
Q 17.78125 3.515625 19.390625 2.640625 
Q 21 1.765625 24.03125 1.765625 
L 24.03125 0 
L 1.125 0 
L 1.125 1.765625 
Q 4.546875 1.765625 6.203125 2.828125 
Q 7.421875 3.609375 7.90625 5.328125 
Q 8.15625 6.15625 8.15625 10.0625 
L 8.15625 27.390625 
Q 8.15625 35.203125 7.828125 36.6875 
Q 7.515625 38.1875 6.65625 38.859375 
Q 5.8125 39.546875 4.546875 39.546875 
Q 3.03125 39.546875 1.125 38.8125 
L 0.640625 40.578125 
L 14.15625 46.046875 
z
" id="TimesNewRomanPSMT-114"/>
      <path d="M 15.375 37.015625 
Q 21.875 46.046875 29.390625 46.046875 
Q 36.28125 46.046875 41.40625 40.15625 
Q 46.53125 34.28125 46.53125 24.078125 
Q 46.53125 12.15625 38.625 4.890625 
Q 31.84375 -1.375 23.484375 -1.375 
Q 19.578125 -1.375 15.546875 0.046875 
Q 11.53125 1.46875 7.328125 4.296875 
L 7.328125 50.640625 
Q 7.328125 58.25 6.953125 60 
Q 6.59375 61.765625 5.8125 62.390625 
Q 5.03125 63.03125 3.859375 63.03125 
Q 2.484375 63.03125 0.4375 62.25 
L -0.25 63.96875 
L 13.1875 69.4375 
L 15.375 69.4375 
z
M 15.375 33.890625 
L 15.375 7.125 
Q 17.875 4.6875 20.53125 3.4375 
Q 23.1875 2.203125 25.984375 2.203125 
Q 30.421875 2.203125 34.25 7.078125 
Q 38.09375 11.96875 38.09375 21.296875 
Q 38.09375 29.890625 34.25 34.5 
Q 30.421875 39.109375 25.53125 39.109375 
Q 22.953125 39.109375 20.359375 37.796875 
Q 18.40625 36.8125 15.375 33.890625 
z
" id="TimesNewRomanPSMT-98"/>
      <path d="M 28.46875 6.453125 
Q 21.578125 1.125 19.828125 0.296875 
Q 17.1875 -0.921875 14.203125 -0.921875 
Q 9.578125 -0.921875 6.5625 2.25 
Q 3.5625 5.421875 3.5625 10.59375 
Q 3.5625 13.875 5.03125 16.265625 
Q 7.03125 19.578125 11.984375 22.5 
Q 16.9375 25.4375 28.46875 29.640625 
L 28.46875 31.390625 
Q 28.46875 38.09375 26.34375 40.578125 
Q 24.21875 43.0625 20.171875 43.0625 
Q 17.09375 43.0625 15.28125 41.40625 
Q 13.421875 39.75 13.421875 37.59375 
L 13.53125 34.765625 
Q 13.53125 32.515625 12.375 31.296875 
Q 11.234375 30.078125 9.375 30.078125 
Q 7.5625 30.078125 6.421875 31.34375 
Q 5.28125 32.625 5.28125 34.8125 
Q 5.28125 39.015625 9.578125 42.53125 
Q 13.875 46.046875 21.625 46.046875 
Q 27.59375 46.046875 31.390625 44.046875 
Q 34.28125 42.53125 35.640625 39.3125 
Q 36.53125 37.203125 36.53125 30.71875 
L 36.53125 15.53125 
Q 36.53125 9.125 36.765625 7.6875 
Q 37.015625 6.25 37.578125 5.765625 
Q 38.140625 5.28125 38.875 5.28125 
Q 39.65625 5.28125 40.234375 5.609375 
Q 41.265625 6.25 44.1875 9.1875 
L 44.1875 6.453125 
Q 38.71875 -0.875 33.734375 -0.875 
Q 31.34375 -0.875 29.921875 0.78125 
Q 28.515625 2.4375 28.46875 6.453125 
z
M 28.46875 9.625 
L 28.46875 26.65625 
Q 21.09375 23.734375 18.953125 22.515625 
Q 15.09375 20.359375 13.421875 18.015625 
Q 11.765625 15.671875 11.765625 12.890625 
Q 11.765625 9.375 13.859375 7.046875 
Q 15.96875 4.734375 18.703125 4.734375 
Q 22.40625 4.734375 28.46875 9.625 
z
" id="TimesNewRomanPSMT-97"/>
      <path d="M 18.5 69.4375 
L 18.5 10.109375 
Q 18.5 5.90625 19.109375 4.53125 
Q 19.734375 3.171875 21 2.46875 
Q 22.265625 1.765625 25.734375 1.765625 
L 25.734375 0 
L 3.8125 0 
L 3.8125 1.765625 
Q 6.890625 1.765625 8 2.390625 
Q 9.125 3.03125 9.765625 4.484375 
Q 10.40625 5.953125 10.40625 10.109375 
L 10.40625 50.734375 
Q 10.40625 58.296875 10.0625 60.03125 
Q 9.71875 61.765625 8.953125 62.390625 
Q 8.203125 63.03125 7.03125 63.03125 
Q 5.765625 63.03125 3.8125 62.25 
L 2.984375 63.96875 
L 16.3125 69.4375 
z
" id="TimesNewRomanPSMT-108"/>
      <path d="M 0.59375 44.734375 
L 21.4375 44.734375 
L 21.4375 42.921875 
L 20.40625 42.921875 
Q 18.21875 42.921875 17.109375 41.96875 
Q 16.015625 41.015625 16.015625 39.59375 
Q 16.015625 37.703125 17.625 34.328125 
L 28.515625 11.765625 
L 38.53125 36.46875 
Q 39.359375 38.484375 39.359375 40.4375 
Q 39.359375 41.3125 39.015625 41.75 
Q 38.625 42.28125 37.796875 42.59375 
Q 36.96875 42.921875 34.859375 42.921875 
L 34.859375 44.734375 
L 49.421875 44.734375 
L 49.421875 42.921875 
Q 47.609375 42.71875 46.625 42.125 
Q 45.65625 41.546875 44.484375 39.9375 
Q 44.046875 39.265625 42.828125 36.1875 
L 24.609375 -8.453125 
Q 21.96875 -14.9375 17.6875 -18.25 
Q 13.421875 -21.578125 9.46875 -21.578125 
Q 6.59375 -21.578125 4.734375 -19.921875 
Q 2.875 -18.265625 2.875 -16.109375 
Q 2.875 -14.0625 4.21875 -12.8125 
Q 5.5625 -11.578125 7.90625 -11.578125 
Q 9.515625 -11.578125 12.3125 -12.640625 
Q 14.265625 -13.375 14.75 -13.375 
Q 16.21875 -13.375 17.9375 -11.859375 
Q 19.671875 -10.359375 21.4375 -6 
L 24.609375 1.765625 
L 8.546875 35.5 
Q 7.8125 37.015625 6.203125 39.265625 
Q 4.984375 40.96875 4.203125 41.546875 
Q 3.078125 42.328125 0.59375 42.921875 
z
" id="TimesNewRomanPSMT-121"/>
     </defs>
     <g transform="translate(64.861364 291.747187)rotate(-90)scale(0.2 -0.2)">
      <use xlink:href="#TimesNewRomanPSMT-80"/>
      <use x="55.615234" xlink:href="#TimesNewRomanPSMT-114"/>
      <use x="88.916016" xlink:href="#TimesNewRomanPSMT-111"/>
      <use x="138.916016" xlink:href="#TimesNewRomanPSMT-98"/>
      <use x="188.916016" xlink:href="#TimesNewRomanPSMT-97"/>
      <use x="233.300781" xlink:href="#TimesNewRomanPSMT-98"/>
      <use x="283.300781" xlink:href="#TimesNewRomanPSMT-105"/>
      <use x="311.083984" xlink:href="#TimesNewRomanPSMT-108"/>
      <use x="338.867188" xlink:href="#TimesNewRomanPSMT-105"/>
      <use x="366.650391" xlink:href="#TimesNewRomanPSMT-116"/>
      <use x="394.433594" xlink:href="#TimesNewRomanPSMT-121"/>
     </g>
    </g>
   </g>
   <g id="line2d_12">
    <path clip-path="url(#pca6733a73a)" d="M 130.540625 49.632273 
L 131.6257 49.632273 
L 131.6257 54.82132 
L 141.391379 54.82132 
L 141.391379 65.199415 
L 144.646605 65.199415 
L 144.646605 70.388463 
L 148.444368 70.388463 
L 148.444368 75.57751 
L 149.529444 75.57751 
L 149.529444 80.766558 
L 152.78467 80.766558 
L 152.78467 85.955605 
L 153.327207 85.955605 
L 153.327207 91.144653 
L 153.869745 91.144653 
L 153.869745 96.3337 
L 157.667509 96.3337 
L 157.667509 106.711795 
L 159.83766 106.711795 
L 159.83766 111.900842 
L 161.465273 111.900842 
L 161.465273 117.08989 
L 162.550348 117.08989 
L 162.550348 122.278937 
L 164.720499 122.278937 
L 164.720499 127.467985 
L 165.805574 127.467985 
L 165.805574 132.657032 
L 166.890649 132.657032 
L 166.890649 137.84608 
L 169.603338 137.84608 
L 169.603338 143.035127 
L 172.858564 143.035127 
L 172.858564 148.224175 
L 173.401101 148.224175 
L 173.401101 158.60227 
L 173.943639 158.60227 
L 173.943639 163.885663 
L 176.11379 163.885663 
L 176.11379 169.169057 
L 178.283941 169.169057 
L 178.283941 179.735845 
L 183.709317 179.735845 
L 183.709317 185.019239 
L 191.304845 185.019239 
L 191.304845 190.410457 
L 192.38992 190.410457 
L 192.38992 195.801675 
L 195.102608 195.801675 
L 195.102608 201.310093 
L 201.613061 201.310093 
L 201.613061 206.943703 
L 206.4959 206.943703 
L 206.4959 212.577313 
L 207.038437 212.577313 
L 207.038437 218.210923 
L 214.633965 218.210923 
L 214.633965 223.985373 
L 217.346653 223.985373 
L 217.346653 229.759823 
L 218.974266 229.759823 
L 218.974266 235.534273 
L 226.027256 235.534273 
L 226.027256 241.469125 
L 232.537708 241.469125 
L 232.537708 247.960369 
L 238.505623 247.960369 
L 238.505623 254.451613 
L 239.590698 254.451613 
L 239.590698 260.942857 
L 240.133236 260.942857 
L 240.133236 267.4341 
L 240.675773 267.4341 
L 240.675773 273.925344 
L 242.303386 273.925344 
L 242.303386 280.416588 
L 247.728763 280.416588 
L 247.728763 293.399076 
L 256.409366 293.399076 
L 256.409366 300.172548 
L 258.036979 300.172548 
L 258.036979 306.946019 
L 282.451174 306.946019 
L 282.451174 315.313249 
L 287.876551 315.313249 
L 287.876551 323.680479 
L 290.046702 323.680479 
L 290.046702 332.047709 
L 292.216853 332.047709 
L 292.216853 341.058572 
L 355.693761 341.058572 
L 355.693761 351.871608 
L 394.756473 351.871608 
L 394.756473 364.036273 
L 417.543056 364.036273 
L 417.543056 378.228382 
L 458.775919 378.228382 
L 458.775919 413.708655 
L 532.561043 413.708655 
L 532.561043 413.708655 
" style="fill:none;stroke:#ff0000;stroke-linecap:square;stroke-width:1.5;"/>
   </g>
   <g id="line2d_13">
    <path clip-path="url(#pca6733a73a)" d="M 130.540625 49.632273 
L 157.124971 49.632273 
L 157.124971 54.172689 
L 196.730221 54.172689 
L 196.730221 59.439572 
L 204.325749 59.439572 
L 204.325749 64.929 
L 214.091427 64.929 
L 214.091427 70.933061 
L 228.197407 70.933061 
L 228.197407 77.344178 
L 241.218311 77.344178 
L 241.218311 84.230192 
L 256.951904 84.230192 
L 256.951904 92.717604 
L 267.802657 92.717604 
L 267.802657 101.205017 
L 393.12886 101.205017 
L 393.12886 114.589013 
L 405.064689 114.589013 
L 405.064689 129.136836 
L 408.862453 129.136836 
L 408.862453 143.684658 
L 444.66994 143.684658 
L 444.66994 164.051609 
L 525.508053 164.051609 
L 525.508053 195.733534 
L 637.813352 195.733534 
L 637.813352 195.733534 
" style="fill:none;stroke:#008000;stroke-linecap:square;stroke-width:1.5;"/>
   </g>
   <g id="patch_3">
    <path d="M 105.176989 464.745 
L 105.176989 29.865 
" style="fill:none;stroke:#000000;stroke-linecap:square;stroke-linejoin:miter;stroke-width:0.8;"/>
   </g>
   <g id="patch_4">
    <path d="M 663.176989 464.745 
L 663.176989 29.865 
" style="fill:none;stroke:#000000;stroke-linecap:square;stroke-linejoin:miter;stroke-width:0.8;"/>
   </g>
   <g id="patch_5">
    <path d="M 105.176989 464.745 
L 663.176989 464.745 
" style="fill:none;stroke:#000000;stroke-linecap:square;stroke-linejoin:miter;stroke-width:0.8;"/>
   </g>
   <g id="patch_6">
    <path d="M 105.176989 29.865 
L 663.176989 29.865 
" style="fill:none;stroke:#000000;stroke-linecap:square;stroke-linejoin:miter;stroke-width:0.8;"/>
   </g>
   <g id="text_14">
    <!-- P&lt;0.001 -->
    <defs>
     <path d="M 1.8125 34.46875 
L 54.34375 57.234375 
L 54.34375 52.984375 
L 9.125 33.34375 
L 54.34375 13.53125 
L 54.34375 9.125 
L 1.8125 32.078125 
z
" id="TimesNewRomanPSMT-60"/>
    </defs>
    <g transform="translate(133.253313 249.4106)scale(0.2 -0.2)">
     <use xlink:href="#TimesNewRomanPSMT-80"/>
     <use x="55.615234" xlink:href="#TimesNewRomanPSMT-60"/>
     <use x="112.011719" xlink:href="#TimesNewRomanPSMT-48"/>
     <use x="162.011719" xlink:href="#TimesNewRomanPSMT-46"/>
     <use x="187.011719" xlink:href="#TimesNewRomanPSMT-48"/>
     <use x="237.011719" xlink:href="#TimesNewRomanPSMT-48"/>
     <use x="287.011719" xlink:href="#TimesNewRomanPSMT-49"/>
    </g>
   </g>
   <g id="text_15">
    <!-- PFS Cohort External A -->
    <defs>
     <path d="M 20.453125 62.59375 
L 20.453125 36.578125 
L 32.515625 36.578125 
Q 36.671875 36.578125 38.59375 38.40625 
Q 40.53125 40.234375 41.15625 45.65625 
L 42.96875 45.65625 
L 42.96875 23.25 
L 41.15625 23.25 
Q 41.109375 27.09375 40.15625 28.90625 
Q 39.203125 30.71875 37.515625 31.609375 
Q 35.84375 32.515625 32.515625 32.515625 
L 20.453125 32.515625 
L 20.453125 11.71875 
Q 20.453125 6.6875 21.09375 5.078125 
Q 21.578125 3.859375 23.140625 2.984375 
Q 25.296875 1.8125 27.640625 1.8125 
L 30.03125 1.8125 
L 30.03125 0 
L 1.609375 0 
L 1.609375 1.8125 
L 3.953125 1.8125 
Q 8.0625 1.8125 9.90625 4.203125 
Q 11.078125 5.765625 11.078125 11.71875 
L 11.078125 54.5 
Q 11.078125 59.515625 10.453125 61.140625 
Q 9.96875 62.359375 8.453125 63.234375 
Q 6.34375 64.40625 3.953125 64.40625 
L 1.609375 64.40625 
L 1.609375 66.21875 
L 50.875 66.21875 
L 51.515625 51.65625 
L 49.8125 51.65625 
Q 48.53125 56.296875 46.84375 58.46875 
Q 45.171875 60.640625 42.703125 61.609375 
Q 40.234375 62.59375 35.0625 62.59375 
z
" id="TimesNewRomanPSMT-70"/>
     <path d="M 45.84375 67.71875 
L 45.84375 44.828125 
L 44.046875 44.828125 
Q 43.171875 51.421875 40.890625 55.328125 
Q 38.625 59.234375 34.421875 61.515625 
Q 30.21875 63.8125 25.734375 63.8125 
Q 20.65625 63.8125 17.328125 60.71875 
Q 14.015625 57.625 14.015625 53.65625 
Q 14.015625 50.640625 16.109375 48.140625 
Q 19.140625 44.484375 30.515625 38.375 
Q 39.796875 33.40625 43.1875 30.734375 
Q 46.578125 28.078125 48.40625 24.453125 
Q 50.25 20.84375 50.25 16.890625 
Q 50.25 9.375 44.40625 3.921875 
Q 38.578125 -1.515625 29.390625 -1.515625 
Q 26.515625 -1.515625 23.96875 -1.078125 
Q 22.46875 -0.828125 17.703125 0.703125 
Q 12.9375 2.25 11.671875 2.25 
Q 10.453125 2.25 9.734375 1.515625 
Q 9.03125 0.78125 8.6875 -1.515625 
L 6.890625 -1.515625 
L 6.890625 21.1875 
L 8.6875 21.1875 
Q 9.96875 14.0625 12.109375 10.515625 
Q 14.265625 6.984375 18.671875 4.640625 
Q 23.09375 2.296875 28.375 2.296875 
Q 34.46875 2.296875 38 5.515625 
Q 41.546875 8.734375 41.546875 13.140625 
Q 41.546875 15.578125 40.203125 18.0625 
Q 38.875 20.5625 36.03125 22.703125 
Q 34.125 24.171875 25.625 28.921875 
Q 17.140625 33.6875 13.546875 36.515625 
Q 9.96875 39.359375 8.109375 42.765625 
Q 6.25 46.1875 6.25 50.296875 
Q 6.25 57.421875 11.71875 62.5625 
Q 17.1875 67.71875 25.640625 67.71875 
Q 30.90625 67.71875 36.8125 65.140625 
Q 39.546875 63.921875 40.671875 63.921875 
Q 41.9375 63.921875 42.75 64.671875 
Q 43.5625 65.4375 44.046875 67.71875 
z
" id="TimesNewRomanPSMT-83"/>
     <path id="TimesNewRomanPSMT-32"/>
     <path d="M 60.203125 67.71875 
L 61.71875 45.21875 
L 60.203125 45.21875 
Q 57.171875 55.328125 51.5625 59.765625 
Q 45.953125 64.203125 38.09375 64.203125 
Q 31.5 64.203125 26.171875 60.859375 
Q 20.84375 57.515625 17.796875 50.1875 
Q 14.75 42.875 14.75 31.984375 
Q 14.75 23 17.625 16.40625 
Q 20.515625 9.8125 26.296875 6.296875 
Q 32.078125 2.78125 39.5 2.78125 
Q 45.953125 2.78125 50.875 5.53125 
Q 55.8125 8.296875 61.71875 16.5 
L 63.234375 15.53125 
Q 58.25 6.6875 51.609375 2.578125 
Q 44.96875 -1.515625 35.84375 -1.515625 
Q 19.390625 -1.515625 10.359375 10.6875 
Q 3.609375 19.78125 3.609375 32.078125 
Q 3.609375 42 8.046875 50.296875 
Q 12.5 58.59375 20.28125 63.15625 
Q 28.078125 67.71875 37.3125 67.71875 
Q 44.484375 67.71875 51.46875 64.203125 
Q 53.515625 63.140625 54.390625 63.140625 
Q 55.71875 63.140625 56.6875 64.0625 
Q 57.953125 65.375 58.5 67.71875 
z
" id="TimesNewRomanPSMT-67"/>
     <path d="M 20.90625 62.59375 
L 20.90625 36.421875 
L 35.453125 36.421875 
Q 41.109375 36.421875 43.015625 38.140625 
Q 45.5625 40.375 45.84375 46.046875 
L 47.65625 46.046875 
L 47.65625 23 
L 45.84375 23 
Q 45.171875 27.828125 44.484375 29.203125 
Q 43.609375 30.90625 41.59375 31.875 
Q 39.59375 32.859375 35.453125 32.859375 
L 20.90625 32.859375 
L 20.90625 11.03125 
Q 20.90625 6.640625 21.296875 5.6875 
Q 21.6875 4.734375 22.65625 4.171875 
Q 23.640625 3.609375 26.375 3.609375 
L 37.59375 3.609375 
Q 43.21875 3.609375 45.75 4.390625 
Q 48.296875 5.171875 50.640625 7.46875 
Q 53.65625 10.5 56.84375 16.609375 
L 58.796875 16.609375 
L 53.078125 0 
L 2.046875 0 
L 2.046875 1.8125 
L 4.390625 1.8125 
Q 6.734375 1.8125 8.84375 2.9375 
Q 10.40625 3.71875 10.96875 5.28125 
Q 11.53125 6.84375 11.53125 11.671875 
L 11.53125 54.6875 
Q 11.53125 60.984375 10.25 62.453125 
Q 8.5 64.40625 4.390625 64.40625 
L 2.046875 64.40625 
L 2.046875 66.21875 
L 53.078125 66.21875 
L 53.8125 51.703125 
L 51.90625 51.703125 
Q 50.875 56.9375 49.625 58.890625 
Q 48.390625 60.84375 45.953125 61.859375 
Q 44 62.59375 39.0625 62.59375 
z
" id="TimesNewRomanPSMT-69"/>
     <path d="M 1.3125 44.734375 
L 22.359375 44.734375 
L 22.359375 42.921875 
Q 20.359375 42.921875 19.546875 42.234375 
Q 18.75 41.546875 18.75 40.4375 
Q 18.75 39.265625 20.453125 36.8125 
Q 21 36.03125 22.078125 34.375 
L 25.25 29.296875 
L 28.90625 34.375 
Q 32.421875 39.203125 32.421875 40.484375 
Q 32.421875 41.5 31.59375 42.203125 
Q 30.765625 42.921875 28.90625 42.921875 
L 28.90625 44.734375 
L 44.046875 44.734375 
L 44.046875 42.921875 
Q 41.65625 42.78125 39.890625 41.609375 
Q 37.5 39.9375 33.34375 34.375 
L 27.25 26.21875 
L 38.375 10.203125 
Q 42.484375 4.296875 44.234375 3.09375 
Q 46 1.90625 48.78125 1.765625 
L 48.78125 0 
L 27.6875 0 
L 27.6875 1.765625 
Q 29.890625 1.765625 31.109375 2.734375 
Q 32.03125 3.421875 32.03125 4.546875 
Q 32.03125 5.671875 28.90625 10.203125 
L 22.359375 19.78125 
L 15.1875 10.203125 
Q 11.859375 5.765625 11.859375 4.9375 
Q 11.859375 3.765625 12.953125 2.8125 
Q 14.0625 1.859375 16.265625 1.765625 
L 16.265625 0 
L 1.65625 0 
L 1.65625 1.765625 
Q 3.421875 2 4.734375 2.984375 
Q 6.59375 4.390625 10.984375 10.203125 
L 20.359375 22.65625 
L 11.859375 34.96875 
Q 8.25 40.234375 6.265625 41.578125 
Q 4.296875 42.921875 1.3125 42.921875 
z
" id="TimesNewRomanPSMT-120"/>
     <path d="M 45.75 22.171875 
L 20.125 22.171875 
L 15.625 11.71875 
Q 13.96875 7.859375 13.96875 5.953125 
Q 13.96875 4.4375 15.40625 3.296875 
Q 16.84375 2.15625 21.625 1.8125 
L 21.625 0 
L 0.78125 0 
L 0.78125 1.8125 
Q 4.9375 2.546875 6.15625 3.71875 
Q 8.640625 6.0625 11.671875 13.234375 
L 34.96875 67.71875 
L 36.671875 67.71875 
L 59.71875 12.640625 
Q 62.5 6 64.765625 4.015625 
Q 67.046875 2.046875 71.09375 1.8125 
L 71.09375 0 
L 44.96875 0 
L 44.96875 1.8125 
Q 48.921875 2 50.3125 3.125 
Q 51.703125 4.25 51.703125 5.859375 
Q 51.703125 8.015625 49.75 12.640625 
z
M 44.390625 25.78125 
L 33.15625 52.546875 
L 21.625 25.78125 
z
" id="TimesNewRomanPSMT-65"/>
    </defs>
    <g transform="translate(273.171364 23.865)scale(0.24 -0.24)">
     <use xlink:href="#TimesNewRomanPSMT-80"/>
     <use x="55.615234" xlink:href="#TimesNewRomanPSMT-70"/>
     <use x="111.230469" xlink:href="#TimesNewRomanPSMT-83"/>
     <use x="166.845703" xlink:href="#TimesNewRomanPSMT-32"/>
     <use x="191.845703" xlink:href="#TimesNewRomanPSMT-67"/>
     <use x="258.544922" xlink:href="#TimesNewRomanPSMT-111"/>
     <use x="308.544922" xlink:href="#TimesNewRomanPSMT-104"/>
     <use x="358.544922" xlink:href="#TimesNewRomanPSMT-111"/>
     <use x="408.544922" xlink:href="#TimesNewRomanPSMT-114"/>
     <use x="441.845703" xlink:href="#TimesNewRomanPSMT-116"/>
     <use x="469.628906" xlink:href="#TimesNewRomanPSMT-32"/>
     <use x="494.628906" xlink:href="#TimesNewRomanPSMT-69"/>
     <use x="555.712891" xlink:href="#TimesNewRomanPSMT-120"/>
     <use x="605.712891" xlink:href="#TimesNewRomanPSMT-116"/>
     <use x="633.496094" xlink:href="#TimesNewRomanPSMT-101"/>
     <use x="677.880859" xlink:href="#TimesNewRomanPSMT-114"/>
     <use x="711.181641" xlink:href="#TimesNewRomanPSMT-110"/>
     <use x="761.181641" xlink:href="#TimesNewRomanPSMT-97"/>
     <use x="805.566406" xlink:href="#TimesNewRomanPSMT-108"/>
     <use x="833.349609" xlink:href="#TimesNewRomanPSMT-32"/>
     <use x="852.849609" xlink:href="#TimesNewRomanPSMT-65"/>
    </g>
   </g>
   <g id="legend_1">
    <g id="patch_7">
     <path d="M 119.176989 454.745 
L 264.858239 454.745 
Q 268.858239 454.745 268.858239 450.745 
L 268.858239 396.15125 
Q 268.858239 392.15125 264.858239 392.15125 
L 119.176989 392.15125 
Q 115.176989 392.15125 115.176989 396.15125 
L 115.176989 450.745 
Q 115.176989 454.745 119.176989 454.745 
z
" style="fill:#ffffff;opacity:0.8;stroke:#cccccc;stroke-linejoin:miter;"/>
    </g>
    <g id="line2d_14">
     <path d="M 123.176989 407.15125 
L 163.176989 407.15125 
" style="fill:none;stroke:#ff0000;stroke-linecap:square;stroke-width:1.5;"/>
    </g>
    <g id="line2d_15"/>
    <g id="text_16">
     <!-- High Risk -->
     <defs>
      <path d="M 20.5625 35.5 
L 51.3125 35.5 
L 51.3125 54.4375 
Q 51.3125 59.515625 50.6875 61.140625 
Q 50.203125 62.359375 48.640625 63.234375 
Q 46.53125 64.40625 44.1875 64.40625 
L 41.84375 64.40625 
L 41.84375 66.21875 
L 70.171875 66.21875 
L 70.171875 64.40625 
L 67.828125 64.40625 
Q 65.484375 64.40625 63.375 63.28125 
Q 61.8125 62.5 61.25 60.90625 
Q 60.6875 59.328125 60.6875 54.4375 
L 60.6875 11.71875 
Q 60.6875 6.6875 61.328125 5.078125 
Q 61.8125 3.859375 63.328125 2.984375 
Q 65.484375 1.8125 67.828125 1.8125 
L 70.171875 1.8125 
L 70.171875 0 
L 41.84375 0 
L 41.84375 1.8125 
L 44.1875 1.8125 
Q 48.25 1.8125 50.09375 4.203125 
Q 51.3125 5.765625 51.3125 11.71875 
L 51.3125 31.890625 
L 20.5625 31.890625 
L 20.5625 11.71875 
Q 20.5625 6.6875 21.1875 5.078125 
Q 21.6875 3.859375 23.25 2.984375 
Q 25.34375 1.8125 27.6875 1.8125 
L 30.078125 1.8125 
L 30.078125 0 
L 1.703125 0 
L 1.703125 1.8125 
L 4.046875 1.8125 
Q 8.15625 1.8125 10.015625 4.203125 
Q 11.1875 5.765625 11.1875 11.71875 
L 11.1875 54.4375 
Q 11.1875 59.515625 10.546875 61.140625 
Q 10.0625 62.359375 8.546875 63.234375 
Q 6.390625 64.40625 4.046875 64.40625 
L 1.703125 64.40625 
L 1.703125 66.21875 
L 30.078125 66.21875 
L 30.078125 64.40625 
L 27.6875 64.40625 
Q 25.34375 64.40625 23.25 63.28125 
Q 21.734375 62.5 21.140625 60.90625 
Q 20.5625 59.328125 20.5625 54.4375 
z
" id="TimesNewRomanPSMT-72"/>
      <path d="M 15.09375 16.3125 
Q 10.984375 18.3125 8.78125 21.890625 
Q 6.59375 25.484375 6.59375 29.828125 
Q 6.59375 36.46875 11.59375 41.25 
Q 16.609375 46.046875 24.421875 46.046875 
Q 30.8125 46.046875 35.5 42.921875 
L 44.96875 42.921875 
Q 47.078125 42.921875 47.40625 42.796875 
Q 47.75 42.671875 47.90625 42.390625 
Q 48.1875 41.9375 48.1875 40.828125 
Q 48.1875 39.546875 47.953125 39.0625 
Q 47.796875 38.8125 47.4375 38.671875 
Q 47.078125 38.53125 44.96875 38.53125 
L 39.15625 38.53125 
Q 41.890625 35.015625 41.890625 29.546875 
Q 41.890625 23.296875 37.109375 18.84375 
Q 32.328125 14.40625 24.265625 14.40625 
Q 20.953125 14.40625 17.484375 15.375 
Q 15.328125 13.53125 14.5625 12.140625 
Q 13.8125 10.75 13.8125 9.765625 
Q 13.8125 8.9375 14.625 8.15625 
Q 15.4375 7.375 17.78125 7.03125 
Q 19.140625 6.84375 24.609375 6.6875 
Q 34.671875 6.453125 37.640625 6 
Q 42.1875 5.375 44.890625 2.640625 
Q 47.609375 -0.09375 47.609375 -4.109375 
Q 47.609375 -9.625 42.4375 -14.453125 
Q 34.8125 -21.578125 22.5625 -21.578125 
Q 13.140625 -21.578125 6.640625 -17.328125 
Q 2.984375 -14.890625 2.984375 -12.25 
Q 2.984375 -11.078125 3.515625 -9.90625 
Q 4.34375 -8.109375 6.9375 -4.890625 
Q 7.28125 -4.4375 11.921875 0.390625 
Q 9.375 1.90625 8.328125 3.09375 
Q 7.28125 4.296875 7.28125 5.8125 
Q 7.28125 7.515625 8.671875 9.8125 
Q 10.0625 12.109375 15.09375 16.3125 
z
M 23.578125 43.703125 
Q 19.96875 43.703125 17.53125 40.8125 
Q 15.09375 37.9375 15.09375 31.984375 
Q 15.09375 24.265625 18.40625 20.015625 
Q 20.953125 16.796875 24.859375 16.796875 
Q 28.5625 16.796875 30.953125 19.578125 
Q 33.34375 22.359375 33.34375 28.328125 
Q 33.34375 36.078125 29.984375 40.484375 
Q 27.484375 43.703125 23.578125 43.703125 
z
M 14.59375 0 
Q 12.3125 -2.484375 11.140625 -4.625 
Q 9.96875 -6.78125 9.96875 -8.59375 
Q 9.96875 -10.9375 12.796875 -12.703125 
Q 17.671875 -15.71875 26.90625 -15.71875 
Q 35.6875 -15.71875 39.859375 -12.609375 
Q 44.046875 -9.515625 44.046875 -6 
Q 44.046875 -3.46875 41.546875 -2.390625 
Q 39.015625 -1.3125 31.5 -1.125 
Q 20.515625 -0.828125 14.59375 0 
z
" id="TimesNewRomanPSMT-103"/>
      <path d="M 67.578125 0 
L 49.90625 0 
L 27.484375 30.953125 
Q 25 30.859375 23.4375 30.859375 
Q 22.796875 30.859375 22.0625 30.875 
Q 21.34375 30.90625 20.5625 30.953125 
L 20.5625 11.71875 
Q 20.5625 5.46875 21.921875 3.953125 
Q 23.78125 1.8125 27.484375 1.8125 
L 30.078125 1.8125 
L 30.078125 0 
L 1.703125 0 
L 1.703125 1.8125 
L 4.203125 1.8125 
Q 8.40625 1.8125 10.203125 4.546875 
Q 11.234375 6.0625 11.234375 11.71875 
L 11.234375 54.5 
Q 11.234375 60.75 9.859375 62.25 
Q 7.953125 64.40625 4.203125 64.40625 
L 1.703125 64.40625 
L 1.703125 66.21875 
L 25.828125 66.21875 
Q 36.375 66.21875 41.375 64.671875 
Q 46.390625 63.140625 49.875 59.015625 
Q 53.375 54.890625 53.375 49.171875 
Q 53.375 43.0625 49.390625 38.5625 
Q 45.40625 34.078125 37.0625 32.234375 
L 50.734375 13.234375 
Q 55.421875 6.6875 58.78125 4.53125 
Q 62.15625 2.390625 67.578125 1.8125 
z
M 20.5625 34.03125 
Q 21.484375 34.03125 22.171875 34 
Q 22.859375 33.984375 23.296875 33.984375 
Q 32.765625 33.984375 37.578125 38.078125 
Q 42.390625 42.1875 42.390625 48.53125 
Q 42.390625 54.734375 38.5 58.609375 
Q 34.625 62.5 28.21875 62.5 
Q 25.390625 62.5 20.5625 61.578125 
z
" id="TimesNewRomanPSMT-82"/>
      <path d="M 16.359375 69.4375 
L 16.359375 24.953125 
L 27.734375 35.296875 
Q 31.34375 38.625 31.9375 39.5 
Q 32.328125 40.09375 32.328125 40.671875 
Q 32.328125 41.65625 31.515625 42.359375 
Q 30.71875 43.0625 28.859375 43.171875 
L 28.859375 44.734375 
L 48.296875 44.734375 
L 48.296875 43.171875 
Q 44.28125 43.0625 41.625 41.9375 
Q 38.96875 40.828125 35.796875 37.9375 
L 24.3125 27.34375 
L 35.796875 12.84375 
Q 40.578125 6.84375 42.234375 5.21875 
Q 44.578125 2.9375 46.34375 2.25 
Q 47.5625 1.765625 50.59375 1.765625 
L 50.59375 0 
L 28.859375 0 
L 28.859375 1.765625 
Q 30.71875 1.8125 31.375 2.3125 
Q 32.03125 2.828125 32.03125 3.765625 
Q 32.03125 4.890625 30.078125 7.375 
L 16.359375 24.90625 
L 16.359375 10.0625 
Q 16.359375 5.71875 16.96875 4.34375 
Q 17.578125 2.984375 18.703125 2.390625 
Q 19.828125 1.8125 23.578125 1.765625 
L 23.578125 0 
L 0.828125 0 
L 0.828125 1.765625 
Q 4.25 1.765625 5.953125 2.59375 
Q 6.984375 3.125 7.515625 4.25 
Q 8.25 5.859375 8.25 9.8125 
L 8.25 50.53125 
Q 8.25 58.296875 7.90625 60.03125 
Q 7.5625 61.765625 6.78125 62.421875 
Q 6 63.09375 4.734375 63.09375 
Q 3.71875 63.09375 1.65625 62.25 
L 0.828125 63.96875 
L 14.109375 69.4375 
z
" id="TimesNewRomanPSMT-107"/>
     </defs>
     <g transform="translate(179.176989 414.15125)scale(0.2 -0.2)">
      <use xlink:href="#TimesNewRomanPSMT-72"/>
      <use x="72.216797" xlink:href="#TimesNewRomanPSMT-105"/>
      <use x="100" xlink:href="#TimesNewRomanPSMT-103"/>
      <use x="150" xlink:href="#TimesNewRomanPSMT-104"/>
      <use x="200" xlink:href="#TimesNewRomanPSMT-32"/>
      <use x="225" xlink:href="#TimesNewRomanPSMT-82"/>
      <use x="291.699219" xlink:href="#TimesNewRomanPSMT-105"/>
      <use x="319.482422" xlink:href="#TimesNewRomanPSMT-115"/>
      <use x="358.398438" xlink:href="#TimesNewRomanPSMT-107"/>
     </g>
    </g>
    <g id="line2d_16">
     <path d="M 123.176989 435.466875 
L 163.176989 435.466875 
" style="fill:none;stroke:#008000;stroke-linecap:square;stroke-width:1.5;"/>
    </g>
    <g id="line2d_17"/>
    <g id="text_17">
     <!-- Low Risk -->
     <defs>
      <path d="M 57.328125 18.3125 
L 58.9375 17.96875 
L 53.265625 0 
L 2 0 
L 2 1.8125 
L 4.5 1.8125 
Q 8.6875 1.8125 10.5 4.546875 
Q 11.53125 6.109375 11.53125 11.765625 
L 11.53125 54.5 
Q 11.53125 60.6875 10.15625 62.25 
Q 8.25 64.40625 4.5 64.40625 
L 2 64.40625 
L 2 66.21875 
L 31.984375 66.21875 
L 31.984375 64.40625 
Q 26.703125 64.453125 24.578125 63.421875 
Q 22.46875 62.40625 21.6875 60.84375 
Q 20.90625 59.28125 20.90625 53.375 
L 20.90625 11.765625 
Q 20.90625 7.71875 21.6875 6.203125 
Q 22.265625 5.171875 23.484375 4.6875 
Q 24.703125 4.203125 31.109375 4.203125 
L 35.9375 4.203125 
Q 43.5625 4.203125 46.625 5.328125 
Q 49.703125 6.453125 52.234375 9.296875 
Q 54.78125 12.15625 57.328125 18.3125 
z
" id="TimesNewRomanPSMT-76"/>
      <path d="M 0.640625 44.734375 
L 19.390625 44.734375 
L 19.390625 42.921875 
Q 16.796875 42.71875 15.984375 41.984375 
Q 15.1875 41.265625 15.1875 39.890625 
Q 15.1875 38.375 16.015625 36.234375 
L 25.59375 10.5 
L 35.203125 31.453125 
L 32.671875 38.03125 
Q 31.5 40.96875 29.59375 42.09375 
Q 28.515625 42.78125 25.59375 42.921875 
L 25.59375 44.734375 
L 46.875 44.734375 
L 46.875 42.921875 
Q 43.359375 42.78125 41.890625 41.65625 
Q 40.921875 40.875 40.921875 39.15625 
Q 40.921875 38.1875 41.3125 37.15625 
L 51.46875 11.46875 
L 60.890625 36.234375 
Q 61.859375 38.875 61.859375 40.4375 
Q 61.859375 41.359375 60.90625 42.09375 
Q 59.96875 42.828125 57.171875 42.921875 
L 57.171875 44.734375 
L 71.296875 44.734375 
L 71.296875 42.921875 
Q 67.046875 42.28125 65.046875 37.15625 
L 50.09375 -1.375 
L 48.09375 -1.375 
L 36.921875 27.203125 
L 23.875 -1.375 
L 22.078125 -1.375 
L 7.71875 36.234375 
Q 6.296875 39.796875 4.921875 41.03125 
Q 3.5625 42.28125 0.640625 42.921875 
z
" id="TimesNewRomanPSMT-119"/>
     </defs>
     <g transform="translate(179.176989 442.466875)scale(0.2 -0.2)">
      <use xlink:href="#TimesNewRomanPSMT-76"/>
      <use x="61.083984" xlink:href="#TimesNewRomanPSMT-111"/>
      <use x="111.083984" xlink:href="#TimesNewRomanPSMT-119"/>
      <use x="183.300781" xlink:href="#TimesNewRomanPSMT-32"/>
      <use x="208.300781" xlink:href="#TimesNewRomanPSMT-82"/>
      <use x="275" xlink:href="#TimesNewRomanPSMT-105"/>
      <use x="302.783203" xlink:href="#TimesNewRomanPSMT-115"/>
      <use x="341.699219" xlink:href="#TimesNewRomanPSMT-107"/>
     </g>
    </g>
   </g>
  </g>
  <g id="axes_2">
   <g id="matplotlib.axis_3">
    <g id="xtick_6">
     <g id="text_18">
      <!-- At risk -->
      <g transform="translate(75.540625 528.8325)scale(0.2 -0.2)">
       <use xlink:href="#TimesNewRomanPSMT-65"/>
       <use x="72.216797" xlink:href="#TimesNewRomanPSMT-116"/>
       <use x="100" xlink:href="#TimesNewRomanPSMT-32"/>
       <use x="125" xlink:href="#TimesNewRomanPSMT-114"/>
       <use x="158.300781" xlink:href="#TimesNewRomanPSMT-105"/>
       <use x="186.083984" xlink:href="#TimesNewRomanPSMT-115"/>
       <use x="225" xlink:href="#TimesNewRomanPSMT-107"/>
      </g>
      <!--  High Risk   77 -->
      <defs>
       <path d="M 10.0625 66.21875 
L 45.5625 66.21875 
L 45.5625 64.359375 
L 23.484375 -1.375 
L 18.015625 -1.375 
L 37.796875 58.25 
L 19.578125 58.25 
Q 14.0625 58.25 11.71875 56.9375 
Q 7.625 54.6875 5.125 50 
L 3.71875 50.53125 
z
" id="TimesNewRomanPSMT-55"/>
      </defs>
      <g transform="translate(8.859375 549.775625)scale(0.2 -0.2)">
       <use xlink:href="#TimesNewRomanPSMT-32"/>
       <use x="25" xlink:href="#TimesNewRomanPSMT-72"/>
       <use x="97.216797" xlink:href="#TimesNewRomanPSMT-105"/>
       <use x="125" xlink:href="#TimesNewRomanPSMT-103"/>
       <use x="175" xlink:href="#TimesNewRomanPSMT-104"/>
       <use x="225" xlink:href="#TimesNewRomanPSMT-32"/>
       <use x="250" xlink:href="#TimesNewRomanPSMT-82"/>
       <use x="316.699219" xlink:href="#TimesNewRomanPSMT-105"/>
       <use x="344.482422" xlink:href="#TimesNewRomanPSMT-115"/>
       <use x="383.398438" xlink:href="#TimesNewRomanPSMT-107"/>
       <use x="433.398438" xlink:href="#TimesNewRomanPSMT-32"/>
       <use x="458.398438" xlink:href="#TimesNewRomanPSMT-32"/>
       <use x="483.398438" xlink:href="#TimesNewRomanPSMT-32"/>
       <use x="508.398438" xlink:href="#TimesNewRomanPSMT-55"/>
       <use x="558.398438" xlink:href="#TimesNewRomanPSMT-55"/>
      </g>
      <!--   Low Risk   88 -->
      <g transform="translate(7.2 570.75625)scale(0.2 -0.2)">
       <use xlink:href="#TimesNewRomanPSMT-32"/>
       <use x="25" xlink:href="#TimesNewRomanPSMT-32"/>
       <use x="50" xlink:href="#TimesNewRomanPSMT-76"/>
       <use x="111.083984" xlink:href="#TimesNewRomanPSMT-111"/>
       <use x="161.083984" xlink:href="#TimesNewRomanPSMT-119"/>
       <use x="233.300781" xlink:href="#TimesNewRomanPSMT-32"/>
       <use x="258.300781" xlink:href="#TimesNewRomanPSMT-82"/>
       <use x="325" xlink:href="#TimesNewRomanPSMT-105"/>
       <use x="352.783203" xlink:href="#TimesNewRomanPSMT-115"/>
       <use x="391.699219" xlink:href="#TimesNewRomanPSMT-107"/>
       <use x="441.699219" xlink:href="#TimesNewRomanPSMT-32"/>
       <use x="466.699219" xlink:href="#TimesNewRomanPSMT-32"/>
       <use x="491.699219" xlink:href="#TimesNewRomanPSMT-32"/>
       <use x="516.699219" xlink:href="#TimesNewRomanPSMT-56"/>
       <use x="566.699219" xlink:href="#TimesNewRomanPSMT-56"/>
      </g>
      <!--  -->
      <g transform="translate(130.540625 591.699375)scale(0.2 -0.2)"/>
     </g>
    </g>
    <g id="xtick_7">
     <g id="text_19">
      <!--  -->
      <g transform="translate(239.04816 528.8325)scale(0.2 -0.2)"/>
      <!-- 30 -->
      <defs>
       <path d="M 5.078125 53.609375 
Q 7.90625 60.296875 12.21875 63.9375 
Q 16.546875 67.578125 23 67.578125 
Q 30.953125 67.578125 35.203125 62.40625 
Q 38.421875 58.546875 38.421875 54.15625 
Q 38.421875 46.921875 29.34375 39.203125 
Q 35.453125 36.8125 38.578125 32.375 
Q 41.703125 27.9375 41.703125 21.921875 
Q 41.703125 13.328125 36.234375 7.03125 
Q 29.109375 -1.171875 15.578125 -1.171875 
Q 8.890625 -1.171875 6.46875 0.484375 
Q 4.046875 2.15625 4.046875 4.046875 
Q 4.046875 5.46875 5.1875 6.546875 
Q 6.34375 7.625 7.953125 7.625 
Q 9.1875 7.625 10.453125 7.234375 
Q 11.28125 6.984375 14.203125 5.4375 
Q 17.140625 3.90625 18.265625 3.609375 
Q 20.0625 3.078125 22.125 3.078125 
Q 27.09375 3.078125 30.78125 6.9375 
Q 34.46875 10.796875 34.46875 16.0625 
Q 34.46875 19.921875 32.765625 23.578125 
Q 31.5 26.3125 29.984375 27.734375 
Q 27.875 29.6875 24.21875 31.265625 
Q 20.5625 32.859375 16.75 32.859375 
L 15.1875 32.859375 
L 15.1875 34.328125 
Q 19.046875 34.8125 22.921875 37.109375 
Q 26.8125 39.40625 28.5625 42.625 
Q 30.328125 45.84375 30.328125 49.703125 
Q 30.328125 54.734375 27.171875 57.828125 
Q 24.03125 60.9375 19.34375 60.9375 
Q 11.765625 60.9375 6.6875 52.828125 
z
" id="TimesNewRomanPSMT-51"/>
      </defs>
      <g transform="translate(219.04816 549.775625)scale(0.2 -0.2)">
       <use xlink:href="#TimesNewRomanPSMT-51"/>
       <use x="50" xlink:href="#TimesNewRomanPSMT-48"/>
      </g>
      <!-- 54 -->
      <defs>
       <path d="M 43.40625 66.21875 
L 39.59375 57.90625 
L 19.671875 57.90625 
L 15.328125 49.03125 
Q 28.265625 47.125 35.84375 39.40625 
Q 42.328125 32.765625 42.328125 23.78125 
Q 42.328125 18.5625 40.203125 14.109375 
Q 38.09375 9.671875 34.859375 6.546875 
Q 31.640625 3.421875 27.6875 1.515625 
Q 22.078125 -1.171875 16.15625 -1.171875 
Q 10.203125 -1.171875 7.484375 0.84375 
Q 4.78125 2.875 4.78125 5.328125 
Q 4.78125 6.6875 5.90625 7.734375 
Q 7.03125 8.796875 8.734375 8.796875 
Q 10.015625 8.796875 10.96875 8.40625 
Q 11.921875 8.015625 14.203125 6.390625 
Q 17.875 3.859375 21.625 3.859375 
Q 27.34375 3.859375 31.65625 8.171875 
Q 35.984375 12.5 35.984375 18.703125 
Q 35.984375 24.703125 32.125 29.90625 
Q 28.265625 35.109375 21.484375 37.9375 
Q 16.15625 40.140625 6.984375 40.484375 
L 19.671875 66.21875 
z
" id="TimesNewRomanPSMT-53"/>
      </defs>
      <g transform="translate(219.04816 570.71875)scale(0.2 -0.2)">
       <use xlink:href="#TimesNewRomanPSMT-53"/>
       <use x="50" xlink:href="#TimesNewRomanPSMT-52"/>
      </g>
     </g>
    </g>
    <g id="xtick_8">
     <g id="text_20">
      <!--  -->
      <g transform="translate(347.555695 528.8325)scale(0.2 -0.2)"/>
      <!-- 10 -->
      <g transform="translate(327.555695 549.775625)scale(0.2 -0.2)">
       <use xlink:href="#TimesNewRomanPSMT-49"/>
       <use x="50" xlink:href="#TimesNewRomanPSMT-48"/>
      </g>
      <!-- 31 -->
      <g transform="translate(327.555695 570.71875)scale(0.2 -0.2)">
       <use xlink:href="#TimesNewRomanPSMT-51"/>
       <use x="50" xlink:href="#TimesNewRomanPSMT-49"/>
      </g>
     </g>
    </g>
    <g id="xtick_9">
     <g id="text_21">
      <!--  -->
      <g transform="translate(456.063231 528.8325)scale(0.2 -0.2)"/>
      <!-- 2 -->
      <g transform="translate(446.063231 549.775625)scale(0.2 -0.2)">
       <use xlink:href="#TimesNewRomanPSMT-50"/>
      </g>
      <!-- 12 -->
      <g transform="translate(436.063231 570.71875)scale(0.2 -0.2)">
       <use xlink:href="#TimesNewRomanPSMT-49"/>
       <use x="50" xlink:href="#TimesNewRomanPSMT-50"/>
      </g>
     </g>
    </g>
    <g id="xtick_10">
     <g id="text_22">
      <!--  -->
      <g transform="translate(564.570766 528.8325)scale(0.2 -0.2)"/>
      <!-- 0 -->
      <g transform="translate(554.570766 549.775625)scale(0.2 -0.2)">
       <use xlink:href="#TimesNewRomanPSMT-48"/>
      </g>
      <!-- 4 -->
      <g transform="translate(554.570766 570.71875)scale(0.2 -0.2)">
       <use xlink:href="#TimesNewRomanPSMT-52"/>
      </g>
     </g>
    </g>
   </g>
  </g>
 </g>
 <defs>
  <clipPath id="pca6733a73a">
   <rect height="434.88" width="558" x="105.176989" y="29.865"/>
  </clipPath>
 </defs>
</svg>
